<svg xmlns="http://www.w3.org/2000/svg" viewBox="0 0 1920 100"><defs><style>.cls-1{fill:#ebebe6;}</style></defs><g id="Layer_2" data-name="Layer 2"><g id="Layer_1-2" data-name="Layer 1"><path class="cls-1" d="M0,0V18.47c38,2.3,76.8,3.55,115.9,3.94,62,.66,125-.92,188.5-4.4,1.5-.07,3-.13,4.5-.26H324c-10.5.65-21,1.31-31.5,1.84-11.4.65-22.9,1.18-34.4,1.77l-17.4.79-8.7.39c-2.9.14-5.8.27-8.8.33C191,24.25,160.4,25.31,130.4,26s-59.6.86-89.3.59L27,26l-3.5-.13L13,25.31c-4.3-.2-8.7-.4-13-.66v8.54c3.9.2,7.9.33,11.8.46l9.5.4,9.5.26,9.5.26,4.8.13,4.8.14,19.1.39,19.2.26c61.3,1.12,122.7.07,184.1-2.56-4.2.53-7.8,1-10.7,1.58A41.44,41.44,0,0,0,255.1,36h0c-9.6.39-19.1.79-28.6,1-21.9.53-43.8.72-65.8.79H136l-8.2-.07c-11-.06-22-.26-33-.46-2.8,0-5.5-.13-8.2-.19l-8.2-.2-8.2-.2c-2.7-.06-5.5-.2-8.2-.26-5.5-.2-11-.33-16.5-.53s-11-.46-16.5-.65c-2.7-.14-5.5-.2-8.2-.33l-8.2-.4-8.3-.39L.2,34H0v.72c4.8.27,9.5.53,14.3.73l4.6.19,4.6.2,9.3.4c6.2.26,12.4.52,18.6.72l18.6.59c6.2.13,12.4.33,18.6.46q37.2.8,74.3.66c-54.5.72-109,0-162.9-2.43V41H.4l9.1.4c5.2.26,10.4.59,15.7.79s10.5.65,15.7,1C27.2,43,13.6,42.59,0,42.07v4.66l12.5.59C79.8,50.48,148.1,50.87,215.9,49c44.8.2,90-.33,135.9-1.77-5.7.39-11.4.85-17.2,1.18-73.5,4.67-142.7,6-211,4.8-34.2-.59-68.1-1.77-102.2-3.55l-3.2-.13-3.2-.2L8.6,49c-2.9-.13-5.8-.33-8.6-.46v1l16.8,1c33.3,1.84,66.9,3.15,101.9,3.68,7.2.07,14.5.2,21.6.26s14.3.07,21.4.07h10.6c3.5,0,7,0,10.6-.07,7,0,14-.06,20.9-.13,3.5-.06,6.9-.06,10.4-.13s6.9-.13,10.3-.13,6.9-.13,10.3-.13c1.7,0,3.4-.07,5.1-.07s3.4-.06,5.1-.13c6.8-.13,13.6-.26,20.4-.46s13.5-.33,20.2-.53C258.3,54,231,54.88,203.9,55.34s-54.2.59-81.2.33-54-1-80.9-2c-13.9-.59-27.8-1.25-41.8-2v2.1l12.5.79c1.7.13,3.4.2,5.1.33s3.4.2,5.1.26c3.4.2,6.8.33,10.2.53,27.3,1.31,55.2,2.17,83.2,2.63s56.3.33,84.5-.07l10.6-.13,5.3-.07,5.3-.13c7-.13,14.1-.33,21.1-.52s14.1-.4,21.1-.66,14-.53,21-.72a31.88,31.88,0,0,0,5,.52c4,.2,9.9.2,16.8,0l11-.39c3.8-.2,7.8-.46,11.8-.73l12-1c6.1-.46,12.1-.92,18.2-1.45l9.1-.72,9-.79c6-.52,12-1,18-1.51l18-1.58c3-.26,6-.52,9-.85l8.9-.86c6-.59,11.9-1.11,17.8-1.71s11.9-1.18,17.8-1.84S479,42,484.8,41.34c9.7-.52,20.9-1.31,32.9-2.36,40.7-2.76,81.1-5.46,122-8-2.4.46-3.8.79-3.7,1.12.6.33,3.2.46,7.2.33s9-.33,14.5-.79l16.5-1.18q-23.55,2-47.1,4.2c-2.3.2-4.4.4-6.2.66l-53,4.6q-29.7,2.57-58.8,5.13c-9.8.85-19.6,1.71-29.4,2.5-2.5.19-4.9.39-7.3.59l-7.5.59L449.9,50l-15,1.19c-5,.39-10,.72-15,1.11s-10,.66-15,1.06-10,.72-15,1c-10,.59-19.9,1.25-29.9,1.78l-14.9.78c-5,.27-10,.47-15,.73C250.5,61.39,171,62.44,92.2,60.27a82.52,82.52,0,0,0-8.9,0c-1.5.13-1.3.4,1.6.53,6.2.33,12.4.52,18.5.79s12.2.52,18.3.72,12.1.46,18.1.66,12,.33,18,.52c3,.07,6,.2,9,.27l9,.19,17.9.4c11.9.13,24,.39,36.1.39,3,0,6.1,0,9.1.07h9.2c6.1,0,12.3-.07,18.5-.07l18.7-.19c3.1-.07,6.3-.07,9.5-.14l9.5-.19c25.6-.53,52.1-1.52,80-3,4.2-.19,8.3-.46,12.5-.65s8.3-.46,12.4-.73l12.4-.72L434,58.3c8.2-.52,16.5-1,24.7-1.64s16.5-1.19,24.4-1.71c31.8-2.3,63.2-4.67,94.4-6.84,62.3-4.4,123.6-8.21,184.5-10,31.7-1.45,62.4-2.11,92.4-2,15,.07,29.8.33,44.4.86l10.9.39,10.9.46,10.8.6,5.4.32c1.8.14,3.6.27,5.4.33l10.9.73c3.6.26,7.3.52,10.9.85l5.5.39c1.8.14,3.7.33,5.5.46l11,1c3.7.33,7.3.72,11,1l5.5.53,5.5.59,11.1,1.18c3.7.4,7.5.86,11.2,1.25,1.9.2,3.7.46,5.6.66s3.8.46,5.7.66l11.3,1.38c7.6,1,15.2,1.9,23,3,15.4,2,31.2,4.21,47.3,6.45,43.5,6.11,87.8,12.75,134,18.86s94.3,11.76,144.7,15.84c25.2,2,51,3.68,77.2,4.73l19.7.73c1.6.06,3.3.06,5.1.13l5.1.13,10.3.2c1.7.06,3.4.06,5.1.06l5.1.07,10.2.06c6.9.07,13.6,0,20.4-.06,54.4-.53,107.5-3.82,158-8.74,38.1-3.42,72.4-8.42,97.5-13.15,12.6-2.37,22.9-4.6,30.4-6.64,3.8-1,6.8-1.91,9.1-2.76a12.63,12.63,0,0,0,4.4-2.3c1.5-1.58-2.2-2.37-9.8-2.43s-19.3.52-34.2,1.71c5.6-.79,11.2-1.58,16.7-2.44L1845.1,61l12.8-2.17c24.2-4.14,43.8-8.42,55.4-11.77l6.7-1.84V0ZM193.1,17.88c-2.5.06-5,.06-7.6.13s-5,.07-7.6.07c-5.1,0-10.1.06-15.2.13h-23c-2.6,0-5.1-.07-7.7-.07-5.2-.06-10.3-.06-15.6-.13-1.8,0-3.7-.07-5.6-.13h86.5C195.9,17.81,194.5,17.88,193.1,17.88ZM1634.4,30.1c-1.5.14-3,.33-4.5.46l-4.5.4c-.7.06-1.3.06-2,.13l6.7-1c2.2-.33,4.4-.72,6.6-1.05,3.1-.33,6.2-.72,9.4-1.05,27.1-2.37,52.8-5.72,78.2-9.46,1.6-.27,3.1-.46,4.7-.73,18.4-2.76,36.7-5.78,55.5-8.94,1.2-.13,2.5-.19,3.7-.33,4-.39,8.1-.72,12.3-1.18,5.1-.52,10.3-1.05,15.6-1.64-12.6,2-25.1,4-37.3,5.91-13.5,2.11-26.7,4.21-39.6,6.18q-14.7,2.27-28.8,4.34c-23.2,3-46.6,5.59-70.1,7.56l3.2-.59Zm180.3-12.62a8.87,8.87,0,0,1-1.4.33c-4.7,1.19-9,2.3-13.2,3.42-2.3.26-4.6.59-6.9.85s-4.7.6-7,.92c-4.7.6-9.5,1.32-14.2,2-25.6,3.61-50.5,6.9-75.1,9.72,2.9-.85-3-.19-6.1.07l-9.4.79c26.2-2.89,52.2-6.44,78.6-10.45,15.1-2.3,31.1-4.73,46.6-7.3,8.8-1.44,17.5-3,25.7-4.47C1825.6,14.85,1819.9,16.17,1814.7,17.48Z"/></g></g></svg>