<svg xmlns="http://www.w3.org/2000/svg" viewBox="0 0 1921.98 576.21"><defs><style>.cls-1{fill:#2ea294;}.cls-2{fill:#222;}</style></defs><title>Animated Wave Sketches with Lines 3.8 Slimmer</title><g id="Green_Top" data-name="Green Top"><path class="cls-1" d="M1921.79,242.56l-1.79.54v3.77q-5.7,1.92-11.41,3.76c-8.27,2.7-16.55,5.3-24.77,7.79q-7.46,2.26-14.84,4.41c-14.52,4.2-28.73,8-42.31,11.31q-5.42,1.33-10.66,2.54c-5.33,1.23-10.53,2.36-15.61,3.45-4.2.87-8.29,1.66-12.27,2.43l-3.64.68h0c-2.71.5-5.36,1-7.94,1.39-5.12,1.57-10.16,3-14.87,4.12s-9.09,2-12.93,2.62c-7.68,1.21-13.13,1.28-14.62.15s1.1-3.2,6.3-5.69h.09l.61-.29c2.84-1.29,6.43-2.83,10.56-4.33s8.83-3.06,14-4.68c4.4-1.68,9.59-3.43,12.7-4.91,13.84-6.63,29.48-13.6,46.66-20.93s36-15.09,56.13-23.07l-23,10.45c5.74-2.3,11.5-4.61,17.43-6.89s12.18-4.58,18.83-6.82c-1.16,1-2.73,2.08-3.91,3.06,9-4,19-8,29.51-11.79V243Z" transform="translate(0.19 -208.74)"/><path class="cls-1" d="M1915.52,261.49l4.48-1.88v3.2a45.17,45.17,0,0,1-8.69,2C1908.83,264.93,1910.57,263.47,1915.52,261.49Z" transform="translate(0.19 -208.74)"/><path class="cls-1" d="M1921.79,242.56l-1.79.54V251c-8.82,2.53-17.68,5.15-26.28,7.73l-12.24,3.38c-6,1.35-10.16,1.8-11.74,1.28a1.05,1.05,0,0,1-.76-.53c-.54-1.32,4.27-4.29,12.38-7.74h.06c2.83-1.21,6.07-2.47,9.62-3.75l18-6.41c3.5-1.39,7.18-2.83,11-4.29V243Z" transform="translate(0.19 -208.74)"/><path class="cls-1" d="M635.55,227.78c-52.5,9.17-103.85,19.87-154.4,30.45l-37.77,7.88L425,269.83l-4.6.93-4.6.88-9.21,1.75C382,278,357.4,282.3,332.74,286c-3.31.5-6.15.59-6.4.17s2.26-1.11,5.32-1.55c24.65-3.64,49.21-7.93,73.71-12.55l9.19-1.75c3.06-.58,6.12-1.17,9.17-1.8l18.33-3.71,37.66-7.86c50.41-10.57,101.63-21.27,154.15-30.46,3.54-.59,6.55-.73,7.12-.4C641.25,226.46,638.84,227.21,635.55,227.78Z" transform="translate(0.19 -208.74)"/><path class="cls-1" d="M1047.43,236.3l-8.85-1.87-1.65-.35c-2.74-.56-5.48-1.1-8.24-1.63l-12.94-2.5q-6.21-.91-12.47-1.74-27.33-3.68-55.22-5.77c-22.84-1.74-45.81-2.42-68.62-2.29,30.19.57,60.55,2.71,90.4,5.89l5.6.58,5.56.68,11.13,1.35,2,.24c3,.38,6,.84,9.08,1.24l11,1.5,7.75,1.18,11.09,1.69,3.08.47,10.88,1.78c3.63.59,7.27,1.17,10.86,1.82C1054.44,237.77,1050.93,237,1047.43,236.3Zm681.21,100.44-1.39.79c-1.37.8-4.12,2.31-9.61,5.33l5.26-2.39c3.27-1.48,7.6-3.6,11.9-5.67l2.33-1.11ZM1047.43,236.3l-8.85-1.87-1.65-.35c-2.74-.56-5.48-1.1-8.24-1.63l-12.94-2.5q-6.21-.91-12.47-1.74-27.33-3.68-55.22-5.77c-22.84-1.74-45.81-2.42-68.62-2.29,30.19.57,60.55,2.71,90.4,5.89l5.6.58,5.56.68,11.13,1.35,2,.24c3,.38,6,.84,9.08,1.24l11,1.5,7.75,1.18,11.09,1.69,3.08.47,10.88,1.78c3.63.59,7.27,1.17,10.86,1.82C1054.44,237.77,1050.93,237,1047.43,236.3Zm681.21,100.44-1.39.79c-1.37.8-4.12,2.31-9.61,5.33l5.26-2.39c3.27-1.48,7.6-3.6,11.9-5.67l2.33-1.11Zm161.77-96.66c-1.24-.62-8.27,1-15.17,3.42-23.32,7.31-47,14.92-70.47,22.36-21.79,6.9-43.37,13.65-64.28,19.94h-.09c-5.2,2.49-7.7,4.57-6.3,5.69s6.94,1.06,14.62-.15c3.84-.63,8.22-1.51,12.93-2.62s9.75-2.55,14.87-4.12c2.58-.41,5.23-.89,7.94-1.39h0q8.16-2.91,16.44-5.93c28.17-10.23,52-20.69,79-31.57C1887.06,243.24,1891.7,240.74,1890.41,240.08Zm23.25,4.93h0q-16.14,4.88-32.23,10.06h-.06q-14.94,4.78-29.74,9.7-18,5.94-35.61,11.89,5.25-1.21,10.66-2.54c13.58-3.3,27.79-7.11,42.31-11.31a1.05,1.05,0,0,0,.76.53c1.58.52,5.78.07,11.74-1.28l12.24-3.38c8.6-2.58,17.46-5.2,26.28-7.73V243.1C1917.89,243.73,1915.77,244.36,1913.66,245Z" transform="translate(0.19 -208.74)"/><path class="cls-1" d="M1868.66,275c16.37-6.68,33.57-13.43,51.34-20.14V251c-8.82,2.53-17.68,5.15-26.28,7.73l-12.24,3.38c-6,1.35-10.16,1.8-11.74,1.28a1.05,1.05,0,0,1-.76-.53c-14.52,4.2-28.73,8-42.31,11.31q-5.42,1.33-10.66,2.54-18.91,6.35-37.33,12.52c-23.69,7.9-46.63,15.39-68.45,22.14q-12.21,3.33-24.48,6.3-14.18,3.45-28.4,6.38-3.72.76-7.46,1.49c-3.24.64-6.47,1.24-9.71,1.83l3.22-1.19-9,1.93c-1.51.31-3,.65-4.52.95l-4.51.84-2,.31,6.68-2.12,6.64-2.28,4.89-1.15,4.51-1c.71-.13,1.42-.26,2.12-.41,9.56-1.81,19-3.87,28.2-6.12,16.25-3.94,32.12-8.49,47.86-13.4,20-6.27,39.84-13.14,60.18-20.42-2.71.5-5.36,1-7.94,1.39-5.12,1.57-10.16,3-14.87,4.12s-9.09,2-12.93,2.62c-7.68,1.21-13.13,1.28-14.62.15s1.1-3.2,6.3-5.69c-1.56.45-3.14.92-4.69,1.39-22.4,6.69-44,12.82-64.26,18.25-10.14,2.76-19.94,5.25-29.36,7.69l-3.78.94q-5.1,1.27-10,2.57c-4.33,1-8.57,2.06-12.7,3.12l-.47.12-3,.41c-1,.14-2,.24-2.95.36l-.79.1-5,.62q-2.89.38-5.73.78l-2.82.4-2.77.35c-3.67.46-7.24,1-10.68,1.52l-2.56.43-2.49.36c-1.65.24-3.26.5-4.83.77l-.7.07,4.79-1.28c1.58-.42,3.15-.82,4.78-1.32-11.75,1.18-18,3.26-28.72,4.11,1.22-1,2.7-1.92,3.89-2.89-3.61.17-7.25.39-10.9.5l-10.95.14c-1.83,0-3.68.06-5.51,0l-5.49-.13c-3.68-.1-7.33-.16-11.06-.29l-11.48-.65c-1.92-.12-3.83-.19-5.75-.34l-5.77-.47c-3.84-.33-7.68-.58-11.53-.95l-11.53-1.17c-3.83-.35-7.68-.86-11.51-1.31l-5.74-.68c-1.91-.22-3.82-.43-5.73-.71-7.65-1.05-15.23-2-22.78-3.13-15.07-2.09-29.94-4.49-44.38-6.58-2.3-.47-4.46-.86-6.62-1.25-23.84-7.46-47.92-15.58-77.29-23.91,10.07,2.42,19.88,4.79,29.86,7.05-20.78-6.68-41.64-13.33-64.88-19.78-15.72-4.38-32.19-8.75-48.66-12.83l-12.38-3q-6.17-1.47-12.32-2.86l-12.17-2.7c-4.05-.86-8.07-1.69-12-2.5-7.88-1.62-15.69-3-23.1-4.35s-14.66-2.37-21.39-3.33-13.2-1.64-19.05-2.2-11.3-.83-16-1c-2.47-.6-5-1.16-7.47-1.72l-4.93-1.08c-3.23-.71-6.45-1.43-9.68-2.13l-2.78-.6-12.58-2.57c-2.09-.42-4.18-.86-6.29-1.27l-2.1-.39-4.25-.79-12.71-2.36-12.83-2.15-6.42-1.07-6.47-1-12.95-1.9c-4.34-.58-8.71-1.11-13.06-1.66s-8.7-1.11-13.1-1.53l-13.17-1.35c-2.19-.24-4.39-.41-6.59-.59l-6.61-.54q-26.4-2.06-52.74-2.68t-52.38.09c-17.38.41-34.63,1.3-51.78,2.44s-34.2,2.6-51.09,4.35-33.69,3.7-50.34,5.86c-6.88.88-12.9,2.39-14,3.39-.53.91,4.14,1,11,.14q35.82-4.16,72.54-7.06c24.46-1.88,49.18-3.29,74.16-3.86s50.15-.43,75.44.68l9.49.5c3.17.18,6.33.31,9.49.55l9.51.67,4.75.34,4.75.42,9.51.85c3.16.28,6.32.67,9.48,1,6.31.7,12.65,1.33,18.9,2.21-2.63-.25-5.25-.56-7.91-.77l-8-.63c-5.3-.4-10.6-.89-15.92-1.15s-10.63-.67-15.94-.85-10.63-.49-15.94-.57q-31.86-.87-63.56.26c-42.23,1.44-84.1,5.22-125.65,10.37-5.3.59-10.63,1.15-15.93,1.81s-10.64,1.26-15.94,2-10.46,1.43-15.61,2.29-10.3,1.76-15.38,2.74c-13.08,2-25.95,4.19-38.76,6.38s-25.45,4.5-38,6.85c-25.16,4.67-50,9.52-74.67,14.34l-37,7.19c-12.45,2.41-24.4,4.58-36.63,6.79-24.39,4.26-49.1,8.06-74.29,11.33-43,5.43-83.42,9.24-123.66,11.22l-15.08.73-15.09.49-7.57.24-6.08.1h-.28l-1.21,0-15.2.23-15,0h-8c-2.57,0-5.14-.1-7.73-.15l-1,0-14.52-.3-15.73-.62C66,300.3,32.58,297.38,0,293.08v10.49q44.88,5.67,90.83,7.59l.68,0q12.15.53,24.35.78,21.64.48,43.45.18c3.28,0,6.58-.08,9.87-.16q18.54-.36,37.16-1.26,48.75-2.33,98-8,47.58-5.43,95.49-13.67l24-4.27,24-4.58L497,270.35c28.52-5.76,56.78-11.38,85.14-16.69-.3.34-.57.68-.5,1,.28,1.14,3.25,1.7,8,1.76-32.19,6.06-64.22,12.82-96.11,19.77-22.41,3.81-44.91,7.72-66.8,11.29-5.51.91-11,1.74-16.56,2.62s-11.06,1.75-16.61,2.54l-16.66,2.48-16.73,2.33-8.38,1.17-8.41,1.09-16.87,2.21c-11.28,1.34-22.6,2.82-34,4.06s-22.85,2.49-34.39,3.75l-17.36,1.69c-2.91.28-5.82.59-8.73.85l-8.76.76-6.88.61q-17.34,1.51-34.15,2.74c-2.79.21-5.57.4-8.33.59-14.7,1-29.15,1.85-43.48,2.5q-7.27.33-14.5.59l-7,.24c-22.68.72-45.15.9-67.79.41l-14.06-1.19-3.52-.29-3.5-.37-7-.74c-4.34-.48-8.7-.9-13-1.41v18c3.93.37,7.87.72,11.82,1l9.52.8,9.53.61,9.54.61,4.77.3,4.77.21,19.11.83,19.13.47q39.9,1.54,79.9.6c3-.06,6-.13,9-.23q32.61-.92,65.24-3.32,4.49-.32,9-.68,10.53-.81,21-1.78a108.68,108.68,0,0,0-10.66,3.27c-.47.17-.92.35-1.35.52a30.44,30.44,0,0,0-3.9,1.81,12.56,12.56,0,0,0-1.26.81.06.06,0,0,0,0,0c-9.56.81-19.07,1.67-28.58,2.27q-17.75.86-35.55,1.22c-2.8.07-5.6.12-8.4.17q-10.92.19-21.83.28H140.2l-4.12-.07-8.25-.14c-11-.1-22-.55-33-.9-2.75-.06-5.5-.24-8.25-.37l-8.24-.42-8.25-.41c-2.74-.13-5.49-.36-8.23-.53L45.4,340.57,29,339.16c-2.74-.25-5.49-.46-8.23-.73l-8.21-.86L4.3,336.7l-4.1-.43-.2,0v1.56q7.14.81,14.3,1.51l4.63.49c1.54.17,3.08.32,4.63.45l9.27.79c6.19.53,12.36,1.12,18.56,1.48s12.38.87,18.57,1.24l18.59.93q37.17,1.56,74.29,1.4A1323.53,1323.53,0,0,1,0,341.07V466.21H1920V263.6l-1.61.39-1.81.41-.09.05-37.38,9.11c-5.74,2.11-11,4.12-16,6.09,1.56-.76,3-1.49,4.46-2.22C1870.4,276,1867.05,275.62,1868.66,275ZM627.06,338c-2.28.43-4.36.89-6.25,1.36L567.86,349l-6.42,1.18H497.92c6.24-.91,12.88-2,19.79-3.27,40.67-5.8,81.1-11.52,122-16.75-2.44.91-3.85,1.74-3.68,2.36.56.68,3.25.9,7.16.71a123,123,0,0,0,14.48-1.64l16.5-2.47Q650.63,333.3,627.06,338Zm420-101.29L1036.16,235l-3.08-.47L1022,232.81l-7.75-1.18-11-1.5c-3-.4-6-.86-9.08-1.24l-2-.24L981,227.3l-5.56-.68-5.6-.58c-29.85-3.18-60.21-5.32-90.4-5.89,22.81-.13,45.78.55,68.62,2.29q27.87,2.06,55.22,5.77,6.26.82,12.47,1.74l12.94,2.5c2.76.53,5.5,1.07,8.24,1.63l1.65.35,8.85,1.87c3.5.73,7,1.47,10.47,2.27C1054.31,237.92,1050.67,237.34,1047,236.75ZM1734.8,334.8c-4.3,2.07-8.63,4.19-11.9,5.67l-5.26,2.39c5.49-3,8.24-4.53,9.61-5.33l1.39-.79,8.49-3.05Zm79.86-33.33c-5.24,2.78-10,5.38-14.62,8q-3.45.9-6.94,1.86l-7,1.91c-4.71,1.29-9.46,2.74-14.23,4.12l-9.25,2.73q-15.22,4.44-30.17,8.54-6.42,1.75-12.78,3.44-11.51,3-22.9,5.85c2.87-1.85-3-.42-6.1.11s-6.27,1.13-9.39,1.64q16-3.75,32-8.13,5.73-1.56,11.46-3.2,13.83-4,27.72-8.32c2.5-.78,5-1.58,7.51-2.38,23.79-7.58,49.77-16.13,72.22-24.78C1825.59,295.9,1819.89,298.71,1814.66,301.47Z" transform="translate(0.19 -208.74)"/></g><g id="Green_Bottom" data-name="Green Bottom"><path class="cls-1" d="M1918.21,697.57v12.49l-1.68-.75c-3.1-1.4-8.29-3-12.68-4.63-5.13-1.52-9.82-3-13.95-4.4s-7.71-2.87-10.55-4.08l-.61-.27-1.18-.54c-4.45-2.13-6.5-3.88-5.21-4.85,1.49-1.07,6.94-1,14.61.13l1.6.26c3.44.56,7.25,1.3,11.32,2.21,4.7,1,9.74,2.4,14.85,3.88C1915.88,697.19,1917,697.38,1918.21,697.57Z" transform="translate(0.19 -208.74)"/><path class="cls-1" d="M774.83,750.56c-52.45-8.63-103.75-18.71-154.26-28.67l-37.74-7.42L564.46,711l-4.59-.88-4.6-.82-9.2-1.65c-24.54-4.37-49.13-8.4-73.78-11.83-3.3-.48-6.14-.56-6.38-.17s2.25,1.06,5.31,1.47c24.62,3.43,49.17,7.47,73.64,11.81l9.18,1.65c3.06.55,6.11,1.1,9.17,1.7l18.31,3.49,37.62,7.4c50.37,10,101.54,20,154,28.69,3.53.55,6.54.68,7.11.37C780.53,751.81,778.12,751.1,774.83,750.56Z" transform="translate(0.19 -208.74)"/><path class="cls-1" d="M25.47,663.79c2.26-.75,2.05-1.15-.49-1a35.75,35.75,0,0,0-8.14,1.68c-1.88.68-1.65,1.16.51,1a34.79,34.79,0,0,0,4.28-.7A37.83,37.83,0,0,0,25.47,663.79Z" transform="translate(0.19 -208.74)"/><path class="cls-1" d="M1914.73,697c-5.11-1.48-10.15-2.84-14.85-3.88-4.07-.91-7.88-1.65-11.32-2.21l-1.6-.26c-7.67-1.14-13.12-1.2-14.61-.13-1.29,1,.76,2.72,5.21,4.85l1.18.54c12.94,3.67,26.13,7.5,39.47,11.43v-9.79C1917,697.38,1915.88,697.19,1914.73,697Zm-41.68-47.24c-4.29-1.94-8.62-3.94-11.89-5.34l-5.25-2.25c5.48,2.85,8.23,4.27,9.6,5l1.39.76c3.09,1,5.87,2,8.48,2.86Zm-687.12,92.34-10.87,1.67-21.9,3.15-11,1.42c-3.69.45-7.34,1-11.05,1.38L1120,751l-5.56.64-5.6.54c-29.82,3-60.15,5-90.31,5.55,22.79.12,45.74-.52,68.56-2.15s45.37-4,67.62-7.08c7.07-1.3,14.15-2.54,21.16-3.89l10.49-2.09c3.5-.69,7-1.38,10.46-2.14C1193.2,741,1189.56,741.56,1185.93,742.12ZM165,631.89c-5.23.41-10.43,1.05-15.65,1.58l-5.92.5H627.1l-2.9-.32L606.81,630l-17.75-3.58c-5.9-1.22-11.86-2.33-17.81-3.47l-8.93-1.68c-3-.58-6-1.13-9-1.66l-18-3.2c-6-1.07-12-2-18-3l-9-1.51-9.07-1.42L483.22,608l-2.07-.32-12-1.91c-4-.56-7.95-1.06-11.78-1.48-1.95-.18-3.87-.35-5.75-.49s-3.56-.24-5.26-.34c-4.22-.22-8.08-.34-11.34-.28-2.06,0-3.89.13-5.44.3a14,14,0,0,0-5,1.08c-7-.49-14-1-21-1.48l-4.32-.26-16.75-1c-5.07-.25-10.17-.48-15.25-.7h0l-5.86-.27-1.35-.07h0l-3.89-.17-5.3-.17-10.57-.33c-28.2-.79-56.41-.88-84.43-.12s-55.81,2.55-83.12,5.21l-10.22,1-5.09.53-5.07.61-20.18,2.53-19.92,3c-3.31.47-6.6,1-9.87,1.62l-9.79,1.72c-5.28.93-8,1.87-7,2.42a42.78,42.78,0,0,0-6.91.93l-2.18.52c-5.47,1.26-11.24,2.46-17.22,3.72-5.17,1.14-10.52,2.29-16,3.44l-5.06,1.07c-3.12.76-4.73,1.51-3.16,1.55a35.4,35.4,0,0,0,8.06-1l5.71-1.23,5.28-1.12c3.63-.79,7.22-1.6,10.8-2.28,6.2-1.25,12.25-2.54,18.08-3.82l2.63-.57a6.34,6.34,0,0,0,2.56-.88,81.91,81.91,0,0,0,12.6-1.11q40.5-5.51,80.89-8.73t80.86-4q33.44-.78,67,.17h0c2.77.06,5.55.15,8.32.23h0l5.81.2q13.37.5,26.75,1.21,15.38.82,30.8,2,5.5.42,11,.89,6.53.55,13.07,1.18l-15.58-.81c-1.55-.08-3.1-.17-4.65-.24l-8-.34-12.37-.53-5.11-.21-5.14-.16-10.3-.33-3.66-.12c-2.21-.07-4.44-.15-6.67-.19l-10.39-.21c-6.94-.13-13.91-.31-20.93-.3L312,607.5c-3.52,0-7.05-.06-10.59,0l-21.37.2-21.61.53c-35,1.08-68.49,3.63-101.81,7.36-15.56,1.74-31.09,3.75-46.71,6-14.8,2.14-29.68,4.52-44.77,7.16q-4.65.79-9.31,1.64c-3.59.61-5.89,1.39-5.41,1.71s3.58.15,7.08-.54c4.37-.83,8.78-1.5,13.14-2.2l1.31-.22,11.77-1.92c2.17-.38,4.35-.67,6.53-1l6.5-1,13-1.91,11.17-1.45,14.63-1.9,12.85-1.46c2.14-.25,4.28-.49,6.42-.75l3.19-.36,3.21-.32c34.14-3.55,68-5.93,102.15-7.08,28.09-.93,56.34-1,85-.22q18.45.54,37.16,1.62,5.52.3,11.05.68c25.44,1.69,51.27,4.16,77.64,7.5q4.55.55,9.08,1.21c2.72.38,5.42.78,8.11,1.17-2.71-.17-5.41-.34-8.11-.49-43-2.54-85.5-3.46-127.65-3.07-1.42-.07-2.84-.15-4.27-.21-3.43-.18-6.87-.35-10.31-.49q-27.19-1.23-54.44-1.45a1313,1313,0,0,0-134.23,5.52l-5,.48h0q-30.51,3-60.68,7.58Q74.12,631.79,61.7,634t-24.92,4.71Q18.26,642.4,0,646.78v4.69L12.39,649c4.57-.94,9.2-1.71,13.82-2.51l13.85-2.42c4.64-.73,9.29-1.41,13.93-2.12l7-1.06,3.48-.53,3.51-.45,5.11-.68q23.55-3.1,47.26-5.29,19.43-1.79,38.91-3,10.71-.66,21.44-1.13l-6.87.89Zm1708.08,17.89c-4.29-1.94-8.62-3.94-11.89-5.34l-5.25-2.25c5.48,2.85,8.23,4.27,9.6,5l1.39.76c3.09,1,5.87,2,8.48,2.86Zm-687.12,92.34-10.87,1.67-21.9,3.15-11,1.42c-3.69.45-7.34,1-11.05,1.38L1120,751l-5.56.64-5.6.54c-29.82,3-60.15,5-90.31,5.55,22.79.12,45.74-.52,68.56-2.15s45.37-4,67.62-7.08c7.07-1.3,14.15-2.54,21.16-3.89l10.49-2.09c3.5-.69,7-1.38,10.46-2.14C1193.2,741,1189.56,741.56,1185.93,742.12Z" transform="translate(0.19 -208.74)"/><path class="cls-1" d="M-.19,497.06V634H61.7q12.4-2.19,24.91-4.09,30.14-4.61,60.68-7.58h0l5-.48a1313,1313,0,0,1,134.23-5.52q27.24.21,54.44,1.45c3.44.14,6.88.31,10.31.49,1.43.06,2.85.14,4.27.21,42.15-.39,84.61.53,127.65,3.07,2.7.15,5.4.32,8.11.49-2.69-.39-5.39-.79-8.11-1.17q-4.53-.66-9.08-1.21c-26.37-3.34-52.2-5.81-77.64-7.5q-5.53-.37-11.05-.68-18.7-1.1-37.16-1.62c-28.64-.83-56.89-.71-85,.22-34.11,1.15-68,3.53-102.15,7.08l-3.21.32-3.19.36c-2.14.26-4.28.5-6.42.75L135.49,620l-14.63,1.9-11.17,1.45-13,1.91-6.5,1c-2.18.32-4.36.61-6.53,1l-11.77,1.92-1.31.22c-4.36.7-8.77,1.37-13.14,2.2-3.5.69-6.52.84-7.08.54s1.82-1.1,5.41-1.71q4.66-.84,9.31-1.64c15.09-2.64,30-5,44.77-7.16,15.62-2.26,31.15-4.27,46.71-6,33.32-3.73,66.83-6.28,101.81-7.36l21.61-.53,21.37-.2c3.54,0,7.07,0,10.59,0l10.54.07c7,0,14,.17,20.93.3l10.39.21c2.23,0,4.46.12,6.67.19l3.66.12,10.3.33,5.14.16,5.11.21,12.37.53,8,.34c1.55.07,3.1.16,4.65.24l15.58.81q-6.54-.62-13.07-1.18-5.52-.47-11-.89-15.42-1.17-30.8-2-13.4-.72-26.75-1.21l-5.81-.2h0c-2.77-.08-5.55-.17-8.32-.23h0q-33.55-.91-67-.17-40.47.9-80.86,4t-80.89,8.73A81.91,81.91,0,0,1,88.22,619a6.34,6.34,0,0,1-2.56.88l-2.63.57C77.2,621.69,71.15,623,65,624.23c-3.58.68-7.17,1.49-10.8,2.28l-5.28,1.12-5.71,1.23a35.4,35.4,0,0,1-8.06,1c-1.57,0,0-.79,3.16-1.55l5.06-1.07c5.45-1.15,10.8-2.3,16-3.44,6-1.26,11.75-2.46,17.22-3.72l2.18-.52a42.78,42.78,0,0,1,6.91-.93c-1-.55,1.71-1.49,7-2.42l9.79-1.72c3.27-.57,6.56-1.15,9.87-1.62l19.92-3,20.18-2.53,5.07-.61,5.09-.53,10.22-1c27.31-2.66,55.11-4.36,83.12-5.21s56.23-.67,84.43.12l10.57.33,5.3.17,3.89.17h0l1.35.07,5.86.27h0c5.08.22,10.18.45,15.25.7l16.75,1,4.32.26c7,.43,14,1,21,1.48a14,14,0,0,1,5-1.08c1.55-.17,3.38-.27,5.44-.3,3.26-.06,7.12.06,11.34.28,1.7.1,3.46.21,5.26.34s3.8.31,5.75.49c3.83.42,7.8.92,11.78,1.48l12,1.91,2.07.32,16.07,2.5,9.07,1.42,9,1.51c6,1,12,2,18,3l18,3.2c3,.53,6,1.08,9,1.66l8.93,1.68c6,1.14,11.91,2.25,17.81,3.47L606.81,630l17.39,3.63,2.9.32H143.4l-3.14.27-4.53.39-4.51.47L113.15,637c-5.12.62-10.25,1.29-15.36,1.93l-2.63.33c-6,.71-12,1.65-18,2.54-12,1.66-23.83,3.84-35.73,5.89l-17.72,3.48-4.44.87c-1.48.3-2.94.64-4.4,1l-1.45.32-5.3,1.18L6.11,655c-.89.18-1.76.37-2.63.57-1.18.25-2.34.52-3.48.78v8.13c1.73-.31,3.52-.65,5.33-1-1.77.48-3.55.94-5.33,1.41v1.61c.37-.07.74-.16,1.09-.24l2.32-.62,12-3.22c2.37-.63,4.73-1.3,7.12-1.9l1.3-.32,5.85-1.44,2.85-.51c1.89-.35,3.78-.67,5.66-1q4.92-.85,9.85-1.67c83.41-13.84,169.09-18.7,254.54-16.36q-37.06-.17-74.23,1.32l-18.57.88c-6.18.34-12.36.79-18.55,1.16s-12.36.91-18.54,1.4l-9.26.75c-1.55.11-3.09.26-4.63.42l-4.62.46c-24.69,2.28-49.28,5.42-73.72,9.23l-10.33,1.62c-2.66.43-5.32.88-8,1.37l-4.44.79-6.1,1.07c-2.57.46-5.13.92-7.69,1.4l-1.53.3-16.62,3.3c-1.56.29-3.11.62-4.66,1l-4.38,1-8.91,2-.11,0,.07,0c1.79-.65,1.84-1.14-.63-.92-.92.1-2.2.3-3.52.57S1,668.7,0,669v2.77c2.11-.5,4.22-1,6.34-1.42l.4-.09,5.9-1.3,9.69-2.14,6.34-1.26,9.75-1.94c2.68-.53,5.36-1.09,8-1.6l2.17-.38,5.91-1,3.37-.59,4.72-.84L64,659l2.71-.49,2-.36,2-.32,7.7-1.21L87,655.24,91,654.6c1.36-.21,2.72-.38,4.08-.57l8.16-1.11,8.16-1.12c1.35-.18,2.7-.4,4.07-.55l4.1-.48L136,648.84l2-.24,2.05-.2,4.11-.41,8.2-.81,8.2-.81c2.74-.26,5.49-.46,8.22-.68l16.44-1.34,16.46-1.05c2.74-.16,5.48-.38,8.22-.5l8.25-.39,8.23-.4c2.75-.12,5.49-.28,8.24-.34,11-.33,22-.76,32.95-.85l8.24-.13,4.12-.07h20.58c21.94.18,43.87.58,65.71,1.58,9.51.57,19,1.38,28.56,2.14a0,0,0,0,0,0,0,28.69,28.69,0,0,0,6.51,3c2.89,1,6.49,2.06,10.65,3.08-61.41-5.29-122.79-7.33-184-5.1l-19.11.44-19.1.79-4.76.19-4.77.29-9.53.57-9.53.58-9.5.76c-12.69.9-25.32,2.23-38,3.52l-18.89,2.27c-3.16.35-6.28.84-9.42,1.27l-4.61.65-4.8.68a65.7,65.7,0,0,0-9.14,1.81,14.61,14.61,0,0,0-3.29,1.27c-.38.23-.58.45-.57.64,0,.83,4.73.64,11-.07l2.64-.32,5.45-.76,3.73-.52c3.07-.41,6.11-.9,9.2-1.24l7.36-.88,11.09-1.32c-2,.48-3.85,1-5.53,1.45a46.75,46.75,0,0,0-8.74,3.21,6.64,6.64,0,0,0-1.9,1.39,1.51,1.51,0,0,0-.35.69.87.87,0,0,0,.15.65c.77,1.21,4.57,2,10.38,2.26q1.5.07,3.18.12c-28.13,4.14-55.73,9.49-82.56,16q-5.72,1.38-11.4,2.84l-5.43,1.41Q5.62,687.4,0,689l-.19,0A.58.58,0,0,0,0,689v2.78q3.95-1,7.9-1.94,6.26-1.5,12.52-2.93c2.1-.48,4.21-.95,6.3-1.4q6.86-1.53,13.73-2.94,14.61-3,29.34-5.68l3.42-.63,3.44-.55,6.87-1.12,6.89-1.12c2.29-.36,4.57-.79,6.88-1.09l13.84-2,6.92-1,7-.83L138.91,667c4.52-.51,9.07-.92,13.6-1.38l.38,0,7-.7,3.5-.36,3.5-.27,14.06-1.12c29.75-.61,59.22-.11,89.25,1.17q13.08.56,26.33,1.32c21.6,1.21,43.63,2.81,66.42,4.74l8.75.72c2.91.24,5.82.53,8.73.8l17.34,1.59c11.53,1.2,23,2.24,34.36,3.54,2.28.24,4.57.47,6.85.73,9.07,1,18.11,2.08,27.12,3.08l8,1,8.82,1.09,8.4,1,8.37,1.11,16.72,2.2,11.35,1.58,5.29.74c5.55.75,11.07,1.58,16.6,2.4s11,1.61,16.54,2.46c21.87,3.37,44.35,7,66.74,10.63,31.86,6.55,63.86,12.91,96,18.62-4.75.06-7.71.59-8,1.66-.07.27.2.59.5.92-28.34-5-56.57-10.3-85.06-15.72l-49.18-9.29-24-4.31-23.94-4q-9.55-1.54-19.1-3-26.09-3.95-52.08-7.12Q456,681.29,443.92,680l-11-1.15a1471.62,1471.62,0,0,0-177.29-7.55,1149.65,1149.65,0,0,0-159.54,14q-11.17,1.81-22.28,3.85l-1.35.26L64.22,691q-6.64,1.29-13.25,2.68-8,1.67-16,3.47-17.61,4-34.94,8.61v9.72Q34.59,706.54,69.91,700c.61-.13,1.22-.24,1.83-.35Q82,697.71,92.32,696q7.73-1.29,15.5-2.47c3.64-.56,7.27-1.11,10.93-1.62q27.17-3.89,55.16-6.55,32.6-3.09,66.58-4.49l15.71-.58,15.56-.31c2.58,0,5.15-.11,7.72-.14l7.68,0h15.29c5.07.06,10.14.14,15.18.21l7.57.12,7.56.22,9.62.29,4.39.14,1.07,0,15.06.69q20.82,1,41.8,2.54c11.93.89,23.94,1.92,36.11,3.1,14.94,1.43,30.12,3.08,45.64,4.93,3.38.41,6.77.83,10.14,1.27q32.51,4.17,64.08,9.4c12.22,2.09,24.15,4.12,36.59,6.4l37,6.76c24.69,4.54,49.46,9.11,74.6,13.5q18.84,3.33,38,6.45c12.79,2.07,25.66,4.12,38.73,6,5.07.92,10.2,1.78,15.36,2.57s10.35,1.53,15.6,2.16,10.61,1.25,15.91,1.84,10.63,1.15,15.93,1.71c41.51,4.85,83.34,8.42,125.53,9.76,21.1.68,42.28.81,63.5.25,5.3-.08,10.61-.35,15.93-.54s10.62-.52,15.92-.8,10.61-.7,15.91-1.08l7.94-.59c2.66-.19,5.27-.49,7.9-.73-6.24.83-12.57,1.42-18.88,2.08-3.16.31-6.31.68-9.47.94l-9.5.8-4.75.4-4.74.32-9.5.64c-3.16.23-6.32.34-9.48.52l-9.49.46c-25.26,1-50.43,1.2-75.37.64s-49.65-1.86-74.09-3.63-48.61-4-72.47-6.65c-6.84-.84-11.51-.73-11,.13,1.05.94,7.06,2.36,13.94,3.19q24.94,3.06,50.29,5.52t51,4.11c17.14,1.06,34.37,1.91,51.74,2.28s34.81.46,52.33.09,35.09-1.24,52.69-2.53l6.6-.5c2.2-.17,4.4-.33,6.59-.56l13.15-1.27c4.4-.4,8.74-.92,13.09-1.44s8.71-1,13-1.57l12.94-1.78,6.46-.91,6.41-1,12.82-2,12.7-2.22,6.35-1.11c2.1-.39,4.18-.8,6.28-1.2l12.57-2.42c4.16-.83,8.29-1.71,12.45-2.56s8.3-1.72,12.38-2.65c4.75-.13,10.14-.42,16-.91,5.06-.46,10.54-1,16.33-1.73l2.7-.33c6.73-.91,13.93-1.93,21.37-3.15s15.21-2.57,23.08-4.1c4-.75,8-1.53,12-2.35l12.17-2.54q6.15-1.3,12.31-2.7l12.36-2.82c16.46-3.83,32.91-8,48.62-12.08,23.21-6.08,44.06-12.34,64.82-18.63-10,2.13-19.77,4.37-29.83,6.64,29.34-7.84,53.4-15.48,77.21-22.52,2.16-.36,4.31-.73,6.62-1.17,14.43-2,29.28-4.23,44.34-6.2,7.54-1.09,15.11-2,22.76-2.95,1.9-.26,3.81-.46,5.72-.67l5.74-.64c3.82-.42,7.67-.9,11.49-1.22l11.52-1.11c3.85-.34,7.69-.58,11.52-.9l2.33-.17,3.44-.27c1.92-.14,3.82-.21,5.74-.32l11.47-.61c3.73-.12,7.37-.17,11-.27l5.49-.13c1.82,0,3.67,0,5.5,0l10.94.12c3.65.12,7.28.32,10.89.48-1.19-.91-2.67-1.81-3.89-2.73,10.16.77,16.27,2.56,26.83,3.69.61.06,1.23.13,1.87.18l-.67-.18c-.58-.16-1.15-.32-1.72-.46l0,0-2.34-.58-4.78-1.2.7.06c1.56.26,3.17.5,4.82.73l2.49.34.31,0,.25,0,2,.32,5,.73c1.85.24,3.73.49,5.63.71l2.76.32,2.82.38c1.89.25,3.8.5,5.73.73l5.83.68c1,.12,2,.21,3,.34s2,.25,3,.39c4.27,1,8.67,2,13.15,3.05s9.11,2.22,13.81,3.3c9.41,2.31,19.2,4.64,29.33,7.24,20.25,5.12,41.82,10.89,64.2,17.19l3.29.93c.5.13,1,.27,1.49.42l-1.18-.54c-4.45-2.13-6.5-3.88-5.21-4.85,1.49-1.07,6.94-1,14.61.13l1.6.26c3.44.56,7.25,1.3,11.32,2.21,4.7,1,9.74,2.4,14.85,3.88,1.15.17,2.31.36,3.48.55v-.74q-12.37-4.17-24.58-8.1c-10.37-3.35-20.7-6.57-31.09-9.63a707.57,707.57,0,0,0-78.1-18.76l-.43-.09c-3-.65-6-1.3-9-2l-6.64-2.15-6.67-2,2,.3,4.5.8c1.5.27,3,.59,4.52.89l9,1.82-3.22-1.13q9.39,1.59,18.73,3.44,25.73,5,51.26,11.63c15.91,4.64,32.43,9.65,49.4,14.92q9.4,2.91,19,5.93l1.32.42V672.07c-6.78-2.09-13.53-4.13-20.1-6.11s-13-3.87-19.46-5.71c-19.76-5.63-39.4-10.66-59.11-15,3.12.48,6.24,1,9.38,1.54s9,1.86,6.1.1c17.54,4.06,35.24,8.55,53.23,13.39q10.82,2.89,21.8,6l8.16,2.26V634H1920V497.06ZM1186.32,742.54l-10.49,2.09c-7,1.35-14.09,2.59-21.16,3.89-22.25,3.08-44.81,5.49-67.62,7.08s-45.77,2.27-68.56,2.15c30.16-.54,60.49-2.54,90.31-5.55l5.6-.54L1120,751l11.12-1.28c3.71-.39,7.36-.93,11.05-1.38l11-1.42,21.9-3.15,10.87-1.67c3.63-.56,7.27-1.11,10.85-1.72C1193.33,741.16,1189.82,741.85,1186.32,742.54ZM1866.9,648l-1.39-.76c-1.37-.75-4.12-2.17-9.6-5l5.25,2.25c3.27,1.4,7.6,3.4,11.89,5.34l2.33,1.05C1872.77,649.94,1870,649,1866.9,648Z" transform="translate(0.19 -208.74)"/></g><g id="Black_Top" data-name="Black Top"><path class="cls-2" d="M9.11,282A45.32,45.32,0,0,1,0,279.8v-3.23l4.9,2.06C9.85,280.6,11.59,282.07,9.11,282Z" transform="translate(0.19 -208.74)"/><path class="cls-2" d="M1594.08,303.26c-.25.41-3.09.33-6.4-.18-24.66-3.64-49.28-7.92-73.84-12.56l-9.21-1.75-4.6-.88-4.6-.93L1477,283.25l-37.78-7.88c-50.55-10.59-101.89-21.29-154.39-30.45-3.3-.58-5.71-1.33-5.44-1.74.57-.33,3.58-.2,7.12.39,52.52,9.19,103.73,19.89,154.15,30.46l37.65,7.86,18.34,3.71c3,.63,6.11,1.22,9.17,1.8l9.19,1.75c24.49,4.62,49.06,8.91,73.71,12.55C1591.82,302.14,1594.31,302.9,1594.08,303.26Z" transform="translate(0.19 -208.74)"/><path class="cls-2" d="M1472.63,297.34l24,4.59,24,4.26q47.64,8.15,95,13.61l.52.06q16.08,1.83,32.13,3.33c3,.29,6.09.56,9.13.83q33.76,2.94,67.3,4.3c2.59.11,5.17.21,7.76.29q36.25,1.26,72.15.49A1121.32,1121.32,0,0,0,1920,320.75V310.27c-32.45,4.26-65.77,7.17-100.3,8.67l-15.73.62-15.57.32c-2.58.05-5.15.12-7.72.15l-7.7,0-10.4,0h-4.89l-5.32-.08-9.88-.15-7.58-.12-7.56-.25-15.09-.49-15.09-.73q-5.7-.28-11.42-.62-4.66-.25-9.33-.57c-12.62-.81-25.3-1.8-38.11-3-21.12-1.9-42.61-4.27-64.8-7.07-25.18-3.27-49.89-7.07-74.29-11.33-12.22-2.21-24.17-4.37-36.62-6.79l-37-7.19c-24.71-4.82-49.51-9.67-74.68-14.33q-18.84-3.52-38-6.85c-12.8-2.19-25.68-4.38-38.75-6.39q-7.63-1.47-15.38-2.74t-15.61-2.28c-5.3-.71-10.63-1.33-15.94-2s-10.63-1.22-15.93-1.81c-41.56-5.14-83.42-8.93-125.66-10.37q-6.87-.23-13.76-.37-16.59-.37-33.25-.19c-1.84,0-3.67,0-5.5.07q-5.52.08-11,.23c-5.31.09-10.63.38-15.94.57s-10.63.56-16,.85-10.61.75-15.91,1.16l-8,.63c-2.65.2-5.27.51-7.91.76,6.26-.88,12.6-1.51,18.91-2.21,3.16-.33,6.31-.72,9.48-1l9.51-.84,4.75-.43,4.75-.34,9.5-.67c2.24-.17,4.48-.28,6.72-.4l2.78-.15,3.92-.21,5.57-.29q11.51-.49,23-.75,26.37-.58,52.48.07c25,.57,49.7,2,74.16,3.87s48.65,4.28,72.53,7.05c6.85.9,11.53.77,11-.14-1-1-7.06-2.51-13.94-3.38q-25-3.25-50.34-5.87T1152,228.66c-17.16-1.14-34.41-2-51.79-2.44s-34.84-.47-52.37-.09q-7.18.17-14.38.45-15.08.57-30.19,1.63c-2.72.19-5.45.39-8.17.6l-1,.08-5.61.46c-2.2.18-4.4.35-6.59.6l-13.17,1.34c-4.4.42-8.75,1-13.1,1.53s-8.72,1.08-13.06,1.66C852.89,246.47,760.71,260,674,286.11c-32.8,9.88-65.19,21.1-98.21,30.26-18.33,5.08-36.84,9.5-55.51,13.08A731,731,0,0,1,404.74,342.1c-31.48.95-63.27,1.21-94.39-4.32C223.27,322.3,141.43,288.2,60.66,253.32L41.43,245l19,9.32C41,245.46,20.1,239.9,0,232.58v39.21c17.92,6.75,35.26,13.55,51.76,20.29,1.6.67-1.75,1,1.09,2.48,1.43.73,2.91,1.46,4.46,2.22-5-2-10.26-4-16-6.09l-37.39-9.1-.09,0L2,281.12l-2-.5V557.06H1920V333.86c-4.2.5-8.41.9-12.61,1.36l-10.5,1.11-3.52.3-14.06,1.18c-29.78.65-59.28.12-89.33-1.23-23-1.05-46.29-2.57-70.35-4.53-2.14-.17-4.28-.34-6.44-.53q-8-.66-16-1.39l-8.76-.76c-2.92-.25-5.83-.57-8.73-.85l-17.37-1.69-12.39-1.32-8.3-.88q-6.87-.74-13.7-1.55c-6.53-.71-13-1.5-19.52-2.29L1593.9,319,1577,316.81l-8.41-1.09-8.38-1.17-16.73-2.33-16.66-2.48c-5.55-.79-11.08-1.67-16.61-2.54s-11-1.71-16.57-2.61c-21.88-3.58-44.39-7.49-66.79-11.3-31.89-6.94-63.92-13.7-96.11-19.77,4.75-.06,7.71-.62,8-1.76.07-.28-.2-.62-.5-1,28.36,5.31,56.62,10.93,85.14,16.7ZM24.74,315.14c.45.29.94.61,1.45,1ZM27.49,317l-1.23-.83,1.31.86Zm202.29,38.17c-3.06-.53-9-2-6.09-.11q-20.35-5-41.06-10.77-7.24-2-14.54-4.1-9.69-2.78-19.51-5.69c-4.76-1.38-9.51-2.82-14.22-4.12l-7-1.91q-3.5-1-6.95-1.86c-3.67-2.07-7.44-4.14-11.47-6.31l-3.14-1.67c-4.55-2.4-9.45-4.84-14.93-7.44L88.32,310l3.19,1.22c7.83,3,16,5.93,24.43,8.84,14.82,5.14,30.11,10.11,44.6,14.72q8.29,2.65,16.56,5.18,7,2.15,13.93,4.16c16.07,4.67,32.08,8.92,48.14,12.7C236.06,356.28,232.94,355.75,229.78,355.14Zm65.3-8.13-4.51-.85c-1.51-.3-3-.64-4.52-1l-9-1.93,3.22,1.19q-11.92-2.16-23.81-4.72-7.05-1.5-14.09-3.14-16.11-3.75-32.15-8.13-17.67-5.48-36.27-11.54-7.24-2.35-14.61-4.79-8.72-2.86-17.57-5.82L131,302.73l-26.51-8.91q8,1.83,15.57,3.44c4.2.87,8.28,1.66,12.27,2.43l3.73.71,7,2.51c8.77,3.12,17.46,6.15,26.13,9.08q6.54,2.22,13.07,4.36,6.93,2.28,13.88,4.46c18.09,5.65,36.35,10.81,55.17,15.12q4.5,1.05,9,2c4.62,1,9.28,1.92,14,2.79,3.17.71,6.29,1.44,9.41,2.18l6.64,2.28,6.68,2.12Z" transform="translate(0.19 -208.74)"/></g><g id="Black_Bottom" data-name="Black Bottom"><path class="cls-2" d="M1920,497.06V676.18l-6.66,3.65c-3.75,2.17-8.34,4.5-13.66,7l-4.28,1.93c-1.64.73-3.33,1.45-5.08,2.2-3.46,1.46-7.14,3-11,4.46-.1,0-.21.07-.31.12-6.52,2.54-13.57,5.11-21.07,7.67l-12.82,4.32-12.93,4.27c-5.5,1.64-11.09,3.19-16.69,4.78,14.84-2.34,26.47-3.61,34.17-3.41s11.24,1.72,9.77,4.88a14.93,14.93,0,0,1-4.42,4.54,73.71,73.71,0,0,1-9.13,5.54,256.77,256.77,0,0,1-30.43,13.2c-25.14,9.32-59.45,19.25-97.52,26.08-50.51,9.8-103.59,16.35-158,17.39-6.81.09-13.59.28-20.45.12l-10.25-.13-5.12-.08c-1.71,0-3.43-.13-5.14-.2l-10.28-.44-5.14-.23c-1.71-.07-3.45-.14-5.06-.27l-19.72-1.39c-26.19-2.19-52-5.41-77.16-9.44-50.45-8.06-98.57-19.28-144.73-31.48l-5.17-1.37c-44.33-11.81-86.92-24.45-128.8-36.19-16.1-4.49-31.87-8.85-47.3-12.83-7.76-2.06-15.37-3.9-23-5.83l-11.35-2.71-5.66-1.36-5.61-1.26-11.21-2.51-11.13-2.33c-1.85-.38-3.71-.79-5.55-1.15l-5.53-1.06c-3.68-.7-7.36-1.43-11-2.11l-11-1.9c-1.83-.31-3.66-.66-5.48-.94l-5.46-.83c-3.63-.56-7.27-1.15-10.9-1.67l-10.86-1.44c-1.81-.23-3.62-.5-5.42-.71l-5.42-.59-10.82-1.18-10.86-1c-3.63-.31-7.28-.52-10.93-.8Q876.5,658,854,657.81c-30-.27-60.72,1.09-92.38,3.9-60.85,3.62-122.22,11.27-184.49,20q-24.34,3.43-48.9,7l-7.56,1.11-23.66,3.45-14.24,2.07-6.31.92h0l-5.1.73h0l-12.93,1.8c-8.19,1.18-16.44,2.22-24.67,3.28-4.13.52-8.23,1.08-12.37,1.57L409,705.15l-12.41,1.44-12.47,1.31c-27.93,2.92-54.42,4.89-80,6l-9.53.43-9.47.28c-6.29.16-12.5.37-18.69.45L248,715.2l-4.57,0-4.57,0-9.1-.07c-12.09,0-24.12-.44-36.07-.76-6-.19-12-.49-17.94-.73-3-.12-6-.24-9-.38l-9-.51c-6-.35-12-.66-18-1l-18.12-1.29c-6-.39-12.15-1-18.27-1.48s-12.29-1-18.5-1.64c-2.89-.25-3.14-.73-1.6-1a49.55,49.55,0,0,1,8.94,0c78.79,4.31,158.27,2.21,237.88-5.38l14.95-1.44L360,697.85c10-1,19.92-2.33,29.91-3.54,5-.6,10-1.29,15-2l15-2.05,15-2.21,6.38-1c2.87-.43,5.75-.87,8.61-1.34l15-2.42,3.75-.61,3.73-.61,2.25-.38,5.09-.86,29.38-5q29.21-5.05,58.83-10.16l52.95-9.09c1.89-.44,4-.88,6.25-1.28q23.52-4.46,47.1-8.36l-16.5,2.32a127.29,127.29,0,0,1-14.48,1.55c-3.91.17-6.6,0-7.16-.67-.17-.59,1.24-1.37,3.68-2.23-40.89,4.94-81.32,10.32-122,15.78-12,2.08-23.2,3.65-32.93,4.7l-17.4,3.62-17.77,3.59q-5.1,1.05-10.23,2c-2,.38-4,.77-6.07,1.14l-1.53.3-8.94,1.69c-3,.57-6,1.12-9,1.65l-8.8,1.56c-3.05.56-6.11,1.1-9.17,1.64-6,1.07-12,2-18,3l-9,1.51-9.07,1.42-18.16,2.83-12,1.9c-4,.57-8,1.06-11.79,1.48s-7.56.64-11,.84a113.73,113.73,0,0,1-16.81,0,13.59,13.59,0,0,1-5-1.08c-7,.49-14,1-21,1.48l-21.09,1.25c-7,.36-14.1.65-21.14,1l-5.28.24-5.3.16L200.6,702c-28.23.8-56.47.88-84.51.12Q92.92,701.45,70,700q-17.61-1.16-35-2.82l-2.08-.2-10.23-1-5.09-.52-5.08-.62L0,693.2V689q3.95.45,7.91.84,17,1.78,34,3.13l9.14.67q20.7,1.46,41.39,2.32,15.2.66,30.41,1c27,.64,54.05.37,81.19-.6s54.38-2.65,81.72-5.27l-20.25,1.06-20.4.86c-1.71.07-3.41.15-5.12.21s-3.43.12-5.14.16c-3.43.12-6.87.22-10.31.33s-6.88.25-10.34.32l-10.4.2c-7,.13-13.92.31-21,.31l-10.55.07c-3.52,0-7.05,0-10.6,0l-21.39-.19-21.63-.54q-5.39-.17-10.73-.37c-14.76-.59-29.27-1.44-43.64-2.53-14.73-1.1-29.31-2.46-43.84-4.05l-3.69-.4-5.43-.62Q5.65,685.25,0,684.54v-2l8.48,1,6.42.74,1.86.21,1.34.15,3.21.32,5.44.56q22.92,2.29,45.77,3.9,23.15,1.59,46.34,2.46l4.7.17a1315.09,1315.09,0,0,0,211-9.59c4.2-.5,8.37-1.09,12.51-1.7l4.7-.68-9.09.54c-42.75,2.51-84.93,3.42-126.8,3q-20.9,1.13-41.83,1.68-39,1-77.9,0-27.9-.78-55.68-2.73-6.16-.44-12.32-.93c-5.25-.42-10.48-.89-15.71-1.38-4.16-.38-8.31-.8-12.46-1.22v-9.28l6.75.49q17,1.22,34.09,2l-15.72-2c-4.16-.32-8.32-.79-12.47-1.24l-3.19-.34-1.64-.14h0l-4.16-.35-3.23-.28-.39,0V497.06Z" transform="translate(0.19 -208.74)"/></g></svg>