<svg id="Layer_1" data-name="Layer 1" xmlns="http://www.w3.org/2000/svg" viewBox="0 0 1918.92 268.2"><defs><style>.cls-1{fill:#212221;}</style></defs><title>Desktop Footer Wave Rough RGB</title><path class="cls-1" d="M1681.26,891.11l38.9-5.33c12.95-1.76,25.93-3.69,38.89-5.53,51.83-7.42,103.72-15.27,156-22.88,1.61-.22,3.17-.45,4.66-.7v-6.41c-3.52.24-7.36.62-11.28,1.15-100.63,12-192.36,26.53-293.11,39.73l-52.44,6.46-50.84,5.55-6.32.68-6.33.59-12.68,1.17-14.19,1.29c-136.49,5.78-273.22,5.69-408.9-3.42l-2.74-.37-6-.8-12-1.62c-8-1.09-15.91-2.13-23.86-3.28l-23.79-3.52c-7.92-1.18-15.82-2.34-23.73-3.61-15.82-2.5-31.57-4.94-47.37-7.55l14.23,1.82,14.2,1.75L981,889.74l28.3,3.21,14.14,1.58,14.1,1.43c9.4.94,18.81,1.93,28.16,2.79l27.73,2.08,13.83,1,6.91.5c2.3.15,4.6.36,6.91.42l27.67,1c5.29.27,8.83-.18,8.33-.93-.9-.78-5.6-1.62-10.89-1.88l-19.2-1.05c-3.2-.2-6.41-.3-9.6-.58l-9.56-.84-38.27-3.38c-25.75-2.64-51.75-5.69-77.69-8.93-51.93-6.49-104-13.82-156.38-21-13.78-5.23-35.72-10.91-61-16.29-12.67-2.63-26.18-5.19-39.92-7.56s-27.81-4.41-41.45-6.25c-10.09-1.33-19.89-2.32-29.51-3.2-4.81-.44-9.58-.83-14.34-1.19s-9.55-.59-14.32-.86l13.14,1.83,13.08,2c-13-1.53-25.22-2.31-36.88-2.94-5.84-.31-11.55-.56-17.19-.77s-11.25-.26-16.82-.37c-1.92-.27-3.84-.54-5.9-.78q-9.58-1.57-19.56-3c-6.65-.91-13.45-1.66-20.32-2.44s-13.84-1.49-20.87-2.19c-3.5-.38-7-.65-10.6-.93l-10.7-.82-21.53-1.58c-3.59-.29-7.2-.48-10.81-.66l-10.82-.57-21.54-1.17-5.35-.31-5.34-.2-10.62-.43c1.18.83,2.62,1.66,3.8,2.49-10.41-.79-16.48-2.36-27.91-3l9.4,1.93-.69,0c-6.1-.75-12.79-1.4-20.06-1.6s-14.85-.41-22.6-.3c-34-3-75.41-2.87-118.39.4l-4.44.36h0l-.73-.05a153.08,153.08,0,0,0-24,1c-4.29.2-9.28.59-12.41.53-28-.5-62,1.61-99,5.85l10.91-.72,11-.62c-10.74,1-21.25,2.25-33,4.21,1.31.25,3,.44,4.31.7a462.88,462.88,0,0,0-59.89,9.2c-9.92,2.18-19.4,4.59-27.92,7L.8,843v237H1919.72V870.85c-96.39,10.64-193.63,20-291.26,27.06l13.84-1.76C1655.3,894.47,1668.28,892.9,1681.26,891.11ZM350.57,823.82l-17.24-.41,3.2.5-4.16,0-4.15.11-8.29.21c-5.52.15-11.05.25-16.56.44l-16.49.7-8.23.34c-2.75.12-5.47.31-8.21.46-31.52.67-65.24,3.12-99.06,7.24,9.62-2.13,18.79-4.22,27.32-6.24h0c7-.51,13.93-1,20.84-1.43,6-.39,12.1-.64,18.13-1s12.07-.65,18.14-.83l18.24-.7c6.1-.25,12.26-.33,18.43-.54,12.35-.47,24.94-.58,37.78-1,3,0,6.06.2,9.06.32l13.08,1.76Z" transform="translate(-0.8 -811.8)"/><path class="cls-1" d="M1424.48,905.37c-.11.39-2.45.78-5.24.9l-15.63.66c-5.21.22-10.42.46-15.62.54l-31.22.68-15.6.34c-5.2.11-10.38,0-15.58,0l-31.13,0c-10.39.1-20.73-.27-31.07-.54l-31-.83-3.88-.11-3.86-.2-7.73-.43-15.44-.84-15.43-.86-7.71-.43c-2.57-.14-5.14-.26-7.69-.51s-4.48-.68-4.32-1.06c.39-.33,2.68-.45,5.44-.24,10.25.69,20.53,1.18,30.79,1.77l15.41.84c5.14.27,10.27.63,15.43.71l30.92.84,15.48.41,3.87.09h11.63l31,0h7.76c2.59,0,5.18,0,7.77-.07l15.57-.33,31.16-.67c5.2-.07,10.41-.34,15.61-.54l15.63-.65C1422.42,904.8,1424.61,905,1424.48,905.37Z" transform="translate(-0.8 -811.8)"/></svg>