<svg xmlns="http://www.w3.org/2000/svg" viewBox="0 0 1920.19 210.93"><defs><style>.cls-1{fill:#2ea294;}.cls-2{fill:#222;}</style></defs><title>Bottom Wave Explainer</title><g id="Green_Bottom" data-name="Green Bottom"><path class="cls-1" d="M1920,118.14V131.4l-1.68-.8c-3.11-1.48-8.3-3.23-12.7-4.91-5.13-1.62-9.82-3.16-14-4.68s-7.72-3-10.56-4.33l-.61-.29-1.18-.57c-4.45-2.26-6.51-4.12-5.21-5.15,1.49-1.14,6.94-1.07,14.62.14l1.6.27c3.44.6,7.26,1.39,11.33,2.35,4.71,1.11,9.75,2.55,14.87,4.12C1917.67,117.73,1918.83,117.93,1920,118.14Z" transform="translate(0.19)"/><path class="cls-1" d="M775.55,174.41c-52.5-9.17-103.85-19.87-154.4-30.45l-37.77-7.88L565,132.36l-4.6-.92-4.6-.88-9.21-1.76c-24.56-4.63-49.18-8.91-73.84-12.56-3.31-.5-6.15-.59-6.4-.17s2.26,1.12,5.32,1.55c24.65,3.64,49.21,7.94,73.71,12.55l9.19,1.75c3.06.58,6.12,1.17,9.17,1.8l18.33,3.71,37.66,7.86c50.41,10.57,101.63,21.27,154.15,30.47,3.54.58,6.55.72,7.12.39C781.25,175.73,778.84,175,775.55,174.41Z" transform="translate(0.19)"/><path class="cls-1" d="M25.49,82.27c2.27-.8,2.06-1.22-.48-1A33.9,33.9,0,0,0,16.86,83c-1.89.72-1.65,1.23.5,1a35.18,35.18,0,0,0,4.29-.74C23.12,83,24.54,82.61,25.49,82.27Z" transform="translate(0.19)"/><path class="cls-1" d="M1305.56,0l-17.18,5.21q-8.78,2.66-17.51,5.27l-8,2.38c-16.1,4.77-31.87,9.39-47.3,13.62-7.76,2.19-15.37,4.15-23,6.2l-11.35,2.88L1175.59,37,1170,38.33,1158.76,41l-11.12,2.47c-1.85.41-3.71.84-5.55,1.23l-5.53,1.12c-3.68.75-7.36,1.53-11,2.24l-11,2c-1.83.32-3.66.7-5.48,1l-5.46.89c-3.63.58-7.27,1.21-10.9,1.76l-10.86,1.53c-1.81.25-3.62.54-5.43.75l-5.41.63-10.82,1.26-10.86,1c-3.63.34-7.28.56-10.93.85Q1016.5,61.32,994,61.56q-13.24.12-26.71-.2-32.21-.75-65.67-3.94c-60.85-3.85-122.22-12-184.49-21.26-31.1-4.66-62.42-9.6-94.17-14.49l-.19,0C615,20.42,606.62,19.19,598.44,18S582,15.62,573.77,14.5c-4.13-.55-8.23-1.15-12.37-1.66L549,11.29,536.58,9.77l-12.47-1.4q-5.49-.61-10.91-1.17Q505,6.35,497,5.63l-4.73-.42q-9-.76-17.72-1.4Q459.11,2.7,444.12,2L441,1.89h0l-6.36-.31h-.14l-9.33-.3c-6.29-.18-12.5-.4-18.69-.48L388,.62l-4.57,0-4.57,0-9.1.08c-12.09.05-24.12.47-36.07.8-6,.22-12,.52-17.95.78l-9,.4-9,.55c-6,.38-12,.7-18,1.11l-11.41.87-6.71.51c-6.05.4-12.15,1-18.28,1.56S231.11,8.32,224.9,9c-2.89.28-3.14.79-1.6,1.11a46.18,46.18,0,0,0,8.94-.07A1452,1452,0,0,1,392,9.79h0c2.23.11,4.45.23,6.68.36q15.73.88,31.49,2.09,11.94.9,23.86,2,7.41.67,14.82,1.42l1.29.13,14.95,1.53L500,19c7.1.78,14.19,1.7,21.29,2.63l8.62,1.13c5,.63,10,1.38,15,2.09l15,2.17,15,2.36c5,.8,10,1.55,15,2.43l15,2.57,7.48,1.3L619.65,37,649,42.35l58.83,10.8,52.95,9.64c1.89.47,4,.93,6.25,1.36q23.52,4.74,47.1,8.88l-16.5-2.46a123.28,123.28,0,0,0-14.48-1.65c-3.91-.19-6.6,0-7.16.71-.17.62,1.23,1.46,3.68,2.36-40.89-5.23-81.32-10.94-122-16.75-12-2.2-23.2-3.88-32.93-5l-17.4-3.86-17.77-3.8c-5.91-1.29-11.87-2.47-17.83-3.68l-8.94-1.79c-3-.61-6-1.2-9-1.76l-18-3.4c-6-1.13-12-2.15-18-3.23l-9-1.6-9.07-1.51L483.67,23l-2.07-.34-12-2c-4-.6-8-1.13-11.79-1.57-2-.19-3.88-.37-5.76-.52s-3.56-.26-5.26-.36c-4.23-.24-8.09-.36-11.35-.3-2.07,0-3.9.14-5.45.32a13.46,13.46,0,0,0-5,1.14c-7-.52-14-1.11-21-1.57l-4.33-.27L382.9,16.43c-5.08-.27-10.18-.51-15.27-.75h0l-5.86-.29-1.35-.07h0l-3.9-.18-5.3-.18-10.58-.35c-28.23-.84-56.47-.94-84.51-.13s-55.86,2.71-83.2,5.53l-10.23,1.1-5.09.56-5.08.65L132.29,25l-19.94,3.15c-3.31.5-6.6,1.11-9.87,1.72l-9.8,1.82c-5.29,1-8,2-7,2.57a41.31,41.31,0,0,0-6.92,1l-2.18.55c-5.47,1.34-11.25,2.62-17.23,4-5.18,1.22-10.53,2.44-16,3.66L38.3,44.54c-3.13.81-4.74,1.61-3.17,1.65a33.36,33.36,0,0,0,8.07-1l5.72-1.3,5.28-1.19c3.63-.84,7.23-1.7,10.81-2.43,6.21-1.32,12.26-2.69,18.1-4l2.63-.61a6.24,6.24,0,0,0,2.56-.93,77.17,77.17,0,0,0,12.61-1.18q40.54-5.85,81-9.27T262.81,20q33.48-.82,67,.18h0c2.77.07,5.55.16,8.33.25h0l5.81.21q13.38.52,26.78,1.28,15.39.88,30.82,2.12c3.68.3,7.35.61,11,.94q6.54.6,13.09,1.26l-15.6-.86-4.65-.26-8-.36-12.38-.56L380,24l-5.14-.17-10.31-.35-3.66-.12c-2.22-.08-4.45-.16-6.68-.21l-10.4-.22c-6.95-.14-13.92-.33-20.95-.32l-10.55-.07c-3.52,0-7.06-.07-10.6,0l-21.39.21-21.63.56c-35,1.15-68.55,3.86-101.9,7.82-15.58,1.85-31.12,4-46.76,6.38-14.81,2.27-29.71,4.8-44.81,7.6-3.1.57-6.2,1.15-9.32,1.75-3.59.64-5.89,1.47-5.41,1.81s3.58.16,7.08-.57c4.38-.88,8.79-1.59,13.16-2.34L72,45.47l11.78-2c2.17-.4,4.35-.71,6.53-1l6.51-1,13-2L121,37.8l14.65-2,12.86-1.55,6.42-.79,3.2-.39,3.21-.34c34.17-3.77,68.1-6.29,102.25-7.51,28.11-1,56.39-1.12,85.05-.24q18.48.57,37.2,1.72,5.52.33,11.06.73,38.19,2.68,77.71,8,4.56.59,9.09,1.28l8.12,1.25c-2.71-.18-5.42-.36-8.12-.52-43.08-2.7-85.58-3.68-127.77-3.26l-4.27-.23c-3.44-.19-6.88-.37-10.32-.52q-27.22-1.3-54.49-1.54a1242.6,1242.6,0,0,0-134.36,5.86l-5,.51h0q-30.54,3.18-60.74,8Q61.57,50.32,36.81,55.6,18.27,59.54,0,64.2v5l12.4-2.59c4.58-1,9.21-1.82,13.83-2.67L40.1,61.36c4.64-.78,9.3-1.5,13.94-2.26L61,58l3.48-.56L68,56.94c1.71-.25,3.41-.49,5.12-.72q42.86-6,86.25-8.79,10.73-.69,21.46-1.2l-6.88,1-8.84,1.21c-5.23.43-10.44,1.11-15.66,1.68l-9.07.81-4.53.42-4.52.5-18.08,2c-5.13.65-10.26,1.36-15.38,2l-2.63.36c-6,.75-12,1.75-18,2.69-12,1.77-23.85,4.08-35.76,6.26L23.78,68.86l-4.44.93c-1.48.32-2.94.68-4.41,1l-1.45.34L8.18,72.4l-2.06.48q-1.33.28-2.64.6c-1.18.27-2.34.55-3.48.83v8.63c1.73-.33,3.52-.69,5.34-1.08-1.78.51-3.56,1-5.34,1.5v1.71l1.09-.26,2.32-.66,12-3.41c2.38-.67,4.74-1.39,7.13-2l1.3-.34,5.86-1.53,2.85-.54c1.89-.37,3.78-.72,5.67-1.08,3.28-.6,6.56-1.2,9.85-1.77,83.49-14.7,169.25-19.86,254.78-17.37q-37.09-.18-74.3,1.4L210,58.42c-6.19.37-12.38.84-18.57,1.24s-12.37,1-18.56,1.48l-9.27.8c-1.55.12-3.09.27-4.63.44l-4.63.49c-24.71,2.42-49.32,5.76-73.78,9.81-3.44.57-6.89,1.13-10.34,1.72q-4,.67-8,1.45l-4.45.84-6.1,1.14q-3.85.72-7.7,1.48l-1.53.32-16.64,3.5c-1.56.31-3.11.66-4.66,1l-4.38,1L7.82,87.25l-.11,0,.07,0c1.79-.69,1.84-1.21-.63-1-.92.1-2.21.32-3.53.6S1,87.48,0,87.81v2.94c2.11-.53,4.22-1,6.35-1.51l.4-.09,5.9-1.39,9.7-2.27,6.35-1.34,9.76-2.06c2.68-.56,5.36-1.15,8-1.69L48.69,80l5.91-1.1L58,78.26l4.73-.89L64,77.12l2.71-.52,2-.38,2-.34,7.7-1.28,8.57-1.42,4.06-.68c1.36-.22,2.72-.4,4.08-.6l8.17-1.18,8.16-1.19c1.36-.19,2.71-.42,4.08-.58l4.1-.51,16.37-2,2-.26,2.05-.21,4.11-.43,8.21-.86,8.21-.87c2.74-.27,5.49-.48,8.23-.72l16.45-1.42,16.48-1.12c2.74-.17,5.48-.4,8.23-.53l8.25-.41,8.24-.42c2.75-.13,5.5-.3,8.25-.37,11-.35,22-.8,33-.9l8.25-.14,4.12-.07h20.6c22,.19,43.91.61,65.77,1.68,9.52.6,19,1.46,28.59,2.27a0,0,0,0,0,0,0,27.83,27.83,0,0,0,6.51,3.14,111.24,111.24,0,0,0,10.66,3.28c-61.46-5.62-122.9-7.79-184.15-5.42l-19.13.47L190,63.93l-4.77.21-4.77.31-9.54.6-9.54.62-9.51.8c-12.7,1-25.34,2.37-38,3.74L94.92,72.62c-3.16.37-6.29.89-9.43,1.35l-4.61.69-4.81.72a61.41,61.41,0,0,0-9.15,1.93,14.07,14.07,0,0,0-3.29,1.34c-.38.25-.58.48-.57.68,0,.88,4.73.68,11-.07l2.64-.34,5.46-.81,3.73-.55c3.07-.44,6.12-1,9.21-1.32l7.37-.93,11.1-1.4c-2,.51-3.86,1-5.54,1.54a44.93,44.93,0,0,0-8.75,3.4,6.65,6.65,0,0,0-1.9,1.48,1.69,1.69,0,0,0-.35.73,1,1,0,0,0,.15.69c.77,1.29,4.58,2.08,10.39,2.4,1,.06,2.06.1,3.18.13-28.15,4.4-55.78,10.08-82.63,17q-5.73,1.47-11.41,3-2.73.72-5.44,1.49Q5.64,107.32,0,109l-.19.06a.58.58,0,0,0,.19,0v3q3.95-1,7.91-2.06,6.25-1.59,12.53-3.11c2.1-.51,4.21-1,6.31-1.49q6.86-1.62,13.74-3.12,14.63-3.24,29.37-6l3.42-.67,3.44-.59,6.88-1.19,6.89-1.19c2.3-.38,4.58-.83,6.89-1.15l13.85-2.08,6.93-1,7-.89L139,85.62c4.52-.54,9.08-1,13.61-1.47l.38,0,7-.74,3.5-.38L167,82.7l14.07-1.19c29.78-.65,59.27-.12,89.33,1.24q13.1.6,26.36,1.4c21.62,1.29,43.67,3,66.48,5L372,90c2.91.26,5.82.57,8.73.85l17.36,1.69c11.54,1.27,23,2.38,34.39,3.76,2.29.25,4.58.5,6.86.77,9.08,1,18.13,2.21,27.14,3.28l8,1.06,8.83,1.15,8.41,1.09,8.38,1.18,16.73,2.33,11.36,1.68,5.3.79c5.55.79,11.08,1.67,16.61,2.55s11.05,1.7,16.56,2.61c21.89,3.58,44.39,7.48,66.8,11.29,31.89,6.95,63.92,13.71,96.11,19.77-4.75.06-7.72.62-8,1.76-.07.29.2.63.5,1-28.36-5.31-56.62-10.94-85.14-16.7L587.79,122l-24-4.58-24-4.27q-9.55-1.63-19.11-3.16-26.12-4.18-52.13-7.56-12.13-1.56-24.25-3-5.5-.63-11-1.22a1386.36,1386.36,0,0,0-177.45-8A1086.53,1086.53,0,0,0,96.17,105.13q-11.19,1.92-22.3,4.09l-1.35.27q-4.12.81-8.24,1.65Q57.64,112.51,51,114,43,115.75,35,117.67q-17.62,4.23-35,9.14v10.32q34.62-9.47,70-16.47l1.83-.37q10.26-2,20.6-3.84,7.73-1.38,15.51-2.63,5.46-.88,10.94-1.72,27.2-4.12,55.21-6.95,32.63-3.29,66.64-4.77l15.73-.62L272,99.44c2.59,0,5.16-.12,7.73-.15l7.69,0,15.3,0,15.2.23,7.57.12,7.57.24,9.63.31,4.39.15,1.07,0,15.08.73c13.89.68,27.81,1.59,41.84,2.7,11.94.94,24,2,36.14,3.29,15,1.52,30.15,3.27,45.68,5.23,3.39.44,6.78.89,10.15,1.35q32.54,4.43,64.14,10c12.23,2.22,24.18,4.38,36.63,6.8l37,7.18c24.71,4.82,49.51,9.67,74.67,14.34q18.86,3.52,38,6.85c12.8,2.19,25.68,4.37,38.76,6.39q7.62,1.47,15.38,2.73c5.15.87,10.36,1.62,15.61,2.29s10.62,1.33,15.93,2,10.64,1.22,15.94,1.81c41.55,5.15,83.42,8.94,125.65,10.37,21.12.72,42.32.85,63.56.26,5.3-.08,10.62-.37,15.94-.57s10.63-.55,15.94-.85,10.62-.75,15.92-1.15l8-.63c2.66-.2,5.27-.52,7.91-.77-6.25.88-12.59,1.51-18.9,2.21-3.16.33-6.32.72-9.48,1l-9.51.85-4.75.42-4.75.34-9.51.68c-3.16.24-6.32.36-9.49.55l-9.49.49c-25.29,1.11-50.48,1.27-75.44.68s-49.7-2-74.16-3.86-48.66-4.29-72.54-7.06c-6.85-.89-11.52-.77-11,.14,1.05,1,7.07,2.51,14,3.39q25,3.26,50.34,5.86t51.09,4.36c17.15,1.13,34.4,2,51.78,2.43s34.85.48,52.38.09,35.13-1.31,52.74-2.68l6.61-.54c2.2-.18,4.4-.35,6.59-.59l13.17-1.35c4.4-.42,8.75-1,13.1-1.53s8.72-1.07,13.06-1.66l13-1.9,6.47-1,6.42-1.07,12.83-2.15,12.71-2.36,6.35-1.18c2.11-.41,4.19-.85,6.29-1.27l12.58-2.57c4.17-.88,8.3-1.82,12.46-2.72s8.31-1.82,12.4-2.81c4.75-.14,10.15-.45,16-1,5.07-.49,10.55-1.1,16.35-1.84l2.7-.35c6.73-1,13.94-2.05,21.39-3.34s15.22-2.73,23.1-4.35c3.95-.8,8-1.63,12-2.5l12.18-2.7q6.17-1.38,12.32-2.86l12.38-3c16.47-4.07,32.94-8.45,48.66-12.83,23.23-6.45,44.1-13.1,64.88-19.78-10,2.26-19.79,4.64-29.86,7,29.37-8.33,53.45-16.44,77.29-23.91,2.16-.39,4.31-.78,6.62-1.25,14.44-2.08,29.31-4.49,44.38-6.58,7.55-1.16,15.13-2.08,22.78-3.13,1.91-.28,3.82-.49,5.73-.71l5.74-.68c3.83-.45,7.68-1,11.51-1.3L1617,79.64c3.85-.36,7.69-.62,11.53-1l2.33-.19,3.44-.28c1.92-.15,3.83-.22,5.75-.34l11.48-.65c3.73-.13,7.38-.18,11.06-.29l5.49-.13c1.83,0,3.68,0,5.51,0l10.95.13c3.65.12,7.29.34,10.9.5-1.19-1-2.67-1.92-3.89-2.89,10.17.81,16.28,2.71,26.85,3.91l1.87.2-.67-.2-1.72-.48-.05,0-2.34-.62-4.79-1.27.7.06c1.57.27,3.18.53,4.83.77l2.49.36.31,0,.25,0,2,.34c1.66.26,3.34.52,5,.77s3.73.52,5.63.76l2.77.34,2.82.4q2.84.41,5.73.78l5.84.72c1,.13,2,.22,2.95.36l3,.41c4.28,1.1,8.68,2.16,13.17,3.24s9.12,2.36,13.82,3.51c9.42,2.45,19.22,4.93,29.36,7.69,20.27,5.43,41.86,11.56,64.26,18.25l3.29,1,1.49.44c13,3.9,26.16,8,39.51,12.14V117.35q-12.39-4.42-24.6-8.6c-10.38-3.56-20.72-7-31.12-10.23-25.37-7.92-51.07-14.88-78.18-19.92l-.43-.1c-3-.69-6-1.38-9-2.09l-6.64-2.28L1763.38,72l2,.31,4.51.85c1.5.29,3,.63,4.52,1l9,1.93-3.22-1.2q9.39,1.7,18.75,3.65,25.74,5.34,51.3,12.35c15.93,4.93,32.46,10.25,49.45,15.85q9.42,3.09,19,6.3l1.32.44V91.06c-6.79-2.22-13.54-4.39-20.12-6.49s-13-4.11-19.48-6.07c-19.78-6-39.44-11.32-59.16-16,3.12.51,6.24,1,9.39,1.64s9,2,6.1.11C1854.29,68.6,1872,73.36,1890,78.5q10.83,3.07,21.82,6.35l8.17,2.4V0ZM1874.8,67.39c-4.3-2.06-8.63-4.19-11.9-5.67l-5.26-2.39c5.49,3,8.24,4.53,9.61,5.33l1.39.8,8.49,3ZM1187,165.44l-10.88,1.78-21.92,3.34-11,1.51c-3.69.48-7.34,1.05-11.06,1.47L1121,174.89l-5.56.68-5.61.58c-29.84,3.19-60.2,5.32-90.39,5.89,22.81.13,45.78-.55,68.62-2.28s45.42-4.25,67.69-7.52c7.07-1.38,14.16-2.7,21.18-4.13l10.5-2.22c3.5-.73,7-1.47,10.47-2.27C1194.31,164.27,1190.67,164.85,1187,165.44Z" transform="translate(0.19)"/></g><g id="Black_Middle" data-name="Black Middle"><rect class="cls-2" x="0.19" width="1920" height="5.21"/></g><g id="Black_Bottom" data-name="Black Bottom"><path class="cls-2" d="M1920,0V95.42l-6.66,3.88c-3.75,2.3-8.34,4.78-13.66,7.4l-4.28,2c-1.64.77-3.33,1.54-5.08,2.33-3.46,1.56-7.14,3.14-11,4.74l-.31.13c-6.52,2.69-13.57,5.42-21.07,8.14l-12.82,4.59-12.93,4.53c-5.5,1.75-11.09,3.39-16.69,5.08,14.84-2.48,26.47-3.83,34.17-3.62s11.24,1.83,9.77,5.18a15.44,15.44,0,0,1-4.42,4.82,73.17,73.17,0,0,1-9.13,5.89,250.78,250.78,0,0,1-30.43,14c-25.14,9.9-59.45,20.44-97.52,27.7-50.51,10.4-103.59,17.36-158,18.46-6.81.1-13.59.3-20.45.13l-10.25-.14-5.12-.08c-1.71,0-3.43-.14-5.14-.21l-10.28-.47-5.14-.24c-1.71-.08-3.45-.15-5.06-.29L1478.76,208c-26.19-2.32-52-5.74-77.16-10-50.45-8.56-98.57-20.48-144.73-33.43L1251.7,163c-44.33-12.54-86.92-26-128.8-38.43-16.1-4.77-31.87-9.39-47.3-13.62-7.76-2.19-15.37-4.14-23-6.19l-11.35-2.88-5.66-1.44L1030,99.14l-11.21-2.67L1007.64,94c-1.85-.41-3.71-.84-5.55-1.22l-5.53-1.13c-3.68-.74-7.36-1.52-11-2.24l-11-2c-1.83-.33-3.66-.7-5.48-1l-5.46-.88c-3.63-.59-7.27-1.22-10.9-1.77l-10.86-1.53c-1.81-.24-3.62-.53-5.42-.75L931,80.83l-10.82-1.25-10.86-1c-3.63-.33-7.28-.56-10.93-.85Q876.5,76.16,854,75.91a896.45,896.45,0,0,0-92.38,4.14c-60.85,3.85-122.22,12-184.49,21.27q-24.34,3.65-48.9,7.47L520.71,110l-23.66,3.66-14.24,2.2-6.31,1h0l-5.1.77h0l-12.93,1.92c-8.19,1.25-16.44,2.35-24.67,3.48-4.13.55-8.23,1.14-12.37,1.66L409,126.18l-12.41,1.53-12.47,1.39c-27.93,3.11-54.42,5.2-80,6.35l-9.53.45-9.47.3c-6.29.17-12.5.39-18.69.48l-18.45.18-4.57,0-4.57,0-9.1-.08c-12.09,0-24.12-.47-36.07-.8-6-.21-12-.52-17.94-.78l-9-.4-9-.55c-6-.37-12-.7-18-1.11l-18.12-1.37c-6-.41-12.15-1-18.27-1.57s-12.29-1-18.5-1.74c-2.89-.27-3.14-.78-1.6-1.1a46.16,46.16,0,0,1,8.94.06c78.79,4.57,158.27,2.34,237.88-5.72l14.95-1.53L360,118.43c10-1.1,19.92-2.47,29.91-3.76,5-.63,10-1.37,15-2.09l15-2.17,15-2.35,6.38-1c2.87-.46,5.75-.92,8.61-1.42l15-2.57,3.75-.65,3.73-.65,2.25-.4,5.09-.92L509,95.12l58.83-10.79,52.95-9.65c1.89-.47,4-.93,6.25-1.36q23.52-4.72,47.1-8.88l-16.5,2.47a120.93,120.93,0,0,1-14.48,1.64c-3.91.19-6.6,0-7.16-.71-.17-.62,1.24-1.45,3.68-2.36-40.89,5.24-81.32,11-122,16.75-12,2.21-23.2,3.88-32.93,5l-17.4,3.85-17.77,3.81Q444.51,96,439.38,97l-6.07,1.22-1.53.31-8.94,1.8c-3,.6-6,1.19-9,1.75l-8.8,1.66c-3.05.59-6.11,1.16-9.17,1.74-6,1.13-12,2.15-18,3.23l-9,1.6-9.07,1.51-18.16,3-12,2c-4,.61-8,1.13-11.79,1.57s-7.56.68-11,.89a106,106,0,0,1-16.81,0,13.05,13.05,0,0,1-5-1.14c-7,.52-14,1.11-21,1.57l-21.09,1.33c-7,.38-14.1.69-21.14,1l-5.28.25-5.3.17-10.58.35c-28.23.85-56.47.94-84.51.13q-23.18-.73-46.11-2.33-17.61-1.23-35-3l-2.08-.21-10.23-1.1-5.09-.55-5.08-.66L0,113.49v-4.43c2.63.32,5.27.61,7.91.89q17,1.89,34,3.32c3,.25,6.1.48,9.14.71q20.7,1.55,41.39,2.47,15.2.69,30.41,1c27,.68,54.05.39,81.19-.64s54.38-2.81,81.72-5.6l-20.25,1.13-20.4.91-5.12.23-5.14.17-10.31.35c-3.44.11-6.88.26-10.34.34l-10.4.21c-7,.14-13.92.33-21,.33l-10.55.07c-3.52,0-7.05.06-10.6,0l-21.39-.2-21.63-.57q-5.39-.18-10.73-.4c-14.76-.62-29.27-1.52-43.64-2.68C49.55,110,35,108.53,20.44,106.84l-3.69-.43-5.43-.66Q5.65,105.06,0,104.3v-2.08l8.48,1,6.42.78,1.86.23,1.34.16,3.21.34,5.44.59q22.92,2.45,45.77,4.14,23.15,1.7,46.34,2.61c1.56.07,3.13.12,4.7.18a1238.76,1238.76,0,0,0,211-10.18c4.2-.53,8.37-1.16,12.51-1.8l4.7-.73c-3,.2-6.06.4-9.09.58-42.75,2.66-84.93,3.63-126.8,3.21q-20.9,1.2-41.83,1.79-39,1.11-77.9,0-27.9-.82-55.68-2.9-6.16-.47-12.32-1-7.87-.67-15.71-1.46Q6.22,99.17,0,98.48V88.62c2.24.19,4.5.36,6.75.53q17,1.29,34.09,2.1L25.12,89.08c-4.16-.34-8.32-.84-12.47-1.32L9.46,87.4l-1.64-.15h0l-4.16-.37L.39,86.59l-.39,0V0Z" transform="translate(0.19)"/></g></svg>