<svg xmlns="http://www.w3.org/2000/svg" xmlns:xlink="http://www.w3.org/1999/xlink" width="2130" height="260" viewBox="0 0 2130 260"><defs><clipPath id="a"><rect width="2130" height="260" transform="translate(-2418 -1115)" fill="none"/></clipPath></defs><g transform="translate(2418 1115)" clip-path="url(#a)"><g transform="translate(0 -53)"><g transform="translate(120 -323)"><g transform="translate(-2715 -735)"><path d="M3840.192,3700.166c-2.1,1.526-4.11,3.128-6.131,4.639a49.973,49.973,0,0,0,8.323-2.963c1.559-.686,3.193-1.459,4.887-2.3s3.507-1.739,5.335-2.7c-16.781,11.176-35.011,21.971-53.616,32.142-18.626,10.159-37.8,19.639-56.718,28.084s-37.506,15.767-55.072,21.757q-6.564,2.214-12.948,4.229c-4.235,1.313-8.372,2.506-12.441,3.657l-6.032,1.665c-1.981.519-3.927,1-5.856,1.468q-5.781,1.41-11.254,2.6c-9.4,4.465-18.7,7.718-26.024,9.093a40.576,40.576,0,0,1-9.394.943c-2.5-.16-4.326-.738-5.264-1.771s-.881-2.428-.012-4.052a13.381,13.381,0,0,1,1.9-2.595,32.233,32.233,0,0,1,3.063-2.945,69.393,69.393,0,0,1,9.125-6.408c3.63-2.169,7.9-4.558,12.541-6.74l6.071-3.673a51.532,51.532,0,0,0,5.177-3.552c11.813-9.842,25.581-20.287,40.962-31.074q5.8-4.091,11.863-8.205,6.14-4.19,12.538-8.424c4.225-2.793,8.7-5.718,13.159-8.59l6.779-4.34,7-4.415-20.816,15.629c5.338-3.4,10.577-6.757,16.141-10.117,5.622-3.388,11.386-6.692,17.813-9.961-.923,1.537-2.24,3.27-3.131,4.8,18.176-13.035,41.786-26.1,65.833-36.449,5.925-2.589,12.048-4.991,17.96-7.186,2.972-1.1,5.859-2.145,8.788-3.123s5.836-1.9,8.667-2.751c5.661-1.712,11.052-3.18,16.3-4.314,5.193-1.145,10.034-2,14.43-2.54,18.029-2.035,25.339,1.4,22.853,8.4-1.24,3.5-4.916,7.9-10.916,12.988-3.012,2.538-6.44,5.316-10.512,8.21-4.052,2.9-8.694,5.947-13.7,9.188C3851.919,3692.368,3845.935,3696.233,3840.192,3700.166Z" transform="translate(-1643.87 -3649.11)" fill="#2ea395"/><path d="M3626.89,3763.79c22.091-14.928,43.609-29.7,66.035-44.346l4.008-3.838,1.789,8.049-.691-.248c-3.164.545-6.535,1.253-10.077,2.105-3.5.868-7.162,1.884-10.967,3.019-7.652,2.262-15.669,5.054-24.017,8.151-16.587,6.2-34.144,13.69-50.533,20.883l-11.91,4.689c-5.893,1.8-10.206,2.211-12.1,1.259-2.19-1.063-1.221-3.651,2.1-6.973s8.969-7.359,16.327-11.428l17-9.341a538.614,538.614,0,0,1,74.883-39.139,303.831,303.831,0,0,1,39.279-13.727,143.22,143.22,0,0,1,17.04-3.552,67.168,67.168,0,0,1,13.912-.779c7.286.564,3.364,6.367,3.418,10.289.948,1.059.627,2.565-.747,4.375a33.859,33.859,0,0,1-6.949,6.309,119.394,119.394,0,0,1-11.934,7.415c-4.609,2.611-9.857,5.271-15.564,7.841-5.646,2.615-11.16,4.917-16.365,6.808a147.211,147.211,0,0,1-14.187,4.52c-8.492,2.132-14.549,2.481-16.473.418l-10.789,6.408,9.659-2.5c-4.113-.609-11.33,1.253-19.359,3.925-8.11,2.66-17.012,6.107-24.833,8.614l-22.168,9.652,6.585-17.246,12.049-4.174c-.632.9-1.954,2.437-1.79,2.409,23.1-7.7,45.3-14.835,71.157-24.314l16.768-5.076c2.776-.85,5.61-1.67,8.458-2.48l8.509-2.437c9.668-1.591,10.149,2.039,1.518,8.121l-6.558,4.3q-3.291,2.139-6.484,4.328c1.866-1.463,3.787-2.832,5.7-4.258-15.64,8.435-31.531,16.961-46.912,25.644-15.47,8.65-30.485,17.408-44.727,26.182-4.42,2.877-10.362,5.28-13.392,5.414C3620.91,3769.019,3622.282,3766.711,3626.89,3763.79Z" transform="translate(-1493.284 -3648.416)" fill="#2ea395"/><g transform="translate(0 31.619)"><path d="M3581.959,3712.547c2.452-1.575,4.848-3.145,7.587-4.7a76.993,76.993,0,0,1,9.808-4.5l3.647-.421-9.682,6.289C3586.423,3713.758,3582.226,3714.361,3581.959,3712.547Z" transform="translate(-1337.703 -3679.458)" fill="#2ea395"/><path d="M3578,3702.991l4.052-2.633-2.495,2.293c-.868.265-.9.262-.9.262Z" transform="translate(-1312.702 -3679.519)" fill="#2ea395"/><path d="M5220.079,3708.113c-26.548,7.023-52.485,14.613-78,22.373-25.465,7.785-50.537,15.758-75.181,23.636l-36.735,11.705-17.467,5.4c-5.8,1.833-11.608,3.487-17.417,5.178-11.616,3.464-23.26,6.535-34.9,9.684l-17.481,4.421c-2.913.76-5.83,1.432-8.746,2.106l-8.749,2.039c-3.127.733-5.883.76-6.2.019-.294-.626,1.992-1.847,4.888-2.468,5.821-1.39,11.643-2.672,17.457-4.144l17.432-4.429c5.807-1.51,11.607-3.15,17.406-4.717,5.8-1.541,11.591-3.249,17.38-4.943,11.6-3.292,23.1-6.954,34.707-10.535l36.629-11.693c49.182-15.734,99.858-31.91,152.961-46.049,3.6-.88,6.71-1.036,7.37-.44C5225.785,3705.992,5223.412,3707.226,5220.079,3708.113Z" transform="translate(-4328.965 -3679.411)" fill="#2ea395"/><path d="M5638.9,3851.586c1.026.67,1.467,1.168,1.332,1.481s-.85.453-2.1.313a21.481,21.481,0,0,1-7.773-2.687c-1.726-1.115-1.339-2.007.8-1.778A21.331,21.331,0,0,1,5638.9,3851.586Z" transform="translate(-5470.632 -3749.831)" fill="#2ea395"/><path d="M3728.248,3818.564c14.308,2.99,27.939,5.847,40.094,8.616a45.556,45.556,0,0,0,6.987.887c-1.128.573,1.453,1.651,6.768,2.538q9.8,1.686,19.763,3.338,10,1.482,20.147,2.919c1.692.234,3.381.495,5.083.7l5.112.626,10.271,1.24c3.437.395,6.876.854,10.337,1.188l10.41,1.033c27.83,2.719,56.3,4.553,85,5.438s57.612.91,86.454.258,57.626-1.976,86.079-3.888a15.339,15.339,0,0,0,5.26,1.22,114.867,114.867,0,0,0,17.316.264c3.533-.158,7.327-.385,11.222-.745s7.9-.838,11.925-1.383l12.065-1.844q36.554-5.3,72.318-11.39c5.959-1.019,11.862-2.1,17.787-3.156l8.874-1.591,8.81-1.666,17.534-3.348,16.9-3.348c9.707-.822,20.747-2.169,32.458-4.01,40.083-4.581,79.606-9.036,119.068-13.1-2.235.838-3.457,1.633-3.155,2.259,1.423,1.381,10.85,1.2,21.208-.305,5.253-.656,10.5-1.377,15.7-2.007-14.825,2.323-29.732,4.839-44.612,7.528-2.171.36-4.147.762-5.919,1.176l-50.863,8.025-57.148,8.992-28.784,4.455-7.222,1.1-7.4,1.1-15.073,2.2q-60.264,8.685-121.21,13.8c-81.093,6.858-163.142,8.551-244.146,3.906a45.655,45.655,0,0,0-9.209-.054c-1.606.33-1.361.848,1.609,1.124,25.514,2.465,50.417,4.562,75.184,6.023l9.3.586c3.1.176,6.182.313,9.277.471,6.185.3,12.392.623,18.6.894,12.373.422,24.88.928,37.405,1.091l9.448.164,4.746.071,4.737.017,19.136.015c6.417-.036,12.845-.164,19.364-.27,3.253-.061,6.534-.112,9.813-.2l9.854-.322,9.963-.355c3.344-.119,6.7-.251,10.049-.434q10.066-.51,20.382-1.1c13.671-.9,27.725-1.891,42-3.252l12.777-1.177,12.689-1.292,12.692-1.3,12.6-1.414,12.607-1.426,12.526-1.525,24.466-3.046c31.482-3.983,62.209-7.961,92.366-11.638q22.627-2.769,44.775-5.236,22.179-2.476,43.9-4.55,21.724-2.054,43.008-3.641,21.247-1.527,42-2.469c28.683-2.34,55.958-3.22,81.97-2.785,3.235.082,6.5.111,9.694.228l9.575.355,9.439.509c1.58.07,3.125.192,4.676.3l4.65.331c3.115.191,6.158.491,9.214.759l4.581.4c1.524.153,3.046.333,4.568.5l9.128.985,9.224,1.2,4.613.592,4.666.7,9.34,1.393,9.461,1.6,4.734.792,4.8.9,9.612,1.782,9.754,1.968,4.891.988,4.957,1.072,9.945,2.15c6.741,1.559,13.417,3.016,20.325,4.709,3.443.833,6.845,1.616,10.341,2.487l10.509,2.611c14.148,3.567,28.585,7.312,43.684,11.357,40.653,10.841,83.278,22.7,129.385,34.035,46.046,11.313,96,22.113,150.586,30.01,27.271,3.939,55.682,7.122,84.952,9.2l11.017.726,5.51.353c.892.064,1.895.1,2.882.147l2.96.128,11.848.485,5.928.227c1.976.073,3.956.157,5.917.171q11.793.181,23.6.279,11.7-.12,23.4-.336c31.047-.815,61.325-3.088,90.395-6.39,29.087-3.3,56.985-7.623,83.718-12.556q7.521-1.307,14.9-2.695c4.853-.945,9.55-1.948,14.23-2.95l6.945-1.523c2.3-.511,4.479-1.056,6.693-1.588q6.6-1.607,12.943-3.248c4.218-1.093,8.174-2.237,12.115-3.36,3.9-1.132,7.771-2.249,11.38-3.4s7.093-2.293,10.452-3.431,6.625-2.261,9.608-3.4c6.022-2.265,11.552-4.471,16.337-6.608,4.736-2.144,8.849-4.2,12.252-6.137a45.479,45.479,0,0,0,7.88-5.426c1.856-1.667,2.939-3.178,3.171-4.5.443-3.185-4.086-4.922-12.412-5.346q-3.123-.159-6.941-.073c-2.574.051-5.372.181-8.375.388-6.019.411-12.783,1.152-20.454,2.13,2.766-.731,5.557-1.45,8.255-2.192l8.1-2.233c8.408-2.617,16.548-5.283,24.751-7.935,23.078-7.617,40.94-15.355,50.891-21.687l13.859-8.321c4.126-3.236,9.188-6.665,14.607-10.157,5.378-3.469,11.207-7.062,16.813-10.551,2.813-1.752,5.6-3.5,8.286-5.229s5.263-3.408,7.69-5.075,4.7-3.3,6.739-4.887a64.675,64.675,0,0,0,5.391-4.586l-6.177-1.466,3.631-1.93c3.124-1.444,5.937-2.86,8.415-4.194s4.63-2.6,6.427-3.81c3.594-2.411,5.77-4.581,6.367-6.331l-3.873-2.8c-5.845-2.8-15.735-4.308-29.879-4.309-.7-1.443-3.15-2.362-7.175-2.757,7.182-5.949,9.229-10.6-1.735-12.167,2.608-1.3,3.425-2.2,2.567-2.653s-3.35-.439-7.247.161c-2.687.418-5.8,1.08-8.881,1.864a.247.247,0,0,1,.063-.032c2.617-1.731,3.406-2.241,7.113-4.386l9.112-3.068c7.823-2.442,11.72-3.675,15.428-4.788l13.962-4.27c5.722-2.094,10.2-4.007,13.259-5.4l3.512-1.633,1.213-.6c9.767-9.034,9.9-9.062,5.966-11.021-1-.048-2.09-.068-3.226-.06,5.323-1.763,8.275-2.657,10.191-3.263l4.3-1.38a50.593,50.593,0,0,0,4.837-2.188c-.382-1.458-.383-1.458,1.286-2.387a1.024,1.024,0,0,0-.173-1.126c-7.455-.052-7.47-.048-7.925-.437-1.806-.057-4.147.087-4.147.087l-8.678,1.376-3.671.625-11.879,6.345-1.676.926-4.288-.333-2.49,2.486,1-1.959-7.285,2.858,8.124-3.527-16.968,4.819c-3.19.9-5.05,1.368-8.772,2.3-3.8,1.079-7.344,1.982-10.058,2.634s-4.608,1.044-5.006,1.133a1,1,0,0,0,.058-.94c-9.561,2.887-14.172,4.372-18.812,5.822l-7.447,2.359-10.68,3.459c-1.449.795-2.537,1.488-3.545,2.152a42.545,42.545,0,0,0-9.3,2.042l-9.375,3-2.207.392a.335.335,0,0,1-.067-.114l-8.586,1.665-1.8.32c-.007.008-.062.03-.079.045l-36.823,7.13c-5.392,1.784-10.283,3.476-14.879,5.136,1.38-.656,2.693-1.289,3.944-1.929,2.492-1.284-1.2-1.752.264-2.322,36.507-13.825,78.695-27.763,123.166-41.253,8.362-1.994,15.509-4.752,15.963-6.09.264-1.328-6.352-.729-14.953,1.347-24.652,4.416-49.543,9.911-74.042,15.993s-48.636,12.746-72.021,19.514-46.041,13.644-67.694,20.229-42.314,12.885-61.746,18.644c-20.965,5.29-41.955,9.859-62.785,13.451.914-.353,1.832-.752,2.723-1.134-2.665.635-5.293,1.114-7.942,1.663l-7.939,1.619c-.581.1-1.17.208-1.74.275,3.815-1.356,7.595-2.758,11.313-4.106,1.358-.324,2.7-.6,4.077-.952l4.133-1.013a628.023,628.023,0,0,0,69.633-16.724c22.7-6.715,45.216-14.278,69.1-22.2,25.7-8.551,47.175-17.482,72.163-26.744,6.747-2.117,10.792-4.3,9.178-4.988-1.544-.653-8.543.6-15.057,2.627-22.339,6-44.688,12.224-66.454,18.294s-42.954,11.989-63.05,17.487-39.113,10.6-56.636,15.193-33.576,8.7-47.971,12.557q-2.581.3-5.124.64c-1.7.226-3.379.47-5.014.645-3.287.391-6.5.827-9.629,1.31l-2.328.37-2.263.315q-2.245.323-4.413.686t-4.246.762c-1.385.263-2.749.565-4.047.792l-.595.054,1.992-.611,1.969-.671,3.943-1.334c-2.479.294-4.667.681-6.674,1.043-1.993.326-3.829.692-5.645,1.066a95.234,95.234,0,0,1-11.7,1.977c.975-.973,2.162-1.941,3.1-2.915l-9.065.46-2.285.117-1.145.059-1.131.017-4.538.07-4.559.077c-1.518.013-3.061.09-4.562.034l-9.087-.151c-2.917.012-6.389-.206-9.687-.345l-5-.22-2.5-.106c-.834-.036-1.679-.109-2.517-.161l-10.086-.661-2.525-.161-2.542-.219-5.082-.427c-27.082-2.167-54.711-5.785-81.716-8.7l-6.135-.92c-21.3-6.3-42.935-13.139-70.38-19.932l14.172,2.841,14.013,2.709c-18.888-5.576-38.16-11.125-60.252-16.423-29.9-7.212-63.41-14.413-95.26-19.7q-5.975-.99-11.784-1.892c-3.856-.6-7.776-1.156-11.546-1.686-3.793-.526-7.482-1.026-11.132-1.479q-5.518-.668-10.751-1.229c-3.5-.369-6.833-.718-10.156-1s-6.517-.52-9.585-.718-6.007-.356-8.8-.471c-2.83-.1-5.534-.152-8.071-.162l-12.459-2.563-12.683-2.452-6.345-1.223-6.457-1.16-12.928-2.308-13.153-2.16-6.587-1.072c-2.2-.354-4.457-.666-6.683-1L4820.9,3690.8c-4.5-.63-9.077-1.19-13.615-1.782-9.034-1.23-18.358-2.168-27.587-3.194-2.3-.267-4.653-.468-7-.682l-7.034-.636-7.037-.63-3.521-.307-3.538-.257c-18.879-1.479-37.751-2.363-56.509-2.864-18.752-.481-37.427-.587-55.859-.235q-27.661.5-54.722,2c-18.044.965-35.79,2.29-53.347,3.782s-34.875,3.212-51.927,5.11c-7.094.731-13.072,2.169-14,3.145-.394.909,4.506,1.114,11.5.34,49-4.6,99.92-8.29,152.643-9.083,13.146-.24,26.442-.2,39.758-.067,3.333.042,6.683.129,10.022.194,3.347.083,6.674.113,10.035.242l10.063.346c1.678.062,3.352.108,5.032.184l5.044.243,10.087.492c3.365.185,6.736.415,10.1.623,3.369.228,6.73.4,10.1.678l10.1.794c13.439,1.147,26.856,2.466,39.987,4.07-22.143-2.042-44.981-3.394-67.527-4.036-22.582-.648-45.053-.615-67.3-.026-44.511,1.174-88.03,4.573-130.575,9.109-5.421.521-10.9,1.014-16.32,1.567s-10.878,1.1-16.27,1.7c-10.7,1.156-21.1,2.723-31.325,4.455-26.353,3.565-51.887,7.458-76.847,11.5-24.981,4.031-49.442,8.189-73.662,12.295l-36.217,6.095-9.017,1.493-4.513.744-4.34.689-17.411,2.74c-23.3,3.5-46.92,6.631-71,9.271-10.291,1.042-20.405,2.162-30.4,3.015-5,.443-9.961.931-14.9,1.329l-14.735,1.153c-4.888.409-9.75.709-14.6,1.024s-9.672.648-14.484.925l-14.4.74c-2.393.118-4.786.26-7.175.357l-7.16.267-14.3.528-14.284.323-7.151.159-7.148.052-14.341.1-14.386-.12-7.232-.067-7.239-.179c-4.834-.128-9.7-.215-14.579-.376l-14.686-.606a1142.859,1142.859,0,0,1-154.469-17.392c-24.15-4.435-47.662-9.6-70.837-15.5l-8.668-2.259c-2.891-.754-5.817-1.465-8.655-2.305l-8.6-2.417-4.319-1.2c-1.441-.4-2.9-.785-4.3-1.231q-8.522-2.593-17.158-5.138-8.479-2.756-17.089-5.469c-1.514-.493-2.973-1.034-4.451-1.511s-2.937-.931-4.376-1.342c-2.878-.822-5.655-1.495-8.175-1.99-5.072-.951-8.967-1.381-10.689-.7-1.716.647-.881,2.2,1.887,4.184a70.231,70.231,0,0,0,13.667,6.436,867.241,867.241,0,0,0,151.12,41.408c53.708,9.777,110.586,15.307,169.226,16.755,58.646,1.472,118.965-1.119,179.739-7.071q45.59-4.46,91.484-11.341c7.634-1.18,15.287-2.332,22.936-3.559l23.025-3.837q23.76-4.089,48.009-8.4,20.914-3.7,41.839-7.312t42.02-7.062c-.231.342-.439.674-.3.962.542,1.145,3.725,1.776,8.64,1.957-31.891,5.277-63.327,11.12-94.356,17.135l-33.02,4.748-8.213,1.182-4.107.592-4.005.558-15.93,2.219c-21.268,2.867-42.594,5.659-64.083,8.133l-8.058.963c-2.689.319-5.384.6-8.08.9l-16.193,1.82c-10.828,1.089-21.68,2.338-32.6,3.356l-8.2.819-4.106.417-4.113.371-16.507,1.537-16.6,1.435-8.343.731-8.37.652c-30.7,2.491-59.917,4.463-88.613,5.762s-56.866,1.914-85.322,1.525c-35.671-2.691-70.694-6.864-104.678-12.821l-12.735-2.239c-4.219-.79-8.4-1.651-12.6-2.468-8.439-1.574-16.681-3.474-24.982-5.268-4.173-.862-8.235-1.9-12.335-2.878l-12.286-2.952-12.123-3.2c-4.043-1.061-8.112-2.09-12.07-3.271a20.13,20.13,0,0,0-6.543-1.2c-1.237.137-.15.89,2.36,1.725,21.389,7.1,43.955,13.459,67.474,18.975,23.554,5.456,48.051,10.052,73.2,13.811-8.466.419-13.939,1.609-13.982,3.547-.1,2.048,5.6,4.49,14.954,6.84-5.92-.657-11.862-1.266-17.764-1.972l-17.647-2.271c-.912-.112-1.8-.21-2.667-.294s-1.684-.186-2.475-.256c-1.582-.142-3.016-.224-4.233-.242-2.434-.037-4,.178-4.114.67-.161.534,1.115,1.208,3.3,1.879a53.49,53.49,0,0,0,8.766,1.8l18.154,2.369c6.08.713,12.186,1.356,18.273,2.04l4.569.506c1.528.154,3.064.283,4.6.426l9.194.839,9.192.835,9.241.671c12.3.979,24.68,1.6,37.051,2.233l18.607.7c1.549.068,3.1.108,4.657.134l4.663.1,9.325.2c59.673,2.309,119.968.622,180.128-4.063a95.044,95.044,0,0,0-10.142,3.142,23.322,23.322,0,0,0-6.058,3.094.035.035,0,0,0,0,.034c-9.394.684-18.741,1.418-28.093,1.923-21.55.8-43.161,1.061-64.747,1.1l-16.191-.085c-2.7.005-5.4-.064-8.092-.115l-8.09-.155-8.087-.149c-2.7-.038-5.388-.168-8.082-.247l-16.153-.531-16.12-.77c-2.685-.135-5.375-.237-8.056-.4l-8.036-.512-8.036-.505c-2.675-.176-5.36-.309-8.025-.544l-16.009-1.265-4-.313-3.984-.383-7.968-.762c-5.31-.514-10.636-.968-15.905-1.608l-15.848-1.776c-5.259-.654-10.5-1.363-15.751-2.034-83.9-11.128-164.24-30.673-237.359-57.85-2.85-1.073-5.566-1.645-6.072-1.273s1.36,1.506,3.983,2.436l16.721,6.064,17.009,5.755c1.42.476,2.816.976,4.254,1.432l4.324,1.356,8.639,2.72c2.886.9,5.733,1.839,8.645,2.707l8.773,2.554c23.364,6.834,47.221,13.065,71.677,18.362l-.214-.023c-2.133-.173-2.815.228-.845,1.013a26.423,26.423,0,0,0,3.684,1.048,28.666,28.666,0,0,0,4.018.6c2.484.151,2.553-.368.859-1.008l17.188,3.539c5.765,1.116,11.574,2.154,17.354,3.244,5.76,1.132,11.641,2.027,17.473,3.016l8.76,1.463c2.922.483,5.885.878,8.825,1.323l8.833,1.306c2.945.434,5.88.9,8.855,1.253l17.8,2.308c11.929,1.35,23.845,2.771,35.872,3.827,48.008,4.6,96.76,6.511,145.453,6.573-22.587.527-45.167.533-67.7.17q-33.789-.757-67.342-2.882l-16.722-1.251c-2.784-.222-5.581-.391-8.353-.653l-8.317-.773-8.32-.768-4.161-.381-4.137-.452-16.547-1.816c-2.769-.275-5.487-.68-8.233-1.016l-8.22-1.05-8.224-1.045-8.157-1.2-8.163-1.19-4.083-.592-2.041-.3-2.023-.335-16.191-2.666-3.4-.819c-1.13-.278-2.241-.588-3.362-.88l-6.712-1.773-6.728-1.77c-2.239-.6-4.521-1.146-6.741-1.8a26.081,26.081,0,0,0-7.187-.944c-.934.2.632,1.04,3.168,1.708,2.51.685,4.956,1.411,7.493,2.036-16.057-3.192-29.546-4.171-30.812-1.974-.178.617.468,1.4,1.8,2.279a34.405,34.405,0,0,0,6.021,2.775c2.611.978,5.781,1.994,9.357,2.991,1.787.5,3.678.992,5.649,1.475,1.993.449,4.077.873,6.22,1.283,5.694,1.173,11.376,2.366,17.085,3.513l17.277,3.166,4.322.789c1.446.249,2.906.473,4.358.71l8.729,1.4,8.73,1.4c2.912.461,5.863.832,8.792,1.251,23.418,3.422,47.206,5.923,71.106,7.856,5.151.512,10.288,1.107,15.456,1.57l15.5,2.044c-37.576-1.577-75.031-4.6-111.884-9.308-36.818-4.777-73.022-11.178-108.117-19.171a77.01,77.01,0,0,0-8.061-1.523c-2.2-.282-3.758-.277-4.118.094-.736.716,3.507,2.706,9.566,4.146,30.177,8.407,61.64,15.556,93.992,21.343s65.58,10.224,99.254,13.325c67.383,6.216,136.384,7.083,204.539,3.8q67.943,1.374,137.629-1.849l-8.542,1.157-4.3.566-4.34.511a1372.3,1372.3,0,0,1-213.31,8.18c-34.607-1.306-68.9-3.782-103.233-7.362-34.335-3.612-68.706-8.312-103.59-14.145-3.465-.644-6.554-.737-7.208-.4-.573.349,1.624,1.131,5.2,1.686,34.081,5.922,67.23,10.758,100.788,14.526,33.55,3.749,67.52,6.442,103.063,7.672,29.447,1.021,58.229,1.152,86.457.785l10.571-.135c3.517-.048,7.006-.164,10.5-.24l10.469-.249,5.224-.121,5.2-.175,20.725-.691,20.558-.861-20.7,1.653-20.718,1.321c-3.439.229-6.9.4-10.355.555l-10.354.484c-3.45.148-6.883.335-10.339.444l-10.356.317c-27.588.813-55.127.981-82.639.254q-41.256-1.037-82.308-4.2l-20.513-1.722-20.479-2.042c-1.707-.176-3.416-.329-5.119-.521l-5.108-.6-10.222-1.189c-3.4-.411-6.828-.754-10.222-1.217l-10.2-1.355a79.525,79.525,0,0,0-12.816-1,5.535,5.535,0,0,0-2.465-.936c-6.584-1.475-13.484-2.9-20.572-4.312-7.039-1.535-14.274-3.043-21.584-4.53a31.8,31.8,0,0,0-8.144-.917C3723.678,3817.065,3725.2,3817.772,3728.248,3818.564Zm1797.18-27.048c.79-.376,1.424-.712,2.02-1.011-2.352.857-4.889,1.689-7.7,2.654l-1.172.72c-1.179.712-3.513,2.18-8.283,5.04l1.32-.618,3.455-1.681Zm154.189-27.379-.082.023,5.192-3.672Zm-977.7-72.337c3.99.1,7.989.249,11.981.371l5.988.194,6,.272c4,.19,7.992.342,11.988.563l11.991.7c4,.2,7.962.559,11.943.836l11.925.882,11.79,1.059c3.915.368,7.882.677,11.757,1.091,31.176,3.122,61.433,7.162,90.906,11.553l-10.533-2.107c-3.527-.69-7.123-1.338-10.683-2.006l-10.721-1.98-10.9-1.861c-22.994-3.036-46.6-5.505-70.68-7.193l-18.174-1.063c-3.021-.193-6.07-.292-9.109-.417l-9.12-.354c-6.076-.2-12.141-.3-18.207-.438C4714,3691.857,4707.949,3691.8,4701.912,3691.8Zm910.283,63.02c-5.782,2.622-10.784,5.144-15.3,7.542s-8.592,4.795-12.508,7.075c-4.4.944-8.839,1.983-13.294,3.073-4.45,1.06-8.915,2.194-13.366,3.394-23.915,6.352-47.044,12.207-69.817,17.368,2.318-1.718-3.139-.529-6.04-.129l-8.823,1.377c24.114-5.351,48.114-11.7,72.426-18.83C5567.4,3769.284,5591.566,3762.15,5612.194,3754.821Zm183.218-46.469c.657-.336,1.267-.634,2.037-.994l-.8-.047-5.564-.306S5792.959,3707.557,5795.412,3708.351Zm10.2.794-3.731,1.209A3.683,3.683,0,0,0,5805.609,3709.146Zm-33.7,11.281a32.942,32.942,0,0,1,4.223-2.214Zm15.685,54.739-19.748-4.521c6.906,1.286,13.786,2.557,20.635,3.877Z" transform="translate(-3556.316 -3680)" fill="#2ea395"/></g></g><g transform="translate(-6102.315 -4384.11)"><path d="M3650.572,3700.166c2.1,1.526,4.11,3.128,6.131,4.639a49.973,49.973,0,0,1-8.323-2.963c-1.559-.686-3.193-1.459-4.887-2.3s-3.507-1.739-5.335-2.7c16.781,11.176,35.011,21.971,53.616,32.142,18.626,10.159,37.8,19.639,56.718,28.084s37.506,15.767,55.072,21.757q6.564,2.214,12.948,4.229c4.235,1.313,8.372,2.506,12.441,3.657l6.032,1.665c1.981.519,3.927,1,5.856,1.468q5.781,1.41,11.254,2.6c9.4,4.465,18.7,7.718,26.024,9.093a40.576,40.576,0,0,0,9.394.943c2.5-.16,4.326-.738,5.264-1.771s.881-2.428.012-4.052a13.381,13.381,0,0,0-1.9-2.595,32.233,32.233,0,0,0-3.062-2.945,69.393,69.393,0,0,0-9.125-6.408c-3.63-2.169-7.9-4.558-12.541-6.74l-6.071-3.673a51.532,51.532,0,0,1-5.177-3.552c-11.813-9.842-25.581-20.287-40.962-31.074q-5.8-4.091-11.863-8.205-6.14-4.19-12.538-8.424c-4.225-2.793-8.7-5.718-13.159-8.59l-6.779-4.34-7-4.415,20.816,15.629c-5.338-3.4-10.577-6.757-16.141-10.117-5.622-3.388-11.386-6.692-17.813-9.961.923,1.537,2.24,3.27,3.131,4.8-18.176-13.035-41.786-26.1-65.833-36.449-5.925-2.589-12.048-4.991-17.96-7.186-2.972-1.1-5.859-2.145-8.788-3.123s-5.836-1.9-8.667-2.751c-5.661-1.712-11.052-3.18-16.3-4.314-5.193-1.145-10.034-2-14.43-2.54-18.029-2.035-25.339,1.4-22.853,8.4,1.24,3.5,4.916,7.9,10.916,12.988,3.012,2.538,6.44,5.316,10.512,8.21,4.052,2.9,8.694,5.947,13.7,9.188C3638.845,3692.368,3644.829,3696.233,3650.572,3700.166Z" transform="translate(0.968)" fill="#222"/><path d="M3713.762,3763.79c-22.091-14.928-43.609-29.7-66.035-44.346l-4.008-3.838-1.789,8.049.691-.248c3.164.545,6.535,1.253,10.077,2.105,3.5.868,7.162,1.884,10.967,3.019,7.652,2.262,15.669,5.054,24.017,8.151,16.587,6.2,34.144,13.69,50.533,20.883l11.91,4.689c5.893,1.8,10.206,2.211,12.1,1.259,2.19-1.063,1.221-3.651-2.1-6.973s-8.969-7.359-16.327-11.428l-17-9.341a538.614,538.614,0,0,0-74.883-39.139,303.831,303.831,0,0,0-39.279-13.727,143.22,143.22,0,0,0-17.04-3.552,67.168,67.168,0,0,0-13.912-.779c-7.286.564-3.364,6.367-3.418,10.289-.948,1.059-.627,2.565.747,4.375a33.859,33.859,0,0,0,6.949,6.309,119.394,119.394,0,0,0,11.934,7.415c4.609,2.611,9.857,5.271,15.564,7.841,5.646,2.615,11.16,4.917,16.365,6.808a147.211,147.211,0,0,0,14.187,4.52c8.492,2.132,14.549,2.481,16.473.418l10.789,6.408-9.659-2.5c4.113-.609,11.33,1.253,19.359,3.925,8.11,2.66,17.012,6.107,24.833,8.614l22.168,9.652-6.585-17.246-12.049-4.174c.632.9,1.954,2.437,1.79,2.409-23.1-7.7-45.3-14.835-71.157-24.314l-16.768-5.076c-2.776-.85-5.61-1.67-8.458-2.48l-8.509-2.437c-9.668-1.591-10.149,2.039-1.518,8.121l6.558,4.3q3.291,2.139,6.484,4.328c-1.866-1.463-3.787-2.832-5.7-4.258,15.64,8.435,31.531,16.961,46.912,25.644,15.47,8.65,30.485,17.408,44.727,26.182,4.42,2.877,10.362,5.28,13.392,5.414C3719.742,3769.019,3718.37,3766.711,3713.762,3763.79Z" transform="translate(0.495 0.694)" fill="#222"/><g transform="translate(3556.316 3680.729)"><path d="M3603,3712.547c-2.452-1.575-4.848-3.145-7.587-4.7a76.993,76.993,0,0,0-9.808-4.5l-3.647-.421,9.682,6.289C3598.538,3713.758,3602.734,3714.361,3603,3712.547Z" transform="translate(-3555.71 -3679.458)" fill="#222"/><path d="M3582.052,3702.991l-4.052-2.633,2.495,2.293c.868.265.9.262.9.262Z" transform="translate(-3555.803 -3679.519)" fill="#222"/><path d="M4924.558,3708.113c26.548,7.023,52.485,14.613,78,22.373,25.465,7.785,50.537,15.758,75.181,23.636l36.735,11.705,17.467,5.4c5.8,1.833,11.608,3.487,17.417,5.178,11.616,3.464,23.26,6.535,34.9,9.684l17.481,4.421c2.913.76,5.83,1.432,8.746,2.106l8.749,2.039c3.127.733,5.883.76,6.2.019.294-.626-1.992-1.847-4.888-2.468-5.821-1.39-11.643-2.672-17.457-4.144l-17.432-4.429c-5.807-1.51-11.607-3.15-17.406-4.717-5.8-1.541-11.591-3.249-17.38-4.943-11.6-3.292-23.1-6.954-34.707-10.535l-36.629-11.693c-49.182-15.734-99.858-31.91-152.961-46.049-3.6-.88-6.71-1.036-7.37-.44C4918.853,3705.992,4921.226,3707.226,4924.558,3708.113Z" transform="translate(-3524.125 -3679.411)" fill="#222"/><path d="M5630.631,3851.585c-1.026.67-1.467,1.168-1.332,1.481s.85.453,2.1.313a21.481,21.481,0,0,0,7.773-2.687c1.726-1.115,1.339-2.007-.8-1.778A21.331,21.331,0,0,0,5630.631,3851.585Z" transform="translate(-3507.353 -3749.831)" fill="#222"/><path d="M5675.931,3818.564c-14.308,2.99-27.939,5.847-40.094,8.616a45.556,45.556,0,0,1-6.987.887c1.128.573-1.453,1.651-6.768,2.538q-9.8,1.686-19.763,3.338-10,1.482-20.147,2.919c-1.692.234-3.381.495-5.083.7l-5.112.626-10.271,1.24c-3.437.395-6.876.854-10.337,1.188l-10.41,1.033c-27.83,2.719-56.3,4.553-85,5.438s-57.612.91-86.454.258-57.626-1.976-86.079-3.888a15.339,15.339,0,0,1-5.26,1.22,114.867,114.867,0,0,1-17.316.264c-3.533-.158-7.327-.385-11.222-.745s-7.9-.838-11.925-1.383l-12.065-1.844q-36.554-5.3-72.318-11.39c-5.959-1.019-11.862-2.1-17.787-3.156l-8.874-1.591-8.81-1.666-17.534-3.348-16.9-3.348c-9.707-.822-20.747-2.169-32.458-4.01-40.083-4.581-79.606-9.036-119.068-13.1,2.235.838,3.457,1.633,3.155,2.259-1.423,1.381-10.85,1.2-21.208-.305-5.253-.656-10.5-1.377-15.7-2.007,14.825,2.323,29.732,4.839,44.612,7.528,2.171.36,4.147.762,5.919,1.176l50.863,8.025,57.148,8.992,28.784,4.455,7.222,1.1,7.4,1.1,15.073,2.2q60.264,8.685,121.21,13.8c81.093,6.858,163.142,8.551,244.146,3.906a45.655,45.655,0,0,1,9.209-.054c1.606.33,1.361.848-1.609,1.124-25.514,2.465-50.417,4.562-75.184,6.023l-9.3.586c-3.1.176-6.182.313-9.277.471-6.185.3-12.392.623-18.6.894-12.373.422-24.88.928-37.405,1.091l-9.448.164-4.746.071-4.737.017-19.136.015c-6.417-.036-12.845-.164-19.364-.27-3.253-.061-6.534-.112-9.812-.2l-9.854-.322-9.963-.355c-3.344-.119-6.7-.251-10.049-.434q-10.066-.51-20.382-1.1c-13.671-.9-27.725-1.891-42-3.252l-12.777-1.177-12.689-1.292-12.692-1.3-12.6-1.414-12.607-1.426-12.526-1.525-24.466-3.046c-31.482-3.983-62.209-7.961-92.366-11.638q-22.627-2.769-44.775-5.236-22.179-2.476-43.9-4.55-21.724-2.054-43.008-3.641-21.247-1.527-42-2.469c-28.683-2.34-55.958-3.22-81.97-2.785-3.235.082-6.5.111-9.694.228l-9.575.355-9.439.509c-1.58.07-3.125.192-4.676.3l-4.65.331c-3.115.191-6.158.491-9.214.759l-4.581.4c-1.524.153-3.046.333-4.568.5l-9.128.985-9.224,1.2-4.613.592-4.666.7-9.34,1.393-9.461,1.6-4.734.792-4.8.9-9.612,1.782-9.754,1.968-4.891.988-4.957,1.072-9.945,2.15c-6.741,1.559-13.417,3.016-20.325,4.709-3.443.833-6.845,1.616-10.341,2.487l-10.509,2.611c-14.148,3.567-28.585,7.312-43.684,11.357-40.653,10.841-83.278,22.7-129.385,34.035-46.046,11.313-96,22.113-150.586,30.01-27.271,3.939-55.682,7.122-84.952,9.2l-11.017.726-5.51.353c-.892.064-1.895.1-2.882.147l-2.96.128-11.848.485-5.928.227c-1.976.073-3.956.157-5.917.171q-11.793.181-23.6.279-11.7-.12-23.4-.336c-31.047-.815-61.325-3.088-90.395-6.39-29.087-3.3-56.985-7.623-83.718-12.556q-7.521-1.307-14.9-2.695c-4.852-.945-9.55-1.948-14.23-2.95l-6.945-1.523c-2.3-.511-4.479-1.056-6.693-1.588q-6.6-1.607-12.943-3.248c-4.218-1.093-8.175-2.237-12.115-3.36-3.9-1.132-7.771-2.249-11.38-3.4s-7.093-2.293-10.451-3.431-6.625-2.261-9.609-3.4c-6.022-2.265-11.552-4.471-16.337-6.608-4.736-2.144-8.848-4.2-12.252-6.137a45.46,45.46,0,0,1-7.88-5.426c-1.857-1.667-2.94-3.178-3.171-4.5-.443-3.185,4.086-4.922,12.412-5.346q3.123-.159,6.941-.073c2.574.051,5.372.181,8.375.388,6.018.411,12.783,1.152,20.454,2.13-2.766-.731-5.557-1.45-8.255-2.192l-8.1-2.233c-8.408-2.617-16.548-5.283-24.751-7.935-23.079-7.617-40.941-15.355-50.891-21.687l-13.859-8.321c-4.126-3.236-9.188-6.665-14.607-10.157-5.378-3.469-11.207-7.062-16.813-10.551-2.813-1.752-5.6-3.5-8.286-5.229s-5.262-3.408-7.69-5.075-4.7-3.3-6.74-4.887a64.755,64.755,0,0,1-5.391-4.586l6.177-1.466-3.631-1.93c-3.124-1.444-5.936-2.86-8.415-4.194s-4.63-2.6-6.427-3.81c-3.594-2.411-5.77-4.581-6.367-6.331l3.872-2.8c5.845-2.8,15.735-4.308,29.879-4.309.7-1.443,3.15-2.362,7.175-2.757-7.182-5.949-9.229-10.6,1.735-12.167-2.608-1.3-3.425-2.2-2.567-2.653s3.35-.439,7.247.161c2.687.418,5.8,1.08,8.881,1.864a.243.243,0,0,0-.063-.032c-2.617-1.731-3.406-2.241-7.113-4.386l-9.112-3.068c-7.824-2.442-11.72-3.675-15.428-4.788l-13.962-4.27c-5.721-2.094-10.2-4.007-13.259-5.4l-3.512-1.633-1.213-.6c-9.766-9.034-9.9-9.062-5.966-11.021,1-.048,2.089-.068,3.225-.06-5.323-1.763-8.275-2.657-10.191-3.263l-4.305-1.38a50.567,50.567,0,0,1-4.837-2.188c.382-1.458.383-1.458-1.286-2.387a1.024,1.024,0,0,1,.172-1.126c7.455-.052,7.47-.048,7.925-.437,1.806-.057,4.148.087,4.148.087l8.678,1.376,3.672.625,11.879,6.345,1.677.926,4.288-.333,2.49,2.486-1-1.959,7.284,2.858-8.124-3.527,16.968,4.819c3.19.9,5.051,1.368,8.772,2.3,3.8,1.079,7.344,1.982,10.058,2.634s4.608,1.044,5.006,1.133a1.006,1.006,0,0,1-.057-.94c9.561,2.887,14.172,4.372,18.812,5.822l7.447,2.359,10.679,3.459c1.449.795,2.538,1.488,3.545,2.152a42.54,42.54,0,0,1,9.3,2.042l9.374,3,2.207.392a.325.325,0,0,0,.067-.114l8.586,1.665,1.8.32c.007.008.062.03.079.045l36.823,7.13c5.392,1.784,10.283,3.476,14.879,5.136-1.38-.656-2.693-1.289-3.944-1.929-2.491-1.284,1.2-1.752-.264-2.322-36.508-13.825-78.7-27.763-123.166-41.253-8.362-1.994-15.509-4.752-15.963-6.09-.264-1.328,6.352-.729,14.953,1.347,24.652,4.416,49.543,9.911,74.042,15.993s48.636,12.746,72.021,19.514,46.041,13.644,67.694,20.229,42.314,12.885,61.746,18.644c20.965,5.29,41.955,9.859,62.786,13.451-.914-.353-1.832-.752-2.723-1.134,2.664.635,5.293,1.114,7.942,1.663l7.939,1.619c.582.1,1.17.208,1.74.275-3.815-1.356-7.594-2.758-11.313-4.106-1.358-.324-2.7-.6-4.077-.952l-4.134-1.013a628.041,628.041,0,0,1-69.634-16.724c-22.7-6.715-45.216-14.278-69.1-22.2-25.7-8.551-47.175-17.482-72.162-26.744-6.747-2.117-10.792-4.3-9.178-4.988,1.545-.653,8.543.6,15.057,2.627,22.338,6,44.688,12.224,66.454,18.294s42.954,11.989,63.05,17.487,39.114,10.6,56.636,15.193,33.577,8.7,47.971,12.557q2.581.3,5.124.64c1.7.226,3.379.47,5.014.645,3.287.391,6.5.827,9.629,1.31l2.328.37,2.263.315q2.245.323,4.413.686t4.246.762c1.385.263,2.749.565,4.047.792l.595.054-1.992-.611-1.969-.671-3.943-1.334c2.479.294,4.667.681,6.674,1.043,1.993.326,3.829.692,5.645,1.066a95.234,95.234,0,0,0,11.7,1.977c-.975-.973-2.162-1.941-3.1-2.915l9.065.46,2.285.117,1.145.059,1.131.017,4.538.07,4.559.077c1.518.013,3.061.09,4.562.034l9.087-.151c2.917.012,6.389-.206,9.688-.345l5-.22,2.5-.106c.834-.036,1.679-.109,2.517-.161l10.086-.661,2.525-.161,2.542-.219,5.082-.427c27.082-2.167,54.711-5.785,81.716-8.7l6.135-.92c21.3-6.3,42.935-13.139,70.38-19.932l-14.172,2.841-14.013,2.709c18.888-5.576,38.16-11.125,60.252-16.423,29.9-7.212,63.41-14.413,95.26-19.7q5.975-.99,11.784-1.892c3.856-.6,7.776-1.156,11.546-1.686,3.793-.526,7.482-1.026,11.132-1.479q5.518-.668,10.751-1.229c3.5-.369,6.833-.718,10.156-1s6.517-.52,9.585-.718,6.007-.356,8.8-.471c2.83-.1,5.534-.152,8.071-.162l12.459-2.563,12.683-2.452,6.345-1.223,6.457-1.16,12.928-2.308,13.153-2.16,6.587-1.072c2.2-.354,4.457-.666,6.683-1l13.409-1.962c4.5-.63,9.077-1.19,13.615-1.782,9.034-1.23,18.358-2.168,27.587-3.194,2.3-.267,4.653-.468,7-.682l7.034-.636,7.037-.63,3.521-.307,3.538-.257c18.879-1.479,37.751-2.363,56.509-2.864,18.752-.481,37.427-.587,55.859-.235q27.661.5,54.722,2c18.044.965,35.79,2.29,53.347,3.782s34.875,3.212,51.927,5.11c7.094.731,13.072,2.169,14,3.145.394.909-4.506,1.114-11.5.34-49-4.6-99.92-8.29-152.643-9.083-13.146-.24-26.442-.2-39.758-.067-3.333.042-6.683.129-10.022.194-3.347.083-6.674.113-10.035.242l-10.063.346c-1.678.062-3.352.108-5.032.184l-5.044.243-10.087.492c-3.365.185-6.736.415-10.1.623-3.369.228-6.73.4-10.1.678l-10.1.794c-13.439,1.147-26.856,2.466-39.987,4.07,22.143-2.042,44.981-3.394,67.527-4.036,22.582-.648,45.053-.615,67.3-.026,44.511,1.174,88.03,4.573,130.575,9.109,5.421.521,10.9,1.014,16.32,1.567s10.878,1.1,16.27,1.7c10.7,1.156,21.1,2.723,31.325,4.455,26.353,3.565,51.887,7.458,76.847,11.5,24.981,4.031,49.442,8.189,73.662,12.295l36.217,6.095,9.017,1.493,4.513.744,4.34.689,17.411,2.74c23.3,3.5,46.92,6.631,71,9.271,10.291,1.042,20.405,2.162,30.4,3.015,5,.443,9.961.931,14.9,1.329l14.735,1.153c4.888.409,9.75.709,14.6,1.024s9.672.648,14.484.925l14.4.74c2.393.118,4.786.26,7.175.357l7.16.267,14.3.528,14.284.323,7.151.159,7.148.052,14.341.1,14.386-.12,7.232-.067,7.239-.179c4.834-.128,9.7-.215,14.579-.376l14.686-.606a1142.859,1142.859,0,0,0,154.469-17.392c24.15-4.435,47.662-9.6,70.837-15.5l8.668-2.259c2.891-.754,5.817-1.465,8.655-2.305l8.6-2.417,4.319-1.2c1.441-.4,2.9-.785,4.3-1.231q8.522-2.593,17.158-5.138,8.479-2.756,17.089-5.469c1.514-.493,2.973-1.034,4.451-1.511s2.938-.931,4.376-1.342c2.878-.822,5.655-1.495,8.175-1.99,5.072-.951,8.967-1.381,10.689-.7,1.716.647.881,2.2-1.887,4.184a70.231,70.231,0,0,1-13.667,6.436,867.241,867.241,0,0,1-151.12,41.408c-53.708,9.777-110.586,15.307-169.226,16.755-58.646,1.472-118.965-1.119-179.739-7.071q-45.59-4.46-91.484-11.341c-7.634-1.18-15.287-2.332-22.936-3.559l-23.025-3.837q-23.76-4.089-48.009-8.4-20.914-3.7-41.839-7.312t-42.02-7.062c.231.342.439.674.3.962-.542,1.145-3.725,1.776-8.64,1.957,31.891,5.277,63.327,11.12,94.356,17.135l33.02,4.748,8.213,1.182,4.107.592,4.005.558,15.93,2.219c21.268,2.867,42.594,5.659,64.083,8.133l8.058.963c2.689.319,5.384.6,8.08.9l16.193,1.82c10.828,1.089,21.68,2.338,32.6,3.356l8.2.819,4.106.417,4.113.371,16.507,1.537,16.6,1.435,8.343.731,8.37.652c30.7,2.491,59.917,4.463,88.613,5.762s56.866,1.914,85.322,1.525c35.671-2.691,70.694-6.864,104.678-12.821l12.735-2.239c4.219-.79,8.4-1.651,12.6-2.468,8.439-1.574,16.681-3.474,24.982-5.268,4.173-.862,8.235-1.9,12.335-2.878l12.286-2.952,12.123-3.2c4.043-1.061,8.112-2.09,12.07-3.271a20.13,20.13,0,0,1,6.543-1.2c1.237.137.15.89-2.36,1.725-21.389,7.1-43.955,13.459-67.474,18.975-23.554,5.456-48.051,10.052-73.2,13.811,8.466.419,13.939,1.609,13.982,3.547.1,2.048-5.6,4.49-14.954,6.84,5.92-.657,11.862-1.266,17.764-1.972l17.647-2.271c.912-.112,1.8-.21,2.667-.294s1.684-.186,2.475-.256c1.582-.142,3.016-.224,4.233-.242,2.434-.037,4,.178,4.114.67.161.534-1.115,1.208-3.3,1.879a53.49,53.49,0,0,1-8.766,1.8l-18.154,2.369c-6.08.713-12.186,1.356-18.273,2.04l-4.569.506c-1.528.154-3.064.283-4.6.426l-9.194.839-9.192.835-9.241.671c-12.3.979-24.68,1.6-37.051,2.233l-18.607.7c-1.549.068-3.1.108-4.657.134l-4.663.1-9.325.2c-59.673,2.309-119.968.622-180.128-4.063a95.044,95.044,0,0,1,10.142,3.142,23.322,23.322,0,0,1,6.058,3.094.035.035,0,0,1,0,.034c9.394.684,18.741,1.418,28.093,1.923,21.55.8,43.161,1.061,64.747,1.1l16.191-.085c2.7.005,5.4-.064,8.092-.115l8.09-.155,8.087-.149c2.7-.038,5.388-.168,8.082-.247l16.153-.531,16.12-.77c2.685-.135,5.375-.237,8.056-.4l8.036-.512,8.036-.505c2.675-.176,5.36-.309,8.025-.544l16.009-1.265,4-.313,3.984-.383,7.968-.762c5.31-.514,10.636-.968,15.905-1.608l15.848-1.776c5.259-.654,10.5-1.363,15.751-2.034,83.9-11.128,164.24-30.673,237.359-57.85,2.85-1.073,5.566-1.645,6.072-1.273s-1.36,1.506-3.983,2.436l-16.721,6.064-17.009,5.755c-1.42.476-2.816.976-4.254,1.432l-4.324,1.356-8.639,2.72c-2.886.9-5.733,1.839-8.645,2.707l-8.773,2.554c-23.364,6.834-47.221,13.065-71.677,18.362l.214-.023c2.133-.173,2.815.228.845,1.013a26.423,26.423,0,0,1-3.684,1.048,28.666,28.666,0,0,1-4.018.6c-2.484.151-2.553-.368-.859-1.008l-17.188,3.539c-5.765,1.116-11.574,2.154-17.354,3.244-5.76,1.132-11.641,2.027-17.473,3.016l-8.76,1.463c-2.922.483-5.885.878-8.825,1.323l-8.833,1.306c-2.945.434-5.88.9-8.855,1.253l-17.8,2.308c-11.929,1.35-23.845,2.771-35.872,3.827-48.008,4.6-96.76,6.511-145.453,6.573,22.587.527,45.167.533,67.7.17q33.789-.757,67.342-2.882l16.722-1.251c2.784-.222,5.581-.391,8.353-.653l8.317-.773,8.32-.768,4.161-.381,4.137-.452,16.547-1.816c2.769-.275,5.487-.68,8.233-1.016l8.22-1.05,8.224-1.045,8.157-1.2,8.163-1.19,4.083-.592,2.041-.3,2.023-.335,16.191-2.666,3.4-.819c1.13-.278,2.241-.588,3.362-.88l6.712-1.773,6.728-1.77c2.239-.6,4.521-1.146,6.741-1.8a26.081,26.081,0,0,1,7.187-.944c.934.2-.632,1.04-3.168,1.708-2.51.685-4.956,1.411-7.493,2.036,16.057-3.192,29.546-4.171,30.812-1.974.178.617-.468,1.4-1.8,2.279a34.405,34.405,0,0,1-6.021,2.775c-2.611.978-5.781,1.994-9.357,2.991-1.787.5-3.678.992-5.649,1.475-1.993.449-4.077.873-6.22,1.283-5.694,1.173-11.376,2.366-17.085,3.513l-17.277,3.166-4.322.789c-1.446.249-2.906.473-4.358.71l-8.729,1.4-8.73,1.4c-2.912.461-5.863.832-8.792,1.251-23.418,3.422-47.206,5.923-71.106,7.856-5.151.512-10.288,1.107-15.456,1.57l-15.5,2.044c37.576-1.577,75.031-4.6,111.884-9.308,36.818-4.777,73.022-11.178,108.117-19.171a77.01,77.01,0,0,1,8.061-1.523c2.2-.282,3.758-.277,4.118.094.736.716-3.507,2.706-9.566,4.146-30.177,8.407-61.64,15.556-93.992,21.343s-65.58,10.224-99.254,13.325c-67.383,6.216-136.384,7.083-204.539,3.8q-67.943,1.374-137.629-1.849l8.542,1.157,4.3.566,4.34.511a1372.3,1372.3,0,0,0,213.31,8.18c34.607-1.306,68.9-3.782,103.233-7.362,34.335-3.612,68.706-8.312,103.59-14.145,3.465-.644,6.554-.737,7.208-.4.573.349-1.624,1.131-5.2,1.686-34.081,5.922-67.23,10.758-100.788,14.526-33.55,3.749-67.52,6.442-103.063,7.672-29.447,1.021-58.229,1.152-86.457.785l-10.571-.135c-3.517-.048-7.006-.164-10.5-.24l-10.469-.249-5.224-.121-5.2-.175-20.725-.691-20.558-.861,20.7,1.653,20.718,1.321c3.439.229,6.9.4,10.355.555l10.354.484c3.45.148,6.883.335,10.339.444l10.356.317c27.588.813,55.127.981,82.639.254q41.256-1.037,82.308-4.2l20.513-1.722,20.479-2.042c1.707-.176,3.416-.329,5.119-.521l5.108-.6,10.222-1.189c3.4-.411,6.828-.754,10.222-1.217l10.2-1.355a79.525,79.525,0,0,1,12.816-1,5.535,5.535,0,0,1,2.465-.936c6.584-1.475,13.484-2.9,20.572-4.312,7.039-1.535,14.274-3.043,21.584-4.53a31.8,31.8,0,0,1,8.144-.917C5680.5,3817.065,5678.981,3817.772,5675.931,3818.564Zm-1797.18-27.048c-.789-.376-1.424-.712-2.02-1.011,2.351.857,4.889,1.689,7.7,2.654l1.172.72c1.179.712,3.513,2.18,8.283,5.04l-1.321-.618-3.455-1.681Zm-154.189-27.379.082.023-5.192-3.672Zm977.7-72.337c-3.99.1-7.989.249-11.981.371l-5.988.194-6,.272c-4,.19-7.992.342-11.988.563l-11.991.7c-4,.2-7.962.559-11.943.836l-11.925.882-11.79,1.059c-3.915.368-7.882.677-11.757,1.091-31.176,3.122-61.433,7.162-90.906,11.553l10.533-2.107c3.527-.69,7.123-1.338,10.683-2.006l10.721-1.98,10.9-1.861c22.994-3.036,46.6-5.505,70.68-7.193l18.174-1.063c3.021-.193,6.07-.292,9.109-.417l9.12-.354c6.076-.2,12.141-.3,18.207-.438C4690.177,3691.857,4696.229,3691.8,4702.267,3691.8Zm-910.283,63.02c5.783,2.622,10.784,5.144,15.3,7.542s8.592,4.795,12.508,7.075c4.4.944,8.839,1.983,13.294,3.073,4.45,1.06,8.916,2.194,13.366,3.394,23.915,6.352,47.044,12.207,69.817,17.368-2.318-1.718,3.139-.529,6.039-.129l8.823,1.377c-24.114-5.351-48.114-11.7-72.426-18.83C3836.778,3769.284,3812.612,3762.15,3791.984,3754.821Zm-183.218-46.469c-.657-.336-1.267-.634-2.037-.994l.8-.047,5.564-.306S3611.219,3707.557,3608.766,3708.351Zm-10.2.794,3.731,1.209A3.683,3.683,0,0,1,3598.569,3709.146Zm33.7,11.281a32.911,32.911,0,0,0-4.223-2.214Zm-15.685,54.739,19.748-4.521c-6.906,1.286-13.786,2.557-20.635,3.877Z" transform="translate(-3556.315 -3680)" fill="#222"/></g></g></g><rect width="2153" height="108" transform="translate(-2415 -906)" fill="#222"/></g></g></svg>