<?xml version="1.0" encoding="utf-8"?>
<!-- Generator: Adobe Illustrator 24.1.0, SVG Export Plug-In . SVG Version: 6.00 Build 0)  -->
<svg version="1.1" id="Layer_1" xmlns="http://www.w3.org/2000/svg" xmlns:xlink="http://www.w3.org/1999/xlink" x="0px" y="0px"
	 viewBox="0 0 1920 1080" style="enable-background:new 0 0 1920 1080;" xml:space="preserve">
<style type="text/css">
	.st0{fill:#EBEBE6;}
</style>
<g>
	<g>
		<path class="st0" d="M0,0v28.1c38,3.5,76.8,5.4,115.9,6c62,1,125-1.4,188.5-6.7c1.5-0.1,3-0.2,4.5-0.4h15.1
			C313.5,28,303,29,292.5,29.8c-11.4,1-22.9,1.8-34.4,2.7c-5.8,0.4-11.6,0.8-17.4,1.2c-2.9,0.2-5.8,0.4-8.7,0.6
			c-2.9,0.2-5.8,0.4-8.8,0.5c-32.2,2.1-62.8,3.7-92.8,4.7c-30.1,1-59.6,1.3-89.3,0.9l-14.1-0.9l-3.5-0.2L13,38.5
			c-4.3-0.3-8.7-0.6-13-1v13c3.9,0.3,7.9,0.5,11.8,0.7l9.5,0.6l9.5,0.4l9.5,0.4l4.8,0.2l4.8,0.2l19.1,0.6L88.2,54
			c61.3,1.7,122.7,0.1,184.1-3.9c-4.2,0.8-7.8,1.6-10.7,2.4c-2.9,0.8-5.1,1.5-6.5,2.3c0,0,0,0,0,0c-9.6,0.6-19.1,1.2-28.6,1.6
			c-21.9,0.8-43.8,1.1-65.8,1.2c-5.5,0-11,0-16.5,0h-4.1l-4.1,0l-8.2-0.1c-11-0.1-22-0.4-33-0.7c-2.8,0-5.5-0.2-8.2-0.3l-8.2-0.3
			l-8.2-0.3c-2.7-0.1-5.5-0.3-8.2-0.4c-5.5-0.3-11-0.5-16.5-0.8c-5.5-0.3-11-0.7-16.5-1c-2.7-0.2-5.5-0.3-8.2-0.5l-8.2-0.6L4.3,52
			l-4.1-0.3l-0.2,0v1.1c4.8,0.4,9.5,0.8,14.3,1.1l4.6,0.3c1.5,0.1,3.1,0.2,4.6,0.3l9.3,0.6c6.2,0.4,12.4,0.8,18.6,1.1
			c6.2,0.3,12.4,0.6,18.6,0.9c6.2,0.2,12.4,0.5,18.6,0.7c24.8,0.8,49.6,1.1,74.3,1C108.4,59.9,53.9,58.8,0,55.1v7.3l0.4,0l9.1,0.6
			c5.2,0.4,10.4,0.9,15.7,1.2c5.3,0.5,10.5,1,15.7,1.6C27.2,65.4,13.6,64.8,0,64v7.1c4.2,0.3,8.3,0.6,12.5,0.9
			c67.3,4.8,135.6,5.4,203.4,2.6c44.8,0.3,90-0.5,135.9-2.7c-5.7,0.6-11.4,1.3-17.2,1.8c-73.5,7.1-142.7,9.1-211,7.3
			c-34.2-0.9-68.1-2.7-102.2-5.4l-3.2-0.2l-3.2-0.3c-2.1-0.2-4.3-0.4-6.4-0.6C5.7,74.3,2.8,74,0,73.8v1.5c5.6,0.5,11.2,1,16.8,1.5
			c33.3,2.8,66.9,4.8,101.9,5.6c7.2,0.1,14.5,0.3,21.6,0.4c7.2,0.1,14.3,0.1,21.4,0.1c3.6,0,7.1,0,10.6,0c3.5,0,7,0,10.6-0.1
			c7,0,14-0.1,20.9-0.2c3.5-0.1,6.9-0.1,10.4-0.2c3.5-0.1,6.9-0.2,10.3-0.2c3.4-0.1,6.9-0.2,10.3-0.2c1.7,0,3.4-0.1,5.1-0.1
			c1.7-0.1,3.4-0.1,5.1-0.2c6.8-0.2,13.6-0.4,20.4-0.7c6.8-0.3,13.5-0.5,20.2-0.8c-27.3,2-54.6,3.3-81.7,4
			c-27.1,0.7-54.2,0.9-81.2,0.5c-27-0.4-54-1.5-80.9-3C27.9,80.8,14,79.8,0,78.7v3.2c4.2,0.4,8.3,0.8,12.5,1.2
			c1.7,0.2,3.4,0.3,5.1,0.5c1.7,0.1,3.4,0.3,5.1,0.4c3.4,0.3,6.8,0.5,10.2,0.8c27.3,2,55.2,3.3,83.2,4c28,0.6,56.3,0.5,84.5-0.1
			l10.6-0.2l5.3-0.1l5.3-0.2c7-0.2,14.1-0.5,21.1-0.8c7-0.3,14.1-0.6,21.1-1c7-0.3,14-0.8,21-1.1c0.8,0.3,2.4,0.6,5,0.8
			c4,0.3,9.9,0.3,16.8,0c3.5-0.2,7.2-0.4,11-0.6c3.8-0.3,7.8-0.7,11.8-1.1l12-1.5c6.1-0.7,12.1-1.4,18.2-2.2l9.1-1.1l9-1.2
			c6-0.8,12-1.5,18-2.3c6-0.8,12-1.6,18-2.4c3-0.4,6-0.8,9-1.3l8.9-1.3c6-0.9,11.9-1.7,17.8-2.6c5.9-0.9,11.9-1.8,17.8-2.8
			c5.8-0.9,11.6-1.8,17.4-2.8c9.7-0.8,20.9-2,32.9-3.6c40.7-4.2,81.1-8.3,122-12.1c-2.4,0.7-3.8,1.2-3.7,1.7
			c0.6,0.5,3.2,0.7,7.2,0.5c3.9-0.1,9-0.5,14.5-1.2c5.5-0.6,11-1.2,16.5-1.8c-15.7,2-31.4,4.1-47.1,6.4c-2.3,0.3-4.4,0.6-6.2,1
			c-17.4,2.3-35,4.6-53,7c-19.8,2.6-39.4,5.2-58.8,7.8c-9.8,1.3-19.6,2.6-29.4,3.8c-2.5,0.3-4.9,0.6-7.3,0.9c-2.5,0.3-5,0.6-7.5,0.9
			c-5,0.6-10,1.2-15,1.8c-5,0.6-10,1.2-15,1.8c-5,0.6-10,1.1-15,1.7c-5,0.5-10,1-15,1.6s-10,1.1-15,1.5c-10,0.9-19.9,1.9-29.9,2.7
			c-5,0.4-10,0.8-14.9,1.2c-5,0.4-10,0.7-15,1.1c-79.6,5.8-159.1,7.4-237.9,4.1c-2.6-0.2-6.6-0.3-8.9,0c-1.5,0.2-1.3,0.6,1.6,0.8
			c6.2,0.5,12.4,0.8,18.5,1.2c6.1,0.4,12.2,0.8,18.3,1.1c6.1,0.3,12.1,0.7,18.1,1c6,0.3,12,0.5,18,0.8c3,0.1,6,0.3,9,0.4
			c3,0.1,6,0.2,9,0.3c6,0.2,11.9,0.4,17.9,0.6c11.9,0.2,24,0.6,36.1,0.6c3,0,6.1,0,9.1,0.1c1.5,0,3,0,4.6,0c1.5,0,3,0,4.6,0
			c6.1,0,12.3-0.1,18.5-0.1c6.2-0.1,12.4-0.2,18.7-0.3c3.1-0.1,6.3-0.1,9.5-0.2c3.2-0.1,6.3-0.2,9.5-0.3c25.6-0.8,52.1-2.3,80-4.6
			c4.2-0.3,8.3-0.7,12.5-1c4.1-0.4,8.3-0.7,12.4-1.1l12.4-1.1c4.1-0.4,8.2-0.8,12.4-1.2c8.2-0.8,16.5-1.6,24.7-2.5
			c8.2-0.9,16.5-1.8,24.4-2.6c31.8-3.5,63.2-7.1,94.4-10.4c62.3-6.7,123.6-12.5,184.5-15.3c31.7-2.2,62.4-3.2,92.4-3
			c15,0.1,29.8,0.5,44.4,1.3c3.7,0.2,7.3,0.4,10.9,0.6l10.9,0.7l10.8,0.9l5.4,0.5c1.8,0.2,3.6,0.4,5.4,0.5l10.9,1.1
			c3.6,0.4,7.3,0.8,10.9,1.3l5.5,0.6c1.8,0.2,3.7,0.5,5.5,0.7c3.7,0.5,7.3,1,11,1.5c3.7,0.5,7.3,1.1,11,1.6l5.5,0.8
			c1.8,0.3,3.7,0.6,5.5,0.9c3.7,0.6,7.4,1.2,11.1,1.8c3.7,0.6,7.5,1.3,11.2,1.9c1.9,0.3,3.7,0.7,5.6,1c1.9,0.3,3.8,0.7,5.7,1
			c3.8,0.7,7.6,1.4,11.3,2.1c7.6,1.5,15.2,2.9,23,4.5c15.4,3.1,31.2,6.4,47.3,9.8c43.5,9.3,87.8,19.4,134,28.7
			c46.2,9.3,94.3,17.9,144.7,24.1c25.2,3.1,51,5.6,77.2,7.2l19.7,1.1c1.6,0.1,3.3,0.1,5.1,0.2l5.1,0.2l10.3,0.3
			c1.7,0.1,3.4,0.1,5.1,0.1l5.1,0.1l10.2,0.1c6.9,0.1,13.6,0,20.4-0.1c54.4-0.8,107.5-5.8,158-13.3c38.1-5.2,72.4-12.8,97.5-20
			c12.6-3.6,22.9-7,30.4-10.1c3.8-1.5,6.8-2.9,9.1-4.2c2.3-1.3,3.8-2.5,4.4-3.5c1.5-2.4-2.2-3.6-9.8-3.7c-7.7-0.2-19.3,0.8-34.2,2.6
			c5.6-1.2,11.2-2.4,16.7-3.7l12.9-3.3l12.8-3.3c24.2-6.3,43.8-12.8,55.4-17.9l6.7-2.8V0H0z M193.1,27.2c-2.5,0.1-5,0.1-7.6,0.2
			c-2.5,0-5,0.1-7.6,0.1c-5.1,0-10.1,0.1-15.2,0.2c-5.1,0-10.2,0-15.3,0c-2.6,0-5.1,0-7.7,0c-2.6,0-5.1-0.1-7.7-0.1
			c-5.2-0.1-10.3-0.1-15.6-0.2c-1.8,0-3.7-0.1-5.6-0.2h86.5C195.9,27.1,194.5,27.2,193.1,27.2z M1634.4,45.8c-1.5,0.2-3,0.5-4.5,0.7
			l-4.5,0.6c-0.7,0.1-1.3,0.1-2,0.2c2.2-0.5,4.5-1,6.7-1.5c2.2-0.5,4.4-1.1,6.6-1.6c3.1-0.5,6.2-1.1,9.4-1.6
			c27.1-3.6,52.8-8.7,78.2-14.4c1.6-0.4,3.1-0.7,4.7-1.1c18.4-4.2,36.7-8.8,55.5-13.6c1.2-0.2,2.5-0.3,3.7-0.5
			c4-0.6,8.1-1.1,12.3-1.8c5.1-0.8,10.3-1.6,15.6-2.5c-12.6,3.1-25.1,6.1-37.3,9c-13.5,3.2-26.7,6.4-39.6,9.4
			c-9.8,2.3-19.4,4.5-28.8,6.6c-23.2,4.6-46.6,8.5-70.1,11.5c1.1-0.3,2.2-0.6,3.2-0.9C1640.4,44.8,1637.4,45.3,1634.4,45.8z
			 M1814.7,26.6c-0.5,0.2-0.9,0.4-1.4,0.5c-4.7,1.8-9,3.5-13.2,5.2c-2.3,0.4-4.6,0.9-6.9,1.3c-2.3,0.5-4.7,0.9-7,1.4
			c-4.7,0.9-9.5,2-14.2,3c-25.6,5.5-50.5,10.5-75.1,14.8c2.9-1.3-3-0.3-6.1,0.1c-3.2,0.4-6.3,0.8-9.4,1.2
			c26.2-4.4,52.2-9.8,78.6-15.9c15.1-3.5,31.1-7.2,46.6-11.1c8.8-2.2,17.5-4.5,25.7-6.8C1825.6,22.6,1819.9,24.6,1814.7,26.6z"/>
	</g>
</g>
</svg>
