<svg xmlns="http://www.w3.org/2000/svg" viewBox="0 0 1920.1 141.09"><defs><style>.cls-1{fill:#ebebe6;}</style></defs><g id="Layer_2" data-name="Layer 2"><g id="Layer_1-2" data-name="Layer 1"><path class="cls-1" d="M1284.9,16c52.5,7.6,103.8,16.4,154.4,25.1,12.6,2.2,25.2,4.3,37.8,6.5l18.4,3.1,4.6.8,4.6.7,9.2,1.5c24.6,3.8,49.2,7.4,73.8,10.4,3.3.4,6.2.5,6.4.2s-2.3-.9-5.3-1.3c-24.7-3-49.2-6.5-73.7-10.3l-9.2-1.5-9.2-1.5-18.3-3.1c-12.6-2.2-25.1-4.3-37.7-6.5-50.4-8.7-101.6-17.5-154.2-25.1-3.5-.5-6.6-.6-7.1-.3C1279.2,15,1281.6,15.6,1284.9,16Z"/><path class="cls-1" d="M1920,130.9v1.7h.1C1920.1,132.1,1920,131.5,1920,130.9Zm0,5.7v3.7h.1v-3.7C1920.1,136.5,1920,136.6,1920,136.6ZM972.4,11.6q-34.2,2.1-67.7,6.2c-7.1,1.1-14.2,2.2-21.2,3.4L873,23c-3.5.6-7,1.2-10.5,1.9l10.9-1.5,10.9-1.5c7.3-.9,14.6-1.8,21.9-2.8l11-1.2c3.7-.4,7.3-.9,11.1-1.2l11.1-1.1L945,15l5.6-.5c29.8-2.6,60.2-4.4,90.4-4.9C1018.2,9.7,995.2,10.2,972.4,11.6Zm0,0q-34.2,2.1-67.7,6.2c-7.1,1.1-14.2,2.2-21.2,3.4L873,23c-3.5.6-7,1.2-10.5,1.9l10.9-1.5,10.9-1.5c7.3-.9,14.6-1.8,21.9-2.8l11-1.2c3.7-.4,7.3-.9,11.1-1.2l11.1-1.1L945,15l5.6-.5c29.8-2.6,60.2-4.4,90.4-4.9C1018.2,9.7,995.2,10.2,972.4,11.6Z"/><path class="cls-1" d="M0,41.2v4.1a45.76,45.76,0,0,0,10.2,1C7.2,44.6,3.7,42.9,0,41.2Zm1920,97h0c0-3.6.1,5.7.1,2v-3.7c0-1.3,0-2.6-.1-3.9a9.7,9.7,0,0,0-.1-1.7h0c0-1-.1-2.1-.2-3.1h.2v-8c-13.2.9-26.4,1.5-39.7,1.9,13.2-1.6,26.4-2.8,39.7-3.9v-8.3a1555.58,1555.58,0,0,1-161.6,4.1c53.9.1,108-1.9,161.6-6.9v-1.3c-35,3.3-70.2,5.3-105.4,6.2-54.8,1.4-113.1,4.3-165.7-7.8,90.3,5.1,180.9,7.3,271.1.4V89.3c-9.1.9-18.2,1.7-27.2,2.3-55.6,4.2-112.9.1-168.4-3.5q-89-5.85-177.2-16.3c-72.4-8.5-144-19.9-215.6-32.3a36.38,36.38,0,0,0,7.3-2.1c56.1,6.2,111.5,18.6,167.1,26.8,56.5,8.3,113.4,14.6,170.7,18.1,81,5,162.8,4.4,243.4-4V69.6c-69.6,7.5-140.1,9.5-210.2,7.1C1545,71,1387.6,33,1224.6,17.3c-88.2-8.5-176.7-14.1-265.4-6.8,75.2-8.5,152-7.4,227.4-2.5,25,1.6,56.2,8.9,80.8,5.8-18.4-8.9-53.7-7.1-74.9-8.8-28.8-2.3-57.8-3.9-86.7-4.6a1215.36,1215.36,0,0,0-136.3,4q-38.1,3.45-75.7,9.3c-38,5.9-76,9.6-114.1,15.2-60.8,9-121.2,22.6-179.8,38.7,9.5-1.7,18.9-3.7,28.3-5.5-46.3,11.1-89.6,21.7-137.6,27.2C389,100.8,292.9,93.1,195.4,67,148.1,54.3,101.8,38.9,56.5,22c1.7.6,3.4,1.3,5.1,1.9-11.6-3.8-23.1-7.8-35-10.8,1,.7,1.9,1.4,2.9,2.1Q15,10.25.1,5.6V37.9c.9.3,1.7.5,2.6.8,17.5,5.5,40.7,10.3,54,19.6C38.3,52.5,19.1,49.3.1,45.4v92.5M229.8,107c-3.1-.4-9-1.6-6.1-.1-24.6-5-49.5-10.7-75.1-17-4.8-1.1-9.5-2.3-14.2-3.4-2.4-.5-4.7-1.1-7-1.6s-4.7-1-6.9-1.5c-4.6-2.2-9.4-4.3-14.6-6.6S95,72.2,88.5,69.7c22.4,7.1,48.4,14.2,72.2,20.4,26.4,7,52.4,13.1,78.6,18.2C236.1,107.9,232.9,107.5,229.8,107Zm65.3-6.7-4.5-.7c-1.5-.2-3-.5-4.5-.8-3-.5-6-1.1-9-1.6,1.1.3,2.1.7,3.2,1-23.4-3.5-46.8-8-70.1-13.2-21.8-5.6-44.8-11.8-68.4-18.3-12.2-3.4-24.7-6.8-37.3-10.3,5.3,1,10.5,2,15.6,2.8,4.2.7,8.3,1.4,12.3,2l3.6.6h0c20.3,6,40.1,11.7,60.2,16.9,25.4,6.5,51.1,12.3,78.2,16.4,3.2.6,6.3,1.2,9.4,1.8,2.2.6,4.4,1.2,6.6,1.9l6.7,1.8A16.21,16.21,0,0,0,295.1,100.3ZM950.6,14.6l-5.6.5-5.6.6-11.1,1.1c-3.7.3-7.4.8-11.1,1.2l-11,1.2c-7.3.9-14.6,1.8-21.9,2.8l-10.9,1.5L862.5,25c3.5-.7,7-1.3,10.5-1.9l10.5-1.8c7-1.2,14.1-2.3,21.2-3.4q33.45-4,67.7-6.2c22.8-1.4,45.8-2,68.6-1.9C1010.8,10.2,980.4,12,950.6,14.6Z"/></g></g></svg>