<svg xmlns="http://www.w3.org/2000/svg" viewBox="0 0 1920.14 140.75"><g id="Layer_2" data-name="Layer 2"><g id="Layer_1-2" data-name="Layer 1"><path d="M0,40.91V45a40.64,40.64,0,0,0,10.23,1C7.2,44.29,3.74,42.59,0,40.91Zm1920,96.94h0c0-3.55.09,5.68.12,2,0-1.23,0-2.45,0-3.66s0-2.62-.06-3.91c0-.57,0-1.14-.07-1.7v0c0-1-.11-2.06-.19-3.07l.19,0v-8q-19.83,1.3-39.67,1.93c13.17-1.61,26.42-2.79,39.67-3.93v-8.27a1561.08,1561.08,0,0,1-161.6,4.12c53.95.07,108-1.92,161.6-6.86v-1.26q-52.53,4.92-105.43,6.2c-54.85,1.43-113.13,4.31-165.69-7.84,90.34,5.1,180.9,7.29,271.12.37V89.11q-13.61,1.31-27.24,2.33c-55.56,4.17-112.94.11-168.41-3.51q-88.9-5.79-177.24-16.26c-72.4-8.51-144-19.89-215.57-32.28a39.12,39.12,0,0,0,7.28-2.1c56,6.15,111.46,18.61,167.14,26.85,56.48,8.35,113.42,14.64,170.66,18.13,81,5,162.77,4.4,243.38-4V69.64c-69.64,7.52-140.08,9.54-210.25,7.1C1545,71,1387.52,33,1224.53,17.32c-88.19-8.48-176.71-14.11-265.36-6.81,75.16-8.53,152-7.42,227.41-2.51,25,1.63,56.16,8.9,80.78,5.78C1249,4.89,1213.69,6.69,1192.41,5c-28.83-2.28-57.76-3.89-86.71-4.6a1202.85,1202.85,0,0,0-136.27,4q-38.07,3.4-75.71,9.27c-38,5.86-76.05,9.57-114.09,15.19-60.84,9-121.2,22.57-179.79,38.73,9.48-1.69,18.89-3.65,28.34-5.48-46.34,11.07-89.64,21.75-137.6,27.19C388.94,100.84,292.87,93.15,195.42,67,148.08,54.27,101.86,38.87,56.49,22l5.08,1.92c-11.58-3.76-23.12-7.8-35-10.84,1,.67,1.93,1.37,2.87,2.06Q14.84,10.15,0,5.57v32.3l2.58.81c17.55,5.48,40.69,10.32,54,19.57C38.25,52.47,19,49.28,0,45.31v92.5m229.78-31.13c-3.06-.44-9-1.62-6.09-.09-24.6-5-49.51-10.69-75.11-17-4.76-1.14-9.51-2.33-14.22-3.4l-7-1.58q-3.5-.8-6.95-1.53c-4.61-2.15-9.37-4.29-14.61-6.58s-10.93-4.6-17.44-7.12c22.44,7.14,48.42,14.2,72.22,20.44,26.38,7,52.45,13.1,78.63,18.18C236.06,107.62,232.94,107.19,229.78,106.68Zm65.3-6.7-4.51-.7c-1.51-.25-3-.53-4.52-.78-3-.54-6-1.06-9-1.59l3.22,1c-23.44-3.51-46.82-8-70.05-13.19-21.82-5.58-44.76-11.76-68.45-18.27q-18.37-5.06-37.29-10.32,8,1.52,15.57,2.84c4.2.72,8.28,1.37,12.27,2l3.64.56h0c20.34,6,40.15,11.67,60.17,16.86a795,795,0,0,0,78.18,16.43c3.17.59,6.29,1.19,9.41,1.8l6.64,1.88,6.68,1.75C296.39,100.14,295.73,100.06,295.08,100Zm655.5-85.67-5.6.48-5.56.56-11.13,1.11c-3.72.35-7.38.82-11.06,1.22l-11.05,1.25-21.92,2.75-10.88,1.48c-3.63.49-7.27,1-10.86,1.5,3.46-.67,7-1.27,10.47-1.88L883.49,21c7-1.19,14.11-2.28,21.18-3.42,22.26-2.69,44.86-4.81,67.69-6.2s45.81-2,68.62-1.89C1010.79,9.92,980.42,11.68,950.58,14.31Z"/></g></g></svg>