<?xml version="1.0" encoding="utf-8"?>
<!-- Generator: Adobe Illustrator 24.0.3, SVG Export Plug-In . SVG Version: 6.00 Build 0)  -->
<svg version="1.1" id="Layer_1" xmlns="http://www.w3.org/2000/svg" xmlns:xlink="http://www.w3.org/1999/xlink" x="0px" y="0px"
	 viewBox="0 0 1921 958" style="enable-background:new 0 0 1921 958;" xml:space="preserve">
<style type="text/css">
	.st0{fill:#EBEBE6;}
	.st1{fill:#222222;}
	.st2{font-family:'Vollkorn-SemiBold';}
	.st3{font-size:80px;}
	.st4{font-size:250px;}
	.st5{font-family:'BarlowSemiCondensed-Light';}
	.st6{font-size:30px;}
</style>
<g id="Group_131" transform="translate(1637 19334)">
	<g id="Group_116" transform="translate(-1637 -19334)">
		<path id="Path_526" class="st0" d="M0.06,105.61c2.1,1.53,4.11,3.13,6.13,4.64c-2.86-0.74-5.64-1.73-8.32-2.96
			c-1.56-0.69-3.19-1.46-4.89-2.3s-3.51-1.74-5.33-2.7c16.78,11.18,35.01,21.97,53.62,32.14c18.63,10.16,37.8,19.64,56.72,28.08
			s37.51,15.77,55.07,21.76c4.38,1.48,8.69,2.89,12.95,4.23c4.24,1.31,8.37,2.51,12.44,3.66l6.03,1.67c1.98,0.52,3.93,1,5.86,1.47
			c3.85,0.94,7.61,1.81,11.25,2.6c9.4,4.47,18.7,7.72,26.02,9.09c3.08,0.68,6.24,1,9.39,0.94c2.5-0.16,4.33-0.74,5.26-1.77
			s0.88-2.43,0.01-4.05c-0.53-0.94-1.16-1.81-1.9-2.59c-0.95-1.05-1.98-2.03-3.06-2.95c-2.86-2.38-5.92-4.52-9.12-6.41
			c-3.63-2.17-7.9-4.56-12.54-6.74l-6.07-3.67c-1.8-1.08-3.53-2.26-5.18-3.55c-11.81-9.84-25.58-20.29-40.96-31.07
			c-3.87-2.73-7.82-5.46-11.86-8.21c-4.09-2.79-8.27-5.6-12.54-8.42c-4.23-2.79-8.7-5.72-13.16-8.59l-6.78-4.34l-7-4.42l20.82,15.63
			c-5.34-3.4-10.58-6.76-16.14-10.12c-5.62-3.39-11.39-6.69-17.81-9.96c0.92,1.54,2.24,3.27,3.13,4.8
			c-18.18-13.03-41.79-26.1-65.83-36.45c-5.93-2.59-12.05-4.99-17.96-7.19c-2.97-1.1-5.86-2.15-8.79-3.12s-5.84-1.9-8.67-2.75
			c-5.66-1.71-11.05-3.18-16.3-4.31c-5.19-1.15-10.03-2-14.43-2.54c-18.03-2.03-25.34,1.4-22.85,8.4c1.24,3.5,4.92,7.9,10.92,12.99
			c3.01,2.54,6.44,5.32,10.51,8.21c4.05,2.9,8.69,5.95,13.7,9.19C-11.67,97.82-5.68,101.68,0.06,105.61z"/>
		<path id="Path_527" class="st0" d="M62.78,169.93C40.68,155,19.17,140.23-3.26,125.59l-4.01-3.84l-1.79,8.05l0.69-0.25
			c3.16,0.54,6.53,1.25,10.08,2.1c3.5,0.87,7.16,1.88,10.97,3.02c7.65,2.26,15.67,5.05,24.02,8.15
			c16.59,6.2,34.14,13.69,50.53,20.88l11.91,4.69c5.89,1.8,10.21,2.21,12.1,1.26c2.19-1.06,1.22-3.65-2.1-6.97
			s-8.97-7.36-16.33-11.43l-17-9.34c-23.9-14.99-48.94-28.07-74.88-39.14c-12.76-5.47-25.89-10.05-39.28-13.73
			c-5.6-1.53-11.29-2.71-17.04-3.55c-4.6-0.74-9.26-1-13.91-0.78c-7.29,0.56-3.36,6.37-3.42,10.29c-0.95,1.06-0.63,2.56,0.75,4.38
			c2.01,2.42,4.35,4.54,6.95,6.31c3.83,2.7,7.81,5.18,11.93,7.42c4.61,2.61,9.86,5.27,15.56,7.84c5.65,2.61,11.16,4.92,16.36,6.81
			c4.65,1.75,9.38,3.25,14.19,4.52c8.49,2.13,14.55,2.48,16.47,0.42l10.79,6.41l-9.66-2.5c4.11-0.61,11.33,1.25,19.36,3.93
			c8.11,2.66,17.01,6.11,24.83,8.61l22.17,9.65l-6.58-17.25l-12.05-4.17c0.63,0.9,1.95,2.44,1.79,2.41
			c-23.1-7.7-45.3-14.83-71.16-24.31l-16.77-5.08c-2.78-0.85-5.61-1.67-8.46-2.48l-8.51-2.44c-9.67-1.59-10.15,2.04-1.52,8.12
			l6.56,4.3c2.19,1.43,4.36,2.87,6.48,4.33c-1.87-1.46-3.79-2.83-5.7-4.26c15.64,8.44,31.53,16.96,46.91,25.64
			c15.47,8.65,30.49,17.41,44.73,26.18c4.42,2.88,10.36,5.28,13.39,5.41C68.76,175.16,67.38,172.85,62.78,169.93z"/>
		<g id="Group_115" transform="translate(0 31.619)">
			<path id="Path_528" class="st0" d="M-47.88,87.65c-2.45-1.57-4.85-3.15-7.59-4.7c-3.16-1.73-6.44-3.23-9.81-4.5l-3.65-0.42
				l9.68,6.29C-52.34,88.86-48.14,89.46-47.88,87.65z"/>
			<path id="Path_529" class="st0" d="M-68.92,78.03l-4.05-2.63l2.5,2.29c0.87,0.26,0.9,0.26,0.9,0.26L-68.92,78.03z"/>
			<path id="Path_530" class="st0" d="M1305.27,83.26c26.55,7.02,52.48,14.61,78,22.37c25.46,7.78,50.54,15.76,75.18,23.64
				l36.73,11.71l17.47,5.4c5.8,1.83,11.61,3.49,17.42,5.18c11.62,3.46,23.26,6.53,34.9,9.68l17.48,4.42
				c2.91,0.76,5.83,1.43,8.75,2.11l8.75,2.04c3.13,0.73,5.88,0.76,6.2,0.02c0.29-0.63-1.99-1.85-4.89-2.47
				c-5.82-1.39-11.64-2.67-17.46-4.14l-17.43-4.43c-5.81-1.51-11.61-3.15-17.41-4.72c-5.8-1.54-11.59-3.25-17.38-4.94
				c-11.6-3.29-23.1-6.95-34.71-10.53l-36.63-11.69c-49.18-15.73-99.86-31.91-152.96-46.05c-3.6-0.88-6.71-1.04-7.37-0.44
				C1299.56,81.14,1301.94,82.37,1305.27,83.26z"/>
			<path id="Path_531" class="st0" d="M2028.11,156.31c-1.03,0.67-1.47,1.17-1.33,1.48s0.85,0.45,2.1,0.31
				c2.74-0.39,5.38-1.3,7.77-2.69c1.73-1.11,1.34-2.01-0.8-1.78C2033.13,154.02,2030.5,154.93,2028.11,156.31z"/>
			<path id="Path_532" class="st0" d="M2024.45,193.12c-14.31,2.99-27.94,5.85-40.09,8.62c-2.3,0.48-4.64,0.77-6.99,0.89
				c1.13,0.57-1.45,1.65-6.77,2.54c-6.53,1.12-13.12,2.24-19.76,3.34c-6.67,0.99-13.38,1.96-20.15,2.92
				c-1.69,0.23-3.38,0.5-5.08,0.7l-5.11,0.63l-10.27,1.24c-3.44,0.4-6.88,0.85-10.34,1.19l-10.41,1.03
				c-27.83,2.72-56.3,4.55-85,5.44s-57.61,0.91-86.45,0.26s-57.63-1.98-86.08-3.89c-1.67,0.71-3.45,1.13-5.26,1.22
				c-5.76,0.52-11.55,0.61-17.32,0.26c-3.53-0.16-7.33-0.39-11.22-0.75s-7.9-0.84-11.92-1.38l-12.06-1.84
				c-24.37-3.53-48.48-7.33-72.32-11.39c-5.96-1.02-11.86-2.1-17.79-3.16l-8.87-1.59l-8.81-1.67l-17.53-3.35l-16.9-3.35
				c-9.71-0.82-20.75-2.17-32.46-4.01c-40.08-4.58-79.61-9.04-119.07-13.1c2.23,0.84,3.46,1.63,3.15,2.26
				c-1.42,1.38-10.85,1.2-21.21-0.3c-5.25-0.66-10.5-1.38-15.7-2.01c14.83,2.32,29.73,4.84,44.61,7.53
				c2.17,0.36,4.15,0.76,5.92,1.18l50.86,8.02l57.15,8.99l28.78,4.46l7.22,1.1l7.4,1.1l15.07,2.2
				c40.18,5.79,80.58,10.39,121.21,13.8c81.09,6.86,163.14,8.55,244.15,3.91c3.06-0.33,6.15-0.35,9.21-0.05
				c1.61,0.33,1.36,0.85-1.61,1.12c-25.51,2.47-50.42,4.56-75.18,6.02l-9.3,0.59c-3.1,0.18-6.18,0.31-9.28,0.47
				c-6.19,0.3-12.39,0.62-18.6,0.89c-12.37,0.42-24.88,0.93-37.4,1.09l-9.45,0.16l-4.75,0.07l-4.74,0.02l-19.14,0.01
				c-6.42-0.04-12.85-0.16-19.36-0.27c-3.25-0.06-6.53-0.11-9.81-0.2l-9.85-0.32l-9.96-0.35c-3.34-0.12-6.7-0.25-10.05-0.43
				c-6.71-0.34-13.5-0.71-20.38-1.1c-13.67-0.9-27.73-1.89-42-3.25l-12.78-1.18l-12.69-1.29l-12.69-1.3l-12.6-1.41l-12.61-1.43
				l-12.53-1.52l-24.47-3.05c-31.48-3.98-62.21-7.96-92.37-11.64c-15.08-1.85-30.01-3.59-44.77-5.24
				c-14.79-1.65-29.42-3.17-43.9-4.55c-14.48-1.37-28.82-2.58-43.01-3.64c-14.16-1.02-28.16-1.84-42-2.47
				c-28.68-2.34-55.96-3.22-81.97-2.78c-3.23,0.08-6.5,0.11-9.69,0.23l-9.58,0.35l-9.44,0.51c-1.58,0.07-3.12,0.19-4.68,0.3
				l-4.65,0.33c-3.12,0.19-6.16,0.49-9.21,0.76l-4.58,0.4c-1.52,0.15-3.05,0.33-4.57,0.5l-9.13,0.99l-9.22,1.2l-4.61,0.59l-4.67,0.7
				l-9.34,1.39l-9.46,1.6l-4.73,0.79l-4.8,0.9l-9.61,1.78l-9.75,1.97l-4.89,0.99l-4.96,1.07l-9.94,2.15
				c-6.74,1.56-13.42,3.02-20.33,4.71c-3.44,0.83-6.85,1.62-10.34,2.49l-10.51,2.61c-14.15,3.57-28.58,7.31-43.68,11.36
				c-40.65,10.84-83.28,22.7-129.38,34.03c-46.05,11.31-96,22.11-150.59,30.01c-27.27,3.94-55.68,7.12-84.95,9.2l-11.02,0.73
				l-5.51,0.35c-0.89,0.06-1.9,0.1-2.88,0.15l-2.96,0.13l-11.85,0.49l-5.93,0.23c-1.98,0.07-3.96,0.16-5.92,0.17
				c-7.86,0.12-15.73,0.21-23.6,0.28c-7.8-0.08-15.6-0.19-23.4-0.34c-31.05-0.81-61.32-3.09-90.4-6.39
				c-29.09-3.3-56.99-7.62-83.72-12.56c-5.01-0.87-9.98-1.77-14.9-2.7c-4.85-0.95-9.55-1.95-14.23-2.95l-6.95-1.52
				c-2.3-0.51-4.48-1.06-6.69-1.59c-4.4-1.07-8.71-2.15-12.94-3.25c-4.22-1.09-8.18-2.24-12.11-3.36c-3.9-1.13-7.77-2.25-11.38-3.4
				s-7.09-2.29-10.45-3.43s-6.62-2.26-9.61-3.4c-6.02-2.26-11.55-4.47-16.34-6.61c-4.74-2.14-8.85-4.2-12.25-6.14
				c-2.81-1.53-5.45-3.35-7.88-5.43c-1.86-1.67-2.94-3.18-3.17-4.5c-0.44-3.19,4.09-4.92,12.41-5.35c2.08-0.11,4.4-0.13,6.94-0.07
				c2.57,0.05,5.37,0.18,8.38,0.39c6.02,0.41,12.78,1.15,20.45,2.13c-2.77-0.73-5.56-1.45-8.25-2.19l-8.1-2.23
				c-8.41-2.62-16.55-5.28-24.75-7.94c-23.08-7.62-40.94-15.35-50.89-21.69l-13.86-8.32c-4.13-3.24-9.19-6.67-14.61-10.16
				c-5.38-3.47-11.21-7.06-16.81-10.55c-2.81-1.75-5.6-3.5-8.29-5.23s-5.26-3.41-7.69-5.07s-4.7-3.3-6.74-4.89
				c-1.88-1.43-3.68-2.96-5.39-4.59l6.18-1.47l-3.63-1.93c-3.12-1.44-5.94-2.86-8.42-4.19s-4.63-2.6-6.43-3.81
				c-3.59-2.41-5.77-4.58-6.37-6.33l3.87-2.8c5.84-2.8,15.74-4.31,29.88-4.31c0.7-1.44,3.15-2.36,7.18-2.76
				c-7.18-5.95-9.23-10.6,1.74-12.17c-2.61-1.3-3.43-2.2-2.57-2.65s3.35-0.44,7.25,0.16c2.69,0.42,5.8,1.08,8.88,1.86
				c-0.02-0.01-0.04-0.02-0.06-0.03c-2.62-1.73-3.41-2.24-7.11-4.39l-9.11-3.07c-7.82-2.44-11.72-3.68-15.43-4.79l-13.96-4.27
				c-5.72-2.09-10.2-4.01-13.26-5.4l-3.51-1.63l-1.21-0.6c-9.77-9.03-9.9-9.06-5.97-11.02c1-0.05,2.09-0.07,3.23-0.06
				c-5.32-1.76-8.27-2.66-10.19-3.26l-4.3-1.38c-1.65-0.64-3.26-1.37-4.84-2.19c0.38-1.46,0.38-1.46-1.29-2.39
				c-0.18-0.38-0.11-0.82,0.17-1.13c7.46-0.05,7.47-0.05,7.93-0.44c1.81-0.06,4.15,0.09,4.15,0.09l8.68,1.38l3.67,0.62l11.88,6.34
				l1.68,0.93l4.29-0.33l2.49,2.49l-1-1.96l7.28,2.86l-8.12-3.53l16.97,4.82c3.19,0.9,5.05,1.37,8.77,2.3
				c3.8,1.08,7.34,1.98,10.06,2.63s4.61,1.04,5.01,1.13c-0.17-0.28-0.19-0.64-0.06-0.94c9.56,2.89,14.17,4.37,18.81,5.82l7.45,2.36
				l10.68,3.46c1.45,0.79,2.54,1.49,3.54,2.15c3.17,0.33,6.29,1.02,9.3,2.04l9.37,3l2.21,0.39c0.03-0.03,0.05-0.07,0.07-0.11
				l8.59,1.67l1.8,0.32c0.01,0.01,0.06,0.03,0.08,0.04l36.82,7.13c5.39,1.78,10.28,3.48,14.88,5.14c-1.38-0.66-2.69-1.29-3.94-1.93
				c-2.49-1.28,1.2-1.75-0.26-2.32C71.67,99.97,29.48,86.04-14.98,72.55c-8.36-1.99-15.51-4.75-15.96-6.09
				c-0.26-1.33,6.35-0.73,14.95,1.35c24.65,4.42,49.54,9.91,74.04,15.99s48.64,12.75,72.02,19.51s46.04,13.64,67.69,20.23
				c21.65,6.58,42.31,12.89,61.75,18.64c20.97,5.29,41.96,9.86,62.79,13.45c-0.91-0.35-1.83-0.75-2.72-1.13
				c2.66,0.64,5.29,1.11,7.94,1.66l7.94,1.62c0.58,0.1,1.17,0.21,1.74,0.27c-3.81-1.36-7.59-2.76-11.31-4.11
				c-1.36-0.32-2.7-0.6-4.08-0.95l-4.13-1.01c-23.51-4.25-46.76-9.83-69.63-16.72c-22.7-6.72-45.22-14.28-69.1-22.2
				c-25.7-8.55-47.18-17.48-72.16-26.74c-6.75-2.12-10.79-4.3-9.18-4.99c1.54-0.65,8.54,0.6,15.06,2.63
				c22.34,6,44.69,12.22,66.45,18.29s42.95,11.99,63.05,17.49s39.11,10.6,56.64,15.19s33.58,8.7,47.97,12.56
				c1.72,0.2,3.43,0.41,5.12,0.64c1.7,0.23,3.38,0.47,5.01,0.65c3.29,0.39,6.5,0.83,9.63,1.31l2.33,0.37l2.26,0.31
				c1.5,0.22,2.97,0.44,4.41,0.69s2.86,0.5,4.25,0.76c1.39,0.26,2.75,0.56,4.05,0.79l0.59,0.05l-1.99-0.61l-1.97-0.67l-3.94-1.33
				c2.48,0.29,4.67,0.68,6.67,1.04c1.99,0.33,3.83,0.69,5.65,1.07c3.85,0.9,7.76,1.56,11.7,1.98c-0.98-0.97-2.16-1.94-3.1-2.92
				l9.06,0.46l2.28,0.12l1.15,0.06l1.13,0.02l4.54,0.07l4.56,0.08c1.52,0.01,3.06,0.09,4.56,0.03l9.09-0.15
				c2.92,0.01,6.39-0.21,9.69-0.34l5-0.22l2.5-0.11c0.83-0.04,1.68-0.11,2.52-0.16l10.09-0.66l2.52-0.16l2.54-0.22l5.08-0.43
				c27.08-2.17,54.71-5.78,81.72-8.7l6.13-0.92c21.3-6.3,42.94-13.14,70.38-19.93l-14.17,2.84L603.79,126
				c18.89-5.58,38.16-11.12,60.25-16.42c29.9-7.21,63.41-14.41,95.26-19.7c3.98-0.66,7.91-1.29,11.78-1.89
				c3.86-0.6,7.78-1.16,11.55-1.69c3.79-0.53,7.48-1.03,11.13-1.48c3.68-0.45,7.26-0.85,10.75-1.23c3.5-0.37,6.83-0.72,10.16-1
				s6.52-0.52,9.58-0.72s6.01-0.36,8.8-0.47c2.83-0.1,5.53-0.15,8.07-0.16l12.46-2.56l12.68-2.45l6.35-1.22l6.46-1.16L892,71.53
				l13.15-2.16l6.59-1.07c2.2-0.35,4.46-0.67,6.68-1l13.41-1.96c4.5-0.63,9.08-1.19,13.62-1.78c9.03-1.23,18.36-2.17,27.59-3.19
				c2.3-0.27,4.65-0.47,7-0.68l7.03-0.64l7.04-0.63l3.52-0.31l3.54-0.26c18.88-1.48,37.75-2.36,56.51-2.86
				c18.75-0.48,37.43-0.59,55.86-0.24c18.44,0.33,36.68,1,54.72,2c18.04,0.97,35.79,2.29,53.35,3.78s34.88,3.21,51.93,5.11
				c7.09,0.73,13.07,2.17,14,3.15c0.39,0.91-4.51,1.11-11.5,0.34c-49-4.6-99.92-8.29-152.64-9.08c-13.15-0.24-26.44-0.2-39.76-0.07
				c-3.33,0.04-6.68,0.13-10.02,0.19c-3.35,0.08-6.67,0.11-10.04,0.24l-10.06,0.35c-1.68,0.06-3.35,0.11-5.03,0.18l-5.04,0.24
				l-10.09,0.49c-3.37,0.19-6.74,0.42-10.1,0.62c-3.37,0.23-6.73,0.4-10.1,0.68l-10.1,0.79c-13.44,1.15-26.86,2.47-39.99,4.07
				c22.14-2.04,44.98-3.39,67.53-4.04c22.58-0.65,45.05-0.61,67.3-0.03c44.51,1.17,88.03,4.57,130.58,9.11
				c5.42,0.52,10.9,1.01,16.32,1.57s10.88,1.1,16.27,1.7c10.7,1.16,21.1,2.72,31.33,4.46c26.35,3.56,51.89,7.46,76.85,11.5
				c24.98,4.03,49.44,8.19,73.66,12.29l36.22,6.09l9.02,1.49l4.51,0.74l4.34,0.69l17.41,2.74c23.3,3.5,46.92,6.63,71,9.27
				c10.29,1.04,20.4,2.16,30.4,3.01c5,0.44,9.96,0.93,14.9,1.33l14.73,1.15c4.89,0.41,9.75,0.71,14.6,1.02s9.67,0.65,14.48,0.93
				l14.4,0.74c2.39,0.12,4.79,0.26,7.17,0.36l7.16,0.27l14.3,0.53l14.28,0.32l7.15,0.16l7.15,0.05l14.34,0.1l14.39-0.12l7.23-0.07
				l7.24-0.18c4.83-0.13,9.7-0.22,14.58-0.38l14.69-0.61c51.82-2.28,103.43-8.1,154.47-17.39c24.15-4.44,47.66-9.6,70.84-15.5
				l8.67-2.26c2.89-0.75,5.82-1.47,8.65-2.3l8.6-2.42l4.32-1.2c1.44-0.4,2.9-0.78,4.3-1.23c5.68-1.73,11.4-3.44,17.16-5.14
				c5.65-1.84,11.35-3.66,17.09-5.47c1.51-0.49,2.97-1.03,4.45-1.51s2.94-0.93,4.38-1.34c2.88-0.82,5.65-1.5,8.17-1.99
				c5.07-0.95,8.97-1.38,10.69-0.7c1.72,0.65,0.88,2.2-1.89,4.18c-4.31,2.63-8.89,4.79-13.67,6.44
				c-49.02,18.33-99.6,32.19-151.12,41.41c-53.71,9.78-110.59,15.31-169.23,16.75c-58.65,1.47-118.96-1.12-179.74-7.07
				c-30.39-2.97-60.89-6.75-91.48-11.34c-7.63-1.18-15.29-2.33-22.94-3.56l-23.02-3.84c-15.84-2.73-31.84-5.53-48.01-8.4
				c-13.94-2.47-27.89-4.9-41.84-7.31c-13.95-2.41-27.96-4.76-42.02-7.06c0.23,0.34,0.44,0.67,0.3,0.96
				c-0.54,1.15-3.73,1.78-8.64,1.96c31.89,5.28,63.33,11.12,94.36,17.14l33.02,4.75l8.21,1.18l4.11,0.59l4,0.56l15.93,2.22
				c21.27,2.87,42.59,5.66,64.08,8.13l8.06,0.96c2.69,0.32,5.38,0.6,8.08,0.9l16.19,1.82c10.83,1.09,21.68,2.34,32.6,3.36l8.2,0.82
				l4.11,0.42l4.11,0.37l16.51,1.54l16.6,1.44l8.34,0.73l8.37,0.65c30.7,2.49,59.92,4.46,88.61,5.76s56.87,1.91,85.32,1.52
				c35.67-2.69,70.69-6.86,104.68-12.82l12.73-2.24c4.22-0.79,8.4-1.65,12.6-2.47c8.44-1.57,16.68-3.47,24.98-5.27
				c4.17-0.86,8.23-1.9,12.33-2.88l12.29-2.95l12.12-3.2c4.04-1.06,8.11-2.09,12.07-3.27c2.1-0.76,4.31-1.17,6.54-1.2
				c1.24,0.14,0.15,0.89-2.36,1.73c-21.39,7.1-43.96,13.46-67.47,18.98c-23.55,5.46-48.05,10.05-73.2,13.81
				c8.47,0.42,13.94,1.61,13.98,3.55c0.1,2.05-5.6,4.49-14.95,6.84c5.92-0.66,11.86-1.27,17.76-1.97l17.65-2.27
				c0.91-0.11,1.8-0.21,2.67-0.29s1.68-0.19,2.48-0.26c1.58-0.14,3.02-0.22,4.23-0.24c2.43-0.04,4,0.18,4.11,0.67
				c0.16,0.53-1.12,1.21-3.3,1.88c-2.87,0.84-5.8,1.45-8.77,1.8l-18.15,2.37c-6.08,0.71-12.19,1.36-18.27,2.04l-4.57,0.51
				c-1.53,0.15-3.06,0.28-4.6,0.43l-9.19,0.84l-9.19,0.83l-9.24,0.67c-12.3,0.98-24.68,1.6-37.05,2.23l-18.61,0.7
				c-1.55,0.07-3.1,0.11-4.66,0.13l-4.66,0.1l-9.33,0.2c-59.67,2.31-119.97,0.62-180.13-4.06c3.44,0.86,6.82,1.91,10.14,3.14
				c2.16,0.73,4.2,1.77,6.06,3.09c0.01,0.01,0.01,0.02,0,0.03c9.39,0.68,18.74,1.42,28.09,1.92c21.55,0.8,43.16,1.06,64.75,1.1
				l16.19-0.08c2.7,0,5.4-0.06,8.09-0.11l8.09-0.16l8.09-0.15c2.7-0.04,5.39-0.17,8.08-0.25l16.15-0.53l16.12-0.77
				c2.69-0.14,5.38-0.24,8.06-0.4l8.04-0.51l8.04-0.5c2.67-0.18,5.36-0.31,8.02-0.54l16.01-1.26l4-0.31l3.98-0.38l7.97-0.76
				c5.31-0.51,10.64-0.97,15.9-1.61l15.85-1.78c5.26-0.65,10.5-1.36,15.75-2.03c83.9-11.13,164.24-30.67,237.36-57.85
				c2.85-1.07,5.57-1.65,6.07-1.27s-1.36,1.51-3.98,2.44l-16.72,6.06l-17.01,5.75c-1.42,0.48-2.82,0.98-4.25,1.43l-4.32,1.36
				l-8.64,2.72c-2.89,0.9-5.73,1.84-8.65,2.71l-8.77,2.55c-23.36,6.83-47.22,13.06-71.68,18.36l0.21-0.02
				c2.13-0.17,2.81,0.23,0.85,1.01c-1.2,0.44-2.43,0.79-3.68,1.05c-1.32,0.29-2.67,0.5-4.02,0.6c-2.48,0.15-2.55-0.37-0.86-1.01
				l-17.19,3.54c-5.77,1.12-11.57,2.15-17.35,3.24c-5.76,1.13-11.64,2.03-17.47,3.02l-8.76,1.46c-2.92,0.48-5.88,0.88-8.83,1.32
				l-8.83,1.31c-2.94,0.43-5.88,0.9-8.85,1.25l-17.8,2.31c-11.93,1.35-23.85,2.77-35.87,3.83c-48.01,4.6-96.76,6.51-145.45,6.57
				c22.59,0.53,45.17,0.53,67.7,0.17c22.53-0.5,44.97-1.47,67.34-2.88l16.72-1.25c2.78-0.22,5.58-0.39,8.35-0.65l8.32-0.77
				l8.32-0.77l4.16-0.38l4.14-0.45l16.55-1.82c2.77-0.27,5.49-0.68,8.23-1.02l8.22-1.05l8.22-1.04l8.16-1.2l8.16-1.19l4.08-0.59
				l2.04-0.3l2.02-0.33l16.19-2.67l3.4-0.82c1.13-0.28,2.24-0.59,3.36-0.88l6.71-1.77l6.73-1.77c2.24-0.6,4.52-1.15,6.74-1.8
				c2.34-0.65,4.76-0.97,7.19-0.94c0.93,0.2-0.63,1.04-3.17,1.71c-2.51,0.69-4.96,1.41-7.49,2.04c16.06-3.19,29.55-4.17,30.81-1.97
				c0.18,0.62-0.47,1.4-1.8,2.28c-1.91,1.12-3.93,2.05-6.02,2.77c-2.61,0.98-5.78,1.99-9.36,2.99c-1.79,0.5-3.68,0.99-5.65,1.48
				c-1.99,0.45-4.08,0.87-6.22,1.28c-5.69,1.17-11.38,2.37-17.09,3.51l-17.28,3.17l-4.32,0.79c-1.45,0.25-2.91,0.47-4.36,0.71
				l-8.73,1.4l-8.73,1.4c-2.91,0.46-5.86,0.83-8.79,1.25c-23.42,3.42-47.21,5.92-71.11,7.86c-5.15,0.51-10.29,1.11-15.46,1.57
				l-15.5,2.04c37.58-1.58,75.03-4.6,111.88-9.31c36.82-4.78,73.02-11.18,108.12-19.17c2.66-0.65,5.35-1.16,8.06-1.52
				c2.2-0.28,3.76-0.28,4.12,0.09c0.74,0.72-3.51,2.71-9.57,4.15c-30.18,8.41-61.64,15.56-93.99,21.34s-65.58,10.22-99.25,13.32
				c-67.38,6.22-136.38,7.08-204.54,3.8c-45.3,0.92-91.17,0.3-137.63-1.85l8.54,1.16l4.3,0.57l4.34,0.51
				c70.78,8.26,142.1,11,213.31,8.18c34.61-1.31,68.9-3.78,103.23-7.36c34.33-3.61,68.71-8.31,103.59-14.15
				c3.46-0.64,6.55-0.74,7.21-0.4c0.57,0.35-1.62,1.13-5.2,1.69c-34.08,5.92-67.23,10.76-100.79,14.53
				c-33.55,3.75-67.52,6.44-103.06,7.67c-29.45,1.02-58.23,1.15-86.46,0.78l-10.57-0.14c-3.52-0.05-7.01-0.16-10.5-0.24l-10.47-0.25
				l-5.22-0.12l-5.2-0.18l-20.73-0.69l-20.56-0.86l20.7,1.65l20.72,1.32c3.44,0.23,6.9,0.4,10.35,0.55l10.35,0.48
				c3.45,0.15,6.88,0.33,10.34,0.44l10.36,0.32c27.59,0.81,55.13,0.98,82.64,0.25c27.5-0.69,54.94-2.09,82.31-4.2l20.51-1.72
				l20.48-2.04c1.71-0.18,3.42-0.33,5.12-0.52l5.11-0.6l10.22-1.19c3.4-0.41,6.83-0.75,10.22-1.22l10.2-1.35
				c4.24-0.68,8.52-1.01,12.82-1c0.73-0.51,1.58-0.83,2.46-0.94c6.58-1.48,13.48-2.9,20.57-4.31c7.04-1.53,14.27-3.04,21.58-4.53
				c2.66-0.66,5.4-0.96,8.14-0.92C2029.02,191.62,2027.5,192.33,2024.45,193.12z M227.27,166.07c-0.79-0.38-1.42-0.71-2.02-1.01
				c2.35,0.86,4.89,1.69,7.7,2.65l1.17,0.72c1.18,0.71,3.51,2.18,8.28,5.04l-1.32-0.62l-3.46-1.68L227.27,166.07z M73.08,138.69
				l0.08,0.02l-5.19-3.67L73.08,138.69z M1050.78,66.36c-3.99,0.1-7.99,0.25-11.98,0.37l-5.99,0.19l-6,0.27
				c-4,0.19-7.99,0.34-11.99,0.56l-11.99,0.7c-4,0.2-7.96,0.56-11.94,0.84l-11.92,0.88l-11.79,1.06c-3.92,0.37-7.88,0.68-11.76,1.09
				c-31.18,3.12-61.43,7.16-90.91,11.55l10.53-2.11c3.53-0.69,7.12-1.34,10.68-2.01l10.72-1.98l10.9-1.86
				c22.99-3.04,46.6-5.5,70.68-7.19l18.17-1.06c3.02-0.19,6.07-0.29,9.11-0.42l9.12-0.35c6.08-0.2,12.14-0.3,18.21-0.44
				C1038.7,66.41,1044.75,66.36,1050.78,66.36L1050.78,66.36z M140.5,129.38c5.78,2.62,10.78,5.14,15.3,7.54s8.59,4.79,12.51,7.07
				c4.4,0.94,8.84,1.98,13.29,3.07c4.45,1.06,8.92,2.19,13.37,3.39c23.92,6.35,47.04,12.21,69.82,17.37
				c-2.32-1.72,3.14-0.53,6.04-0.13l8.82,1.38c-24.11-5.35-48.11-11.7-72.43-18.83C185.3,143.84,161.13,136.71,140.5,129.38
				L140.5,129.38z M-42.72,82.91c-0.66-0.34-1.27-0.63-2.04-0.99l0.8-0.05l5.56-0.31C-38.39,81.56-40.26,82.11-42.72,82.91
				L-42.72,82.91z M-52.92,83.7l3.73,1.21C-50.56,85.26-52,84.79-52.92,83.7L-52.92,83.7z M-19.22,94.98
				c-1.35-0.84-2.76-1.58-4.22-2.21L-19.22,94.98z M-34.9,149.72l19.75-4.52c-6.91,1.29-13.79,2.56-20.64,3.88L-34.9,149.72z"/>
		</g>
	</g>
	<g id="Group_121" transform="translate(-1637 -18855.088)">
		<path id="Path_526-2" class="st0" d="M0.06,105.61c2.1,1.53,4.11,3.13,6.13,4.64c-2.86-0.74-5.64-1.73-8.32-2.96
			c-1.56-0.69-3.19-1.46-4.89-2.3s-3.51-1.74-5.33-2.7c16.78,11.18,35.01,21.97,53.62,32.14c18.63,10.16,37.8,19.64,56.72,28.08
			s37.51,15.77,55.07,21.76c4.38,1.48,8.69,2.89,12.95,4.23c4.24,1.31,8.37,2.51,12.44,3.66l6.03,1.67c1.98,0.52,3.93,1,5.86,1.47
			c3.85,0.94,7.61,1.81,11.25,2.6c9.4,4.47,18.7,7.72,26.02,9.09c3.08,0.68,6.24,1,9.39,0.94c2.5-0.16,4.33-0.74,5.26-1.77
			s0.88-2.43,0.01-4.05c-0.53-0.94-1.16-1.81-1.9-2.59c-0.95-1.05-1.98-2.03-3.06-2.95c-2.86-2.38-5.92-4.52-9.12-6.41
			c-3.63-2.17-7.9-4.56-12.54-6.74l-6.07-3.67c-1.8-1.08-3.53-2.26-5.18-3.55c-11.81-9.84-25.58-20.29-40.96-31.07
			c-3.87-2.73-7.82-5.46-11.86-8.21c-4.09-2.79-8.27-5.6-12.54-8.42c-4.23-2.79-8.7-5.72-13.16-8.59l-6.78-4.34l-7-4.42l20.82,15.63
			c-5.34-3.4-10.58-6.76-16.14-10.12c-5.62-3.39-11.39-6.69-17.81-9.96c0.92,1.54,2.24,3.27,3.13,4.8
			c-18.18-13.03-41.79-26.1-65.83-36.45c-5.93-2.59-12.05-4.99-17.96-7.19c-2.97-1.1-5.86-2.15-8.79-3.12s-5.84-1.9-8.67-2.75
			c-5.66-1.71-11.05-3.18-16.3-4.31c-5.19-1.15-10.03-2-14.43-2.54c-18.03-2.03-25.34,1.4-22.85,8.4c1.24,3.5,4.92,7.9,10.92,12.99
			c3.01,2.54,6.44,5.32,10.51,8.21c4.05,2.9,8.69,5.95,13.7,9.19C-11.67,97.82-5.68,101.68,0.06,105.61z"/>
		<path id="Path_527-2" class="st0" d="M62.78,169.93C40.68,155,19.17,140.23-3.26,125.59l-4.01-3.84l-1.79,8.05l0.69-0.25
			c3.16,0.54,6.53,1.25,10.08,2.1c3.5,0.87,7.16,1.88,10.97,3.02c7.65,2.26,15.67,5.05,24.02,8.15
			c16.59,6.2,34.14,13.69,50.53,20.88l11.91,4.69c5.89,1.8,10.21,2.21,12.1,1.26c2.19-1.06,1.22-3.65-2.1-6.97
			s-8.97-7.36-16.33-11.43l-17-9.34c-23.9-14.99-48.94-28.07-74.88-39.14c-12.76-5.47-25.89-10.05-39.28-13.73
			c-5.6-1.53-11.29-2.71-17.04-3.55c-4.6-0.74-9.26-1-13.91-0.78c-7.29,0.56-3.36,6.37-3.42,10.29c-0.95,1.06-0.63,2.56,0.75,4.38
			c2.01,2.42,4.35,4.54,6.95,6.31c3.83,2.7,7.81,5.18,11.93,7.42c4.61,2.61,9.86,5.27,15.56,7.84c5.65,2.61,11.16,4.92,16.36,6.81
			c4.65,1.75,9.38,3.25,14.19,4.52c8.49,2.13,14.55,2.48,16.47,0.42l10.79,6.41l-9.66-2.5c4.11-0.61,11.33,1.25,19.36,3.93
			c8.11,2.66,17.01,6.11,24.83,8.61l22.17,9.65l-6.58-17.25l-12.05-4.17c0.63,0.9,1.95,2.44,1.79,2.41
			c-23.1-7.7-45.3-14.83-71.16-24.31l-16.77-5.08c-2.78-0.85-5.61-1.67-8.46-2.48l-8.51-2.44c-9.67-1.59-10.15,2.04-1.52,8.12
			l6.56,4.3c2.19,1.43,4.36,2.87,6.48,4.33c-1.87-1.46-3.79-2.83-5.7-4.26c15.64,8.44,31.53,16.96,46.91,25.64
			c15.47,8.65,30.49,17.41,44.73,26.18c4.42,2.88,10.36,5.28,13.39,5.41C68.76,175.16,67.38,172.85,62.78,169.93z"/>
		<g id="Group_115-2" transform="translate(0 31.619)">
			<path id="Path_528-2" class="st0" d="M-47.88,87.65c-2.45-1.57-4.85-3.15-7.59-4.7c-3.16-1.73-6.44-3.23-9.81-4.5l-3.65-0.42
				l9.68,6.29C-52.34,88.86-48.14,89.46-47.88,87.65z"/>
			<path id="Path_529-2" class="st0" d="M-68.92,78.03l-4.05-2.63l2.5,2.29c0.87,0.26,0.9,0.26,0.9,0.26L-68.92,78.03z"/>
			<path id="Path_530-2" class="st0" d="M1305.27,83.26c26.55,7.02,52.48,14.61,78,22.37c25.46,7.78,50.54,15.76,75.18,23.64
				l36.73,11.71l17.47,5.4c5.8,1.83,11.61,3.49,17.42,5.18c11.62,3.46,23.26,6.53,34.9,9.68l17.48,4.42
				c2.91,0.76,5.83,1.43,8.75,2.11l8.75,2.04c3.13,0.73,5.88,0.76,6.2,0.02c0.29-0.63-1.99-1.85-4.89-2.47
				c-5.82-1.39-11.64-2.67-17.46-4.14l-17.43-4.43c-5.81-1.51-11.61-3.15-17.41-4.72c-5.8-1.54-11.59-3.25-17.38-4.94
				c-11.6-3.29-23.1-6.95-34.71-10.53l-36.63-11.69c-49.18-15.73-99.86-31.91-152.96-46.05c-3.6-0.88-6.71-1.04-7.37-0.44
				C1299.56,81.14,1301.94,82.37,1305.27,83.26z"/>
			<path id="Path_531-2" class="st0" d="M2028.11,156.31c-1.03,0.67-1.47,1.17-1.33,1.48s0.85,0.45,2.1,0.31
				c2.74-0.39,5.38-1.3,7.77-2.69c1.73-1.11,1.34-2.01-0.8-1.78C2033.13,154.02,2030.5,154.93,2028.11,156.31z"/>
			<path id="Path_532-2" class="st0" d="M2024.45,193.12c-14.31,2.99-27.94,5.85-40.09,8.62c-2.3,0.48-4.64,0.77-6.99,0.89
				c1.13,0.57-1.45,1.65-6.77,2.54c-6.53,1.12-13.12,2.24-19.76,3.34c-6.67,0.99-13.38,1.96-20.15,2.92
				c-1.69,0.23-3.38,0.5-5.08,0.7l-5.11,0.63l-10.27,1.24c-3.44,0.4-6.88,0.85-10.34,1.19l-10.41,1.03
				c-27.83,2.72-56.3,4.55-85,5.44s-57.61,0.91-86.45,0.26s-57.63-1.98-86.08-3.89c-1.67,0.71-3.45,1.13-5.26,1.22
				c-5.76,0.52-11.55,0.61-17.32,0.26c-3.53-0.16-7.33-0.39-11.22-0.75s-7.9-0.84-11.92-1.38l-12.06-1.84
				c-24.37-3.53-48.48-7.33-72.32-11.39c-5.96-1.02-11.86-2.1-17.79-3.16l-8.87-1.59l-8.81-1.67l-17.53-3.35l-16.9-3.35
				c-9.71-0.82-20.75-2.17-32.46-4.01c-40.08-4.58-79.61-9.04-119.07-13.1c2.23,0.84,3.46,1.63,3.15,2.26
				c-1.42,1.38-10.85,1.2-21.21-0.3c-5.25-0.66-10.5-1.38-15.7-2.01c14.83,2.32,29.73,4.84,44.61,7.53
				c2.17,0.36,4.15,0.76,5.92,1.18l50.86,8.02l57.15,8.99l28.78,4.46l7.22,1.1l7.4,1.1l15.07,2.2
				c40.18,5.79,80.58,10.39,121.21,13.8c81.09,6.86,163.14,8.55,244.15,3.91c3.06-0.33,6.15-0.35,9.21-0.05
				c1.61,0.33,1.36,0.85-1.61,1.12c-25.51,2.47-50.42,4.56-75.18,6.02l-9.3,0.59c-3.1,0.18-6.18,0.31-9.28,0.47
				c-6.19,0.3-12.39,0.62-18.6,0.89c-12.37,0.42-24.88,0.93-37.4,1.09l-9.45,0.16l-4.75,0.07l-4.74,0.02l-19.14,0.01
				c-6.42-0.04-12.85-0.16-19.36-0.27c-3.25-0.06-6.53-0.11-9.81-0.2l-9.85-0.32l-9.96-0.35c-3.34-0.12-6.7-0.25-10.05-0.43
				c-6.71-0.34-13.5-0.71-20.38-1.1c-13.67-0.9-27.73-1.89-42-3.25l-12.78-1.18l-12.69-1.29l-12.69-1.3l-12.6-1.41l-12.61-1.43
				l-12.53-1.52l-24.47-3.05c-31.48-3.98-62.21-7.96-92.37-11.64c-15.08-1.85-30.01-3.59-44.77-5.24
				c-14.79-1.65-29.42-3.17-43.9-4.55c-14.48-1.37-28.82-2.58-43.01-3.64c-14.16-1.02-28.16-1.84-42-2.47
				c-28.68-2.34-55.96-3.22-81.97-2.78c-3.23,0.08-6.5,0.11-9.69,0.23l-9.58,0.35l-9.44,0.51c-1.58,0.07-3.12,0.19-4.68,0.3
				l-4.65,0.33c-3.12,0.19-6.16,0.49-9.21,0.76l-4.58,0.4c-1.52,0.15-3.05,0.33-4.57,0.5l-9.13,0.99l-9.22,1.2l-4.61,0.59l-4.67,0.7
				l-9.34,1.39l-9.46,1.6l-4.73,0.79l-4.8,0.9l-9.61,1.78l-9.75,1.97l-4.89,0.99l-4.96,1.07l-9.94,2.15
				c-6.74,1.56-13.42,3.02-20.33,4.71c-3.44,0.83-6.85,1.62-10.34,2.49l-10.51,2.61c-14.15,3.57-28.58,7.31-43.68,11.36
				c-40.65,10.84-83.28,22.7-129.38,34.03c-46.05,11.31-96,22.11-150.59,30.01c-27.27,3.94-55.68,7.12-84.95,9.2l-11.02,0.73
				l-5.51,0.35c-0.89,0.06-1.9,0.1-2.88,0.15l-2.96,0.13l-11.85,0.49l-5.93,0.23c-1.98,0.07-3.96,0.16-5.92,0.17
				c-7.86,0.12-15.73,0.21-23.6,0.28c-7.8-0.08-15.6-0.19-23.4-0.34c-31.05-0.81-61.32-3.09-90.4-6.39
				c-29.09-3.3-56.99-7.62-83.72-12.56c-5.01-0.87-9.98-1.77-14.9-2.7c-4.85-0.95-9.55-1.95-14.23-2.95l-6.95-1.52
				c-2.3-0.51-4.48-1.06-6.69-1.59c-4.4-1.07-8.71-2.15-12.94-3.25c-4.22-1.09-8.18-2.24-12.11-3.36c-3.9-1.13-7.77-2.25-11.38-3.4
				s-7.09-2.29-10.45-3.43s-6.62-2.26-9.61-3.4c-6.02-2.26-11.55-4.47-16.34-6.61c-4.74-2.14-8.85-4.2-12.25-6.14
				c-2.81-1.53-5.45-3.35-7.88-5.43c-1.86-1.67-2.94-3.18-3.17-4.5c-0.44-3.19,4.09-4.92,12.41-5.35c2.08-0.11,4.4-0.13,6.94-0.07
				c2.57,0.05,5.37,0.18,8.38,0.39c6.02,0.41,12.78,1.15,20.45,2.13c-2.77-0.73-5.56-1.45-8.25-2.19l-8.1-2.23
				c-8.41-2.62-16.55-5.28-24.75-7.94c-23.08-7.62-40.94-15.35-50.89-21.69l-13.86-8.32c-4.13-3.24-9.19-6.67-14.61-10.16
				c-5.38-3.47-11.21-7.06-16.81-10.55c-2.81-1.75-5.6-3.5-8.29-5.23s-5.26-3.41-7.69-5.07s-4.7-3.3-6.74-4.89
				c-1.88-1.43-3.68-2.96-5.39-4.59l6.18-1.47l-3.63-1.93c-3.12-1.44-5.94-2.86-8.42-4.19s-4.63-2.6-6.43-3.81
				c-3.59-2.41-5.77-4.58-6.37-6.33l3.87-2.8c5.84-2.8,15.74-4.31,29.88-4.31c0.7-1.44,3.15-2.36,7.18-2.76
				c-7.18-5.95-9.23-10.6,1.74-12.17c-2.61-1.3-3.43-2.2-2.57-2.65s3.35-0.44,7.25,0.16c2.69,0.42,5.8,1.08,8.88,1.86
				c-0.02-0.01-0.04-0.02-0.06-0.03c-2.62-1.73-3.41-2.24-7.11-4.39l-9.11-3.07c-7.82-2.44-11.72-3.68-15.43-4.79l-13.96-4.27
				c-5.72-2.09-10.2-4.01-13.26-5.4l-3.51-1.63l-1.21-0.6c-9.77-9.03-9.9-9.06-5.97-11.02c1-0.05,2.09-0.07,3.23-0.06
				c-5.32-1.76-8.27-2.66-10.19-3.26l-4.3-1.38c-1.65-0.64-3.26-1.37-4.84-2.19c0.38-1.46,0.38-1.46-1.29-2.39
				c-0.18-0.38-0.11-0.82,0.17-1.13c7.46-0.05,7.47-0.05,7.93-0.44c1.81-0.06,4.15,0.09,4.15,0.09l8.68,1.38l3.67,0.62l11.88,6.34
				l1.68,0.93l4.29-0.33l2.49,2.49l-1-1.96l7.28,2.86l-8.12-3.53l16.97,4.82c3.19,0.9,5.05,1.37,8.77,2.3
				c3.8,1.08,7.34,1.98,10.06,2.63s4.61,1.04,5.01,1.13c-0.17-0.28-0.19-0.64-0.06-0.94c9.56,2.89,14.17,4.37,18.81,5.82l7.45,2.36
				l10.68,3.46c1.45,0.79,2.54,1.49,3.54,2.15c3.17,0.33,6.29,1.02,9.3,2.04l9.37,3l2.21,0.39c0.03-0.03,0.05-0.07,0.07-0.11
				l8.59,1.67l1.8,0.32c0.01,0.01,0.06,0.03,0.08,0.04l36.82,7.13c5.39,1.78,10.28,3.48,14.88,5.14c-1.38-0.66-2.69-1.29-3.94-1.93
				c-2.49-1.28,1.2-1.75-0.26-2.32C71.67,99.97,29.48,86.04-14.98,72.55c-8.36-1.99-15.51-4.75-15.96-6.09
				c-0.26-1.33,6.35-0.73,14.95,1.35c24.65,4.42,49.54,9.91,74.04,15.99s48.64,12.75,72.02,19.51s46.04,13.64,67.69,20.23
				c21.65,6.58,42.31,12.89,61.75,18.64c20.97,5.29,41.96,9.86,62.79,13.45c-0.91-0.35-1.83-0.75-2.72-1.13
				c2.66,0.64,5.29,1.11,7.94,1.66l7.94,1.62c0.58,0.1,1.17,0.21,1.74,0.27c-3.81-1.36-7.59-2.76-11.31-4.11
				c-1.36-0.32-2.7-0.6-4.08-0.95l-4.13-1.01c-23.51-4.25-46.76-9.83-69.63-16.72c-22.7-6.72-45.22-14.28-69.1-22.2
				c-25.7-8.55-47.18-17.48-72.16-26.74c-6.75-2.12-10.79-4.3-9.18-4.99c1.54-0.65,8.54,0.6,15.06,2.63
				c22.34,6,44.69,12.22,66.45,18.29s42.95,11.99,63.05,17.49s39.11,10.6,56.64,15.19s33.58,8.7,47.97,12.56
				c1.72,0.2,3.43,0.41,5.12,0.64c1.7,0.23,3.38,0.47,5.01,0.65c3.29,0.39,6.5,0.83,9.63,1.31l2.33,0.37l2.26,0.31
				c1.5,0.22,2.97,0.44,4.41,0.69s2.86,0.5,4.25,0.76c1.39,0.26,2.75,0.56,4.05,0.79l0.59,0.05l-1.99-0.61l-1.97-0.67l-3.94-1.33
				c2.48,0.29,4.67,0.68,6.67,1.04c1.99,0.33,3.83,0.69,5.65,1.07c3.85,0.9,7.76,1.56,11.7,1.98c-0.98-0.97-2.16-1.94-3.1-2.92
				l9.06,0.46l2.28,0.12l1.15,0.06l1.13,0.02l4.54,0.07l4.56,0.08c1.52,0.01,3.06,0.09,4.56,0.03l9.09-0.15
				c2.92,0.01,6.39-0.21,9.69-0.34l5-0.22l2.5-0.11c0.83-0.04,1.68-0.11,2.52-0.16l10.09-0.66l2.52-0.16l2.54-0.22l5.08-0.43
				c27.08-2.17,54.71-5.78,81.72-8.7l6.13-0.92c21.3-6.3,42.94-13.14,70.38-19.93l-14.17,2.84L603.79,126
				c18.89-5.58,38.16-11.12,60.25-16.42c29.9-7.21,63.41-14.41,95.26-19.7c3.98-0.66,7.91-1.29,11.78-1.89
				c3.86-0.6,7.78-1.16,11.55-1.69c3.79-0.53,7.48-1.03,11.13-1.48c3.68-0.45,7.26-0.85,10.75-1.23c3.5-0.37,6.83-0.72,10.16-1
				s6.52-0.52,9.58-0.72s6.01-0.36,8.8-0.47c2.83-0.1,5.53-0.15,8.07-0.16l12.46-2.56l12.68-2.45l6.35-1.22l6.46-1.16L892,71.53
				l13.15-2.16l6.59-1.07c2.2-0.35,4.46-0.67,6.68-1l13.41-1.96c4.5-0.63,9.08-1.19,13.62-1.78c9.03-1.23,18.36-2.17,27.59-3.19
				c2.3-0.27,4.65-0.47,7-0.68l7.03-0.64l7.04-0.63l3.52-0.31l3.54-0.26c18.88-1.48,37.75-2.36,56.51-2.86
				c18.75-0.48,37.43-0.59,55.86-0.24c18.44,0.33,36.68,1,54.72,2c18.04,0.97,35.79,2.29,53.35,3.78s34.88,3.21,51.93,5.11
				c7.09,0.73,13.07,2.17,14,3.15c0.39,0.91-4.51,1.11-11.5,0.34c-49-4.6-99.92-8.29-152.64-9.08c-13.15-0.24-26.44-0.2-39.76-0.07
				c-3.33,0.04-6.68,0.13-10.02,0.19c-3.35,0.08-6.67,0.11-10.04,0.24l-10.06,0.35c-1.68,0.06-3.35,0.11-5.03,0.18l-5.04,0.24
				l-10.09,0.49c-3.37,0.19-6.74,0.42-10.1,0.62c-3.37,0.23-6.73,0.4-10.1,0.68l-10.1,0.79c-13.44,1.15-26.86,2.47-39.99,4.07
				c22.14-2.04,44.98-3.39,67.53-4.04c22.58-0.65,45.05-0.61,67.3-0.03c44.51,1.17,88.03,4.57,130.58,9.11
				c5.42,0.52,10.9,1.01,16.32,1.57s10.88,1.1,16.27,1.7c10.7,1.16,21.1,2.72,31.33,4.46c26.35,3.56,51.89,7.46,76.85,11.5
				c24.98,4.03,49.44,8.19,73.66,12.29l36.22,6.09l9.02,1.49l4.51,0.74l4.34,0.69l17.41,2.74c23.3,3.5,46.92,6.63,71,9.27
				c10.29,1.04,20.4,2.16,30.4,3.01c5,0.44,9.96,0.93,14.9,1.33l14.73,1.15c4.89,0.41,9.75,0.71,14.6,1.02s9.67,0.65,14.48,0.93
				l14.4,0.74c2.39,0.12,4.79,0.26,7.17,0.36l7.16,0.27l14.3,0.53l14.28,0.32l7.15,0.16l7.15,0.05l14.34,0.1l14.39-0.12l7.23-0.07
				l7.24-0.18c4.83-0.13,9.7-0.22,14.58-0.38l14.69-0.61c51.82-2.28,103.43-8.1,154.47-17.39c24.15-4.44,47.66-9.6,70.84-15.5
				l8.67-2.26c2.89-0.75,5.82-1.47,8.65-2.3l8.6-2.42l4.32-1.2c1.44-0.4,2.9-0.78,4.3-1.23c5.68-1.73,11.4-3.44,17.16-5.14
				c5.65-1.84,11.35-3.66,17.09-5.47c1.51-0.49,2.97-1.03,4.45-1.51s2.94-0.93,4.38-1.34c2.88-0.82,5.65-1.5,8.17-1.99
				c5.07-0.95,8.97-1.38,10.69-0.7c1.72,0.65,0.88,2.2-1.89,4.18c-4.31,2.63-8.89,4.79-13.67,6.44
				c-49.02,18.33-99.6,32.19-151.12,41.41c-53.71,9.78-110.59,15.31-169.23,16.75c-58.65,1.47-118.96-1.12-179.74-7.07
				c-30.39-2.97-60.89-6.75-91.48-11.34c-7.63-1.18-15.29-2.33-22.94-3.56l-23.02-3.84c-15.84-2.73-31.84-5.53-48.01-8.4
				c-13.94-2.47-27.89-4.9-41.84-7.31c-13.95-2.41-27.96-4.76-42.02-7.06c0.23,0.34,0.44,0.67,0.3,0.96
				c-0.54,1.15-3.73,1.78-8.64,1.96c31.89,5.28,63.33,11.12,94.36,17.14l33.02,4.75l8.21,1.18l4.11,0.59l4,0.56l15.93,2.22
				c21.27,2.87,42.59,5.66,64.08,8.13l8.06,0.96c2.69,0.32,5.38,0.6,8.08,0.9l16.19,1.82c10.83,1.09,21.68,2.34,32.6,3.36l8.2,0.82
				l4.11,0.42l4.11,0.37l16.51,1.54l16.6,1.44l8.34,0.73l8.37,0.65c30.7,2.49,59.92,4.46,88.61,5.76s56.87,1.91,85.32,1.52
				c35.67-2.69,70.69-6.86,104.68-12.82l12.73-2.24c4.22-0.79,8.4-1.65,12.6-2.47c8.44-1.57,16.68-3.47,24.98-5.27
				c4.17-0.86,8.23-1.9,12.33-2.88l12.29-2.95l12.12-3.2c4.04-1.06,8.11-2.09,12.07-3.27c2.1-0.76,4.31-1.17,6.54-1.2
				c1.24,0.14,0.15,0.89-2.36,1.73c-21.39,7.1-43.96,13.46-67.47,18.98c-23.55,5.46-48.05,10.05-73.2,13.81
				c8.47,0.42,13.94,1.61,13.98,3.55c0.1,2.05-5.6,4.49-14.95,6.84c5.92-0.66,11.86-1.27,17.76-1.97l17.65-2.27
				c0.91-0.11,1.8-0.21,2.67-0.29s1.68-0.19,2.48-0.26c1.58-0.14,3.02-0.22,4.23-0.24c2.43-0.04,4,0.18,4.11,0.67
				c0.16,0.53-1.12,1.21-3.3,1.88c-2.87,0.84-5.8,1.45-8.77,1.8l-18.15,2.37c-6.08,0.71-12.19,1.36-18.27,2.04l-4.57,0.51
				c-1.53,0.15-3.06,0.28-4.6,0.43l-9.19,0.84l-9.19,0.83l-9.24,0.67c-12.3,0.98-24.68,1.6-37.05,2.23l-18.61,0.7
				c-1.55,0.07-3.1,0.11-4.66,0.13l-4.66,0.1l-9.33,0.2c-59.67,2.31-119.97,0.62-180.13-4.06c3.44,0.86,6.82,1.91,10.14,3.14
				c2.16,0.73,4.2,1.77,6.06,3.09c0.01,0.01,0.01,0.02,0,0.03c9.39,0.68,18.74,1.42,28.09,1.92c21.55,0.8,43.16,1.06,64.75,1.1
				l16.19-0.08c2.7,0,5.4-0.06,8.09-0.11l8.09-0.16l8.09-0.15c2.7-0.04,5.39-0.17,8.08-0.25l16.15-0.53l16.12-0.77
				c2.69-0.14,5.38-0.24,8.06-0.4l8.04-0.51l8.04-0.5c2.67-0.18,5.36-0.31,8.02-0.54l16.01-1.26l4-0.31l3.98-0.38l7.97-0.76
				c5.31-0.51,10.64-0.97,15.9-1.61l15.85-1.78c5.26-0.65,10.5-1.36,15.75-2.03c83.9-11.13,164.24-30.67,237.36-57.85
				c2.85-1.07,5.57-1.65,6.07-1.27s-1.36,1.51-3.98,2.44l-16.72,6.06l-17.01,5.75c-1.42,0.48-2.82,0.98-4.25,1.43l-4.32,1.36
				l-8.64,2.72c-2.89,0.9-5.73,1.84-8.65,2.71l-8.77,2.55c-23.36,6.83-47.22,13.06-71.68,18.36l0.21-0.02
				c2.13-0.17,2.81,0.23,0.85,1.01c-1.2,0.44-2.43,0.79-3.68,1.05c-1.32,0.29-2.67,0.5-4.02,0.6c-2.48,0.15-2.55-0.37-0.86-1.01
				l-17.19,3.54c-5.77,1.12-11.57,2.15-17.35,3.24c-5.76,1.13-11.64,2.03-17.47,3.02l-8.76,1.46c-2.92,0.48-5.88,0.88-8.83,1.32
				l-8.83,1.31c-2.94,0.43-5.88,0.9-8.85,1.25l-17.8,2.31c-11.93,1.35-23.85,2.77-35.87,3.83c-48.01,4.6-96.76,6.51-145.45,6.57
				c22.59,0.53,45.17,0.53,67.7,0.17c22.53-0.5,44.97-1.47,67.34-2.88l16.72-1.25c2.78-0.22,5.58-0.39,8.35-0.65l8.32-0.77
				l8.32-0.77l4.16-0.38l4.14-0.45l16.55-1.82c2.77-0.27,5.49-0.68,8.23-1.02l8.22-1.05l8.22-1.04l8.16-1.2l8.16-1.19l4.08-0.59
				l2.04-0.3l2.02-0.33l16.19-2.67l3.4-0.82c1.13-0.28,2.24-0.59,3.36-0.88l6.71-1.77l6.73-1.77c2.24-0.6,4.52-1.15,6.74-1.8
				c2.34-0.65,4.76-0.97,7.19-0.94c0.93,0.2-0.63,1.04-3.17,1.71c-2.51,0.69-4.96,1.41-7.49,2.04c16.06-3.19,29.55-4.17,30.81-1.97
				c0.18,0.62-0.47,1.4-1.8,2.28c-1.91,1.12-3.93,2.05-6.02,2.77c-2.61,0.98-5.78,1.99-9.36,2.99c-1.79,0.5-3.68,0.99-5.65,1.48
				c-1.99,0.45-4.08,0.87-6.22,1.28c-5.69,1.17-11.38,2.37-17.09,3.51l-17.28,3.17l-4.32,0.79c-1.45,0.25-2.91,0.47-4.36,0.71
				l-8.73,1.4l-8.73,1.4c-2.91,0.46-5.86,0.83-8.79,1.25c-23.42,3.42-47.21,5.92-71.11,7.86c-5.15,0.51-10.29,1.11-15.46,1.57
				l-15.5,2.04c37.58-1.58,75.03-4.6,111.88-9.31c36.82-4.78,73.02-11.18,108.12-19.17c2.66-0.65,5.35-1.16,8.06-1.52
				c2.2-0.28,3.76-0.28,4.12,0.09c0.74,0.72-3.51,2.71-9.57,4.15c-30.18,8.41-61.64,15.56-93.99,21.34s-65.58,10.22-99.25,13.32
				c-67.38,6.22-136.38,7.08-204.54,3.8c-45.3,0.92-91.17,0.3-137.63-1.85l8.54,1.16l4.3,0.57l4.34,0.51
				c70.78,8.26,142.1,11,213.31,8.18c34.61-1.31,68.9-3.78,103.23-7.36c34.33-3.61,68.71-8.31,103.59-14.15
				c3.46-0.64,6.55-0.74,7.21-0.4c0.57,0.35-1.62,1.13-5.2,1.69c-34.08,5.92-67.23,10.76-100.79,14.53
				c-33.55,3.75-67.52,6.44-103.06,7.67c-29.45,1.02-58.23,1.15-86.46,0.78l-10.57-0.14c-3.52-0.05-7.01-0.16-10.5-0.24l-10.47-0.25
				l-5.22-0.12l-5.2-0.18l-20.73-0.69l-20.56-0.86l20.7,1.65l20.72,1.32c3.44,0.23,6.9,0.4,10.35,0.55l10.35,0.48
				c3.45,0.15,6.88,0.33,10.34,0.44l10.36,0.32c27.59,0.81,55.13,0.98,82.64,0.25c27.5-0.69,54.94-2.09,82.31-4.2l20.51-1.72
				l20.48-2.04c1.71-0.18,3.42-0.33,5.12-0.52l5.11-0.6l10.22-1.19c3.4-0.41,6.83-0.75,10.22-1.22l10.2-1.35
				c4.24-0.68,8.52-1.01,12.82-1c0.73-0.51,1.58-0.83,2.46-0.94c6.58-1.48,13.48-2.9,20.57-4.31c7.04-1.53,14.27-3.04,21.58-4.53
				c2.66-0.66,5.4-0.96,8.14-0.92C2029.02,191.62,2027.5,192.33,2024.45,193.12z M227.27,166.07c-0.79-0.38-1.42-0.71-2.02-1.01
				c2.35,0.86,4.89,1.69,7.7,2.65l1.17,0.72c1.18,0.71,3.51,2.18,8.28,5.04l-1.32-0.62l-3.46-1.68L227.27,166.07z M73.08,138.69
				l0.08,0.02l-5.19-3.67L73.08,138.69z M1050.78,66.36c-3.99,0.1-7.99,0.25-11.98,0.37l-5.99,0.19l-6,0.27
				c-4,0.19-7.99,0.34-11.99,0.56l-11.99,0.7c-4,0.2-7.96,0.56-11.94,0.84l-11.92,0.88l-11.79,1.06c-3.92,0.37-7.88,0.68-11.76,1.09
				c-31.18,3.12-61.43,7.16-90.91,11.55l10.53-2.11c3.53-0.69,7.12-1.34,10.68-2.01l10.72-1.98l10.9-1.86
				c22.99-3.04,46.6-5.5,70.68-7.19l18.17-1.06c3.02-0.19,6.07-0.29,9.11-0.42l9.12-0.35c6.08-0.2,12.14-0.3,18.21-0.44
				C1038.7,66.41,1044.75,66.36,1050.78,66.36L1050.78,66.36z M140.5,129.38c5.78,2.62,10.78,5.14,15.3,7.54s8.59,4.79,12.51,7.07
				c4.4,0.94,8.84,1.98,13.29,3.07c4.45,1.06,8.92,2.19,13.37,3.39c23.92,6.35,47.04,12.21,69.82,17.37
				c-2.32-1.72,3.14-0.53,6.04-0.13l8.82,1.38c-24.11-5.35-48.11-11.7-72.43-18.83C185.3,143.84,161.13,136.71,140.5,129.38
				L140.5,129.38z M-42.72,82.91c-0.66-0.34-1.27-0.63-2.04-0.99l0.8-0.05l5.56-0.31C-38.39,81.56-40.26,82.11-42.72,82.91
				L-42.72,82.91z M-52.92,83.7l3.73,1.21C-50.56,85.26-52,84.79-52.92,83.7L-52.92,83.7z M-19.22,94.98
				c-1.35-0.84-2.76-1.58-4.22-2.21L-19.22,94.98z M-34.9,149.72l19.75-4.52c-6.91,1.29-13.79,2.56-20.64,3.88L-34.9,149.72z"/>
		</g>
	</g>
	<rect id="Rectangle_1495" x="-1636.17" y="-19138.44" class="st0" width="1920" height="479"/>
</g>
<text transform="matrix(1 0 0 1 241.6159 373.6625)" class="st1 st2 st3">This quote says some cool and insightful </text>
<text transform="matrix(1 0 0 1 241.6159 463.6625)" class="st1 st2 st3">things about the text that surrounds it. The </text>
<text transform="matrix(1 0 0 1 241.6159 553.6625)" class="st1 st2 st3">reader is inspired by this.</text>
<text transform="matrix(1 0 0 1 95.8349 423.5575)" class="st1 st2 st4">“</text>
<text transform="matrix(1 0 0 1 1735.8348 702.5575)" class="st1 st2 st4">”</text>
<text transform="matrix(1 0 0 1 257.5299 643.5575)" class="st5 st6">Name of Person, other things that describe them also</text>
</svg>
