<svg xmlns="http://www.w3.org/2000/svg" viewBox="0 0 1921.98 694.04"><defs><style>.cls-1{fill:#2ea294;}.cls-2{fill:#222;}</style></defs><title>Animated Wave Sketches with Lines 3.8 V3</title><g id="Green_Top" data-name="Green Top"><path class="cls-1" d="M1921.79,192.56l-1.79.54v3.77q-5.7,1.92-11.41,3.76c-8.27,2.7-16.55,5.3-24.77,7.79q-7.46,2.27-14.84,4.41c-14.52,4.2-28.73,8-42.31,11.31q-5.42,1.34-10.66,2.54c-5.33,1.23-10.53,2.36-15.61,3.45-4.2.87-8.29,1.66-12.27,2.43l-3.64.68h0c-2.71.5-5.36,1-7.94,1.39-5.12,1.57-10.16,3-14.87,4.12s-9.09,2-12.93,2.62c-7.68,1.21-13.13,1.28-14.62.15s1.1-3.2,6.3-5.69h.09l.61-.29c2.84-1.29,6.43-2.83,10.56-4.33s8.83-3.06,14-4.68c4.4-1.68,9.59-3.43,12.7-4.91,13.84-6.63,29.48-13.6,46.66-20.93s36-15.09,56.13-23.07l-23,10.45c5.74-2.3,11.5-4.61,17.43-6.89s12.18-4.58,18.83-6.82c-1.16,1-2.73,2.08-3.91,3.06,9-4,19-8,29.51-11.79V193Z" transform="translate(0.19 -158.74)"/><path class="cls-1" d="M1915.52,211.49l4.48-1.88v3.2a45.17,45.17,0,0,1-8.69,2C1908.83,214.93,1910.57,213.47,1915.52,211.49Z" transform="translate(0.19 -158.74)"/><path class="cls-1" d="M1921.79,192.56l-1.79.54V201c-8.82,2.53-17.68,5.15-26.28,7.73l-12.24,3.38c-6,1.35-10.16,1.8-11.74,1.28a1.05,1.05,0,0,1-.76-.53c-.54-1.32,4.27-4.29,12.38-7.74h.06c2.83-1.21,6.07-2.47,9.62-3.75l18-6.41c3.5-1.39,7.18-2.83,11-4.29V193Z" transform="translate(0.19 -158.74)"/><path class="cls-1" d="M635.55,177.78c-52.5,9.17-103.85,19.87-154.4,30.45l-37.77,7.88L425,219.83l-4.6.93-4.6.88-9.21,1.75C382,228,357.4,232.3,332.74,236c-3.31.5-6.15.59-6.4.17s2.26-1.11,5.32-1.55c24.65-3.64,49.21-7.93,73.71-12.55l9.19-1.75c3.06-.58,6.12-1.17,9.17-1.8l18.33-3.71,37.66-7.86c50.41-10.57,101.63-21.27,154.15-30.46,3.54-.59,6.55-.73,7.12-.4C641.25,176.46,638.84,177.21,635.55,177.78Z" transform="translate(0.19 -158.74)"/><path class="cls-1" d="M1047.43,186.3l-8.85-1.87-1.65-.35c-2.74-.56-5.48-1.1-8.24-1.63l-12.94-2.5q-6.21-.91-12.47-1.74-27.33-3.68-55.22-5.77c-22.84-1.74-45.81-2.42-68.62-2.29,30.19.57,60.55,2.71,90.4,5.89l5.6.58,5.56.68,11.13,1.35,2,.24c3,.38,6,.84,9.08,1.24l11,1.5,7.75,1.18,11.09,1.69,3.08.47,10.88,1.78c3.63.59,7.27,1.17,10.86,1.82C1054.44,187.77,1050.93,187,1047.43,186.3Zm681.21,100.44-1.39.79c-1.37.8-4.12,2.31-9.61,5.33l5.26-2.39c3.27-1.48,7.6-3.6,11.9-5.67l2.33-1.11ZM1047.43,186.3l-8.85-1.87-1.65-.35c-2.74-.56-5.48-1.1-8.24-1.63l-12.94-2.5q-6.21-.91-12.47-1.74-27.33-3.68-55.22-5.77c-22.84-1.74-45.81-2.42-68.62-2.29,30.19.57,60.55,2.71,90.4,5.89l5.6.58,5.56.68,11.13,1.35,2,.24c3,.38,6,.84,9.08,1.24l11,1.5,7.75,1.18,11.09,1.69,3.08.47,10.88,1.78c3.63.59,7.27,1.17,10.86,1.82C1054.44,187.77,1050.93,187,1047.43,186.3Zm681.21,100.44-1.39.79c-1.37.8-4.12,2.31-9.61,5.33l5.26-2.39c3.27-1.48,7.6-3.6,11.9-5.67l2.33-1.11Zm161.77-96.66c-1.24-.62-8.27,1-15.17,3.42-23.32,7.31-47,14.92-70.47,22.36-21.79,6.9-43.37,13.65-64.28,19.94h-.09c-5.2,2.49-7.7,4.57-6.3,5.69s6.94,1.06,14.62-.15c3.84-.63,8.22-1.51,12.93-2.62s9.75-2.55,14.87-4.12c2.58-.41,5.23-.89,7.94-1.39h0q8.16-2.91,16.44-5.93c28.17-10.23,52-20.69,79-31.57C1887.06,193.24,1891.7,190.74,1890.41,190.08Zm23.25,4.93h0q-16.14,4.88-32.23,10.06h-.06q-14.94,4.78-29.74,9.7-18,5.94-35.61,11.89,5.25-1.22,10.66-2.54c13.58-3.3,27.79-7.11,42.31-11.31a1.05,1.05,0,0,0,.76.53c1.58.52,5.78.07,11.74-1.28l12.24-3.38c8.6-2.58,17.46-5.2,26.28-7.73V193.1C1917.89,193.73,1915.77,194.36,1913.66,195Z" transform="translate(0.19 -158.74)"/><path class="cls-1" d="M1868.66,225c16.37-6.68,33.57-13.43,51.34-20.14V201c-8.82,2.53-17.68,5.15-26.28,7.73l-12.24,3.38c-6,1.35-10.16,1.8-11.74,1.28a1.05,1.05,0,0,1-.76-.53c-14.52,4.2-28.73,8-42.31,11.31q-5.42,1.34-10.66,2.54-18.91,6.34-37.33,12.52c-23.69,7.9-46.63,15.39-68.45,22.14q-12.21,3.33-24.48,6.3-14.18,3.45-28.4,6.38-3.72.76-7.46,1.49c-3.24.64-6.47,1.24-9.71,1.83l3.22-1.19-9,1.93c-1.51.31-3,.65-4.52.95l-4.51.84-2,.31,6.68-2.12,6.64-2.28,4.89-1.15,4.51-1c.71-.13,1.42-.26,2.12-.41,9.56-1.81,19-3.87,28.2-6.12,16.25-3.94,32.12-8.49,47.86-13.4,20-6.27,39.84-13.14,60.18-20.42-2.71.5-5.36,1-7.94,1.39-5.12,1.57-10.16,3-14.87,4.12s-9.09,2-12.93,2.62c-7.68,1.21-13.13,1.28-14.62.15s1.1-3.2,6.3-5.69c-1.56.45-3.14.92-4.69,1.39-22.4,6.69-44,12.82-64.26,18.25-10.14,2.76-19.94,5.25-29.36,7.69l-3.78.94q-5.1,1.27-10,2.57c-4.33,1-8.57,2.06-12.7,3.12l-.47.12-3,.41c-1,.14-2,.24-2.95.36l-.79.1-5,.62q-2.89.38-5.73.78l-2.82.4-2.77.35c-3.67.46-7.24,1-10.68,1.52l-2.56.43-2.49.36c-1.65.24-3.26.5-4.83.77l-.7.07,4.79-1.28c1.58-.42,3.15-.82,4.78-1.32-11.75,1.18-18,3.26-28.72,4.11,1.22-1,2.7-1.92,3.89-2.89-3.61.17-7.25.39-10.9.5l-10.95.14c-1.83,0-3.68.06-5.51,0l-5.49-.13c-3.68-.1-7.33-.16-11.06-.29l-11.48-.65c-1.92-.12-3.83-.19-5.75-.34l-5.77-.47c-3.84-.33-7.68-.58-11.53-.95l-11.53-1.17c-3.83-.35-7.68-.86-11.51-1.31l-5.74-.68c-1.91-.22-3.82-.43-5.73-.71-7.65-1.05-15.23-2-22.78-3.13-15.07-2.09-29.94-4.49-44.38-6.58-2.3-.47-4.46-.86-6.62-1.25-23.84-7.46-47.92-15.58-77.29-23.91,10.07,2.42,19.88,4.79,29.86,7.05-20.78-6.68-41.64-13.33-64.88-19.78-15.72-4.38-32.19-8.75-48.66-12.83l-12.38-3q-6.17-1.47-12.32-2.86l-12.17-2.7c-4.05-.86-8.07-1.69-12-2.5-7.88-1.62-15.69-3-23.1-4.35s-14.66-2.37-21.39-3.33-13.2-1.64-19.05-2.2-11.3-.83-16-1c-2.47-.6-5-1.16-7.47-1.72l-4.93-1.08c-3.23-.71-6.45-1.43-9.68-2.13l-2.78-.6-12.58-2.57c-2.09-.42-4.18-.86-6.29-1.27l-2.1-.39-4.25-.79-12.71-2.36-12.83-2.15-6.42-1.07-6.47-1-12.95-1.9c-4.34-.58-8.71-1.11-13.06-1.66s-8.7-1.11-13.1-1.53l-13.17-1.35c-2.19-.24-4.39-.41-6.59-.59l-6.61-.54q-26.4-2.06-52.74-2.68t-52.38.09c-17.38.41-34.63,1.3-51.78,2.44s-34.2,2.6-51.09,4.35-33.69,3.7-50.34,5.86c-6.88.88-12.9,2.39-14,3.39-.53.91,4.14,1,11,.14q35.82-4.16,72.54-7.06c24.46-1.88,49.18-3.29,74.16-3.86s50.15-.43,75.44.68l9.49.5c3.17.18,6.33.31,9.49.55l9.51.67,4.75.34,4.75.42,9.51.85c3.16.28,6.32.67,9.48,1,6.31.7,12.65,1.33,18.9,2.21-2.63-.25-5.25-.56-7.91-.77l-8-.63c-5.3-.4-10.6-.89-15.92-1.15s-10.63-.67-15.94-.85-10.63-.49-15.94-.57q-31.86-.87-63.56.26c-42.23,1.44-84.1,5.22-125.65,10.37-5.3.59-10.63,1.15-15.93,1.81s-10.64,1.26-15.94,2-10.46,1.43-15.61,2.29-10.3,1.76-15.38,2.74c-13.08,2-25.95,4.19-38.76,6.38s-25.45,4.5-38,6.85c-25.16,4.67-50,9.52-74.67,14.34l-37,7.19c-12.45,2.41-24.4,4.58-36.63,6.79-24.39,4.26-49.1,8.06-74.29,11.33-43,5.43-83.42,9.24-123.66,11.22l-15.08.73-15.09.49-7.57.24-6.08.1h-.28l-1.21,0-15.2.23-15,0h-8c-2.57,0-5.14-.1-7.73-.15l-1,0-14.52-.3-15.73-.62C66,250.3,32.58,247.38,0,243.08v10.49q44.88,5.67,90.83,7.59l.68,0q12.15.53,24.35.78,21.64.48,43.45.18c3.28,0,6.58-.08,9.87-.16q18.54-.36,37.16-1.26,48.75-2.33,98-8,47.58-5.43,95.49-13.67l24-4.27,24-4.58L497,220.35c28.52-5.76,56.78-11.38,85.14-16.69-.3.34-.57.68-.5,1,.28,1.14,3.25,1.7,8,1.76-32.19,6.06-64.22,12.82-96.11,19.77-22.41,3.81-44.91,7.72-66.8,11.29-5.51.91-11,1.74-16.56,2.62s-11.06,1.75-16.61,2.54l-16.66,2.48-16.73,2.33-8.38,1.17-8.41,1.09-16.87,2.21c-11.28,1.34-22.6,2.82-34,4.06s-22.85,2.49-34.39,3.75l-17.36,1.69c-2.91.28-5.82.59-8.73.85l-8.76.76-6.88.61q-17.34,1.51-34.15,2.74c-2.79.21-5.57.4-8.33.59-14.7,1-29.15,1.85-43.48,2.5q-7.27.33-14.5.59l-7,.24c-22.68.72-45.15.9-67.79.41l-14.06-1.19-3.52-.29-3.5-.37-7-.74c-4.34-.48-8.7-.9-13-1.41v18c3.93.37,7.87.72,11.82,1l9.52.8,9.53.61,9.54.61,4.77.3,4.77.21,19.11.83,19.13.47q39.9,1.54,79.9.6c3-.06,6-.13,9-.23q32.61-.92,65.24-3.32,4.49-.32,9-.68,10.53-.81,21-1.78a108.68,108.68,0,0,0-10.66,3.27c-.47.17-.92.35-1.35.52a30.44,30.44,0,0,0-3.9,1.81,12.56,12.56,0,0,0-1.26.81.06.06,0,0,0,0,0c-9.56.81-19.07,1.67-28.58,2.27q-17.75.86-35.55,1.22c-2.8.07-5.6.12-8.4.17q-10.92.19-21.83.28H140.2l-4.12-.07-8.25-.14c-11-.1-22-.55-33-.9-2.75-.06-5.5-.24-8.25-.37l-8.24-.42-8.25-.41c-2.74-.13-5.49-.36-8.23-.53L45.4,290.57,29,289.16c-2.74-.25-5.49-.46-8.23-.73l-8.21-.86L4.3,286.7l-4.1-.43-.2,0v1.56q7.14.81,14.3,1.51l4.63.49c1.54.17,3.08.32,4.63.45l9.27.79c6.19.53,12.36,1.12,18.56,1.48s12.38.87,18.57,1.24l18.59.93q37.17,1.56,74.29,1.4A1323.53,1323.53,0,0,1,0,291.07V496.21H1920V213.6l-1.61.39-1.81.41-.09,0-37.38,9.11c-5.74,2.11-11,4.12-16,6.09,1.56-.76,3-1.49,4.46-2.22C1870.4,226,1867.05,225.62,1868.66,225ZM627.06,288c-2.28.43-4.36.89-6.25,1.36L567.86,299l-6.42,1.18H497.92c6.24-.91,12.88-2,19.79-3.27,40.67-5.8,81.1-11.52,122-16.75-2.44.91-3.85,1.74-3.68,2.36.56.68,3.25.9,7.16.71a123,123,0,0,0,14.48-1.64l16.5-2.47Q650.63,283.3,627.06,288Zm420-101.29L1036.16,185l-3.08-.47L1022,182.81l-7.75-1.18-11-1.5c-3-.4-6-.86-9.08-1.24l-2-.24L981,177.3l-5.56-.68-5.6-.58c-29.85-3.18-60.21-5.32-90.4-5.89,22.81-.13,45.78.55,68.62,2.29q27.87,2.06,55.22,5.77,6.26.82,12.47,1.74l12.94,2.5c2.76.53,5.5,1.07,8.24,1.63l1.65.35,8.85,1.87c3.5.73,7,1.47,10.47,2.27C1054.31,187.92,1050.67,187.34,1047,186.75ZM1734.8,284.8c-4.3,2.07-8.63,4.19-11.9,5.67l-5.26,2.39c5.49-3,8.24-4.53,9.61-5.33l1.39-.79,8.49-3.05Zm79.86-33.33c-5.24,2.78-10,5.38-14.62,8q-3.45.9-6.94,1.86l-7,1.91c-4.71,1.29-9.46,2.74-14.23,4.12l-9.25,2.73q-15.22,4.44-30.17,8.54-6.42,1.75-12.78,3.44-11.51,3-22.9,5.85c2.87-1.85-3-.42-6.1.11s-6.27,1.13-9.39,1.64q16-3.75,32-8.13,5.73-1.56,11.46-3.2,13.83-4,27.72-8.32c2.5-.78,5-1.58,7.51-2.38,23.79-7.58,49.77-16.13,72.22-24.78C1825.59,245.9,1819.89,248.71,1814.66,251.47Z" transform="translate(0.19 -158.74)"/></g><g id="Green_Bottom" data-name="Green Bottom"><path class="cls-1" d="M1918.21,760v13.26l-1.68-.8c-3.1-1.48-8.29-3.23-12.68-4.91-5.13-1.62-9.82-3.16-13.95-4.68s-7.71-3-10.55-4.33l-.61-.29-1.18-.57c-4.45-2.26-6.5-4.12-5.21-5.15,1.49-1.14,6.94-1.07,14.61.14l1.6.27c3.44.6,7.25,1.39,11.32,2.35,4.7,1.11,9.74,2.55,14.85,4.12C1915.88,759.58,1917,759.78,1918.21,760Z" transform="translate(0.19 -158.74)"/><path class="cls-1" d="M774.83,816.26c-52.45-9.17-103.75-19.87-154.26-30.45l-37.74-7.88-18.37-3.72-4.59-.92-4.6-.88-9.2-1.76c-24.54-4.63-49.13-8.91-73.78-12.56-3.3-.5-6.14-.59-6.38-.17s2.25,1.12,5.31,1.55c24.62,3.64,49.17,7.94,73.64,12.55l9.18,1.75c3.06.58,6.11,1.17,9.17,1.8l18.31,3.71,37.62,7.86c50.37,10.57,101.54,21.27,154,30.46,3.53.59,6.54.73,7.11.4C780.53,817.58,778.12,816.83,774.83,816.26Z" transform="translate(0.19 -158.74)"/><path class="cls-1" d="M25.47,724.12c2.26-.8,2.05-1.22-.49-1a33.56,33.56,0,0,0-8.14,1.79c-1.88.72-1.65,1.23.51,1a35.37,35.37,0,0,0,4.28-.74C23.1,724.8,24.52,724.46,25.47,724.12Z" transform="translate(0.19 -158.74)"/><path class="cls-1" d="M1914.73,759.4c-5.11-1.57-10.15-3-14.85-4.12-4.07-1-7.88-1.75-11.32-2.35l-1.6-.27c-7.67-1.21-13.12-1.28-14.61-.14-1.29,1,.76,2.89,5.21,5.15l1.18.57c12.94,3.9,26.13,8,39.47,12.14V760C1917,759.78,1915.88,759.58,1914.73,759.4Zm-41.68-50.16c-4.29-2.06-8.62-4.19-11.89-5.67l-5.25-2.39c5.48,3,8.23,4.53,9.6,5.33l1.39.8,8.48,3Zm-687.12,98-10.87,1.78-21.9,3.34-11,1.51c-3.69.48-7.34,1.05-11.05,1.47L1120,816.74l-5.56.68-5.6.58c-29.82,3.19-60.15,5.32-90.31,5.89,22.79.13,45.74-.55,68.56-2.28s45.37-4.25,67.62-7.52c7.07-1.38,14.15-2.7,21.16-4.13l10.49-2.22c3.5-.73,7-1.47,10.46-2.27C1193.2,806.12,1189.56,806.7,1185.93,807.29Zm-1021-117c-5.23.43-10.43,1.11-15.65,1.68l-5.92.53H627.1l-2.9-.34-17.39-3.86-17.75-3.8c-5.9-1.29-11.86-2.47-17.81-3.68L562.32,679c-3-.61-6-1.2-9-1.76l-18-3.4c-6-1.13-12-2.15-18-3.23l-9-1.6-9.07-1.51-16.07-2.65-2.07-.34-12-2c-4-.6-7.95-1.13-11.78-1.57-1.95-.19-3.87-.37-5.75-.52s-3.56-.26-5.26-.36c-4.22-.24-8.08-.36-11.34-.3-2.06,0-3.89.14-5.44.32a13.46,13.46,0,0,0-5,1.14c-7-.52-14-1.11-21-1.57l-4.32-.27-16.75-1.05c-5.07-.27-10.17-.51-15.25-.75h0l-5.86-.29-1.35-.07h0l-3.89-.18-5.3-.18-10.57-.35c-28.2-.84-56.41-.94-84.43-.13S200,659,172.73,661.86L162.51,663l-5.09.56-5.07.65-20.18,2.68L112.25,670c-3.31.5-6.6,1.11-9.87,1.72l-9.79,1.82c-5.28,1-8,2-7,2.57a41.05,41.05,0,0,0-6.91,1l-2.18.55c-5.47,1.34-11.24,2.62-17.22,4-5.17,1.22-10.52,2.44-16,3.66l-5.06,1.13c-3.12.81-4.73,1.61-3.16,1.65a33.29,33.29,0,0,0,8.06-1l5.71-1.3,5.28-1.19c3.63-.84,7.22-1.7,10.8-2.43,6.2-1.32,12.25-2.69,18.08-4.05l2.63-.61a6.24,6.24,0,0,0,2.56-.93,77.15,77.15,0,0,0,12.6-1.18q40.5-5.85,80.89-9.27t80.86-4.23q33.44-.83,67,.18h0c2.77.07,5.55.16,8.32.25h0l5.81.21q13.37.53,26.75,1.28,15.38.88,30.8,2.12,5.5.45,11,.94,6.53.6,13.07,1.26l-15.58-.86L405.1,667l-8-.36L384.72,666l-5.11-.23-5.14-.17-10.3-.35-3.66-.12c-2.21-.08-4.44-.16-6.67-.21l-10.39-.22c-6.94-.14-13.91-.33-20.93-.32L312,664.34c-3.52,0-7.05-.07-10.59,0l-21.37.21-21.61.56c-35,1.15-68.49,3.86-101.81,7.82-15.56,1.85-31.09,4-46.71,6.38-14.8,2.27-29.68,4.8-44.77,7.6q-4.65.86-9.31,1.75c-3.59.64-5.89,1.47-5.41,1.81s3.58.16,7.08-.57c4.37-.88,8.78-1.59,13.14-2.34l1.31-.23,11.77-2c2.17-.4,4.35-.71,6.53-1l6.5-1,13-2,11.17-1.54,14.63-2,12.85-1.55,6.42-.79,3.19-.39,3.21-.34c34.14-3.77,68-6.29,102.15-7.51,28.09-1,56.34-1.12,85-.24q18.45.57,37.16,1.72,5.52.33,11.05.73c25.44,1.79,51.27,4.41,77.64,8q4.55.59,9.08,1.28l8.11,1.25c-2.71-.18-5.41-.36-8.11-.52-43-2.7-85.5-3.68-127.65-3.26l-4.27-.23c-3.43-.19-6.87-.37-10.31-.52q-27.19-1.31-54.44-1.54a1240.2,1240.2,0,0,0-134.23,5.86l-5,.51h0q-30.51,3.18-60.68,8.05-12.49,2-24.91,4.35t-24.92,5Q18.26,701.4,0,706.05v5l12.39-2.59c4.57-1,9.2-1.82,13.82-2.67l13.85-2.56c4.64-.78,9.29-1.5,13.93-2.26l7-1.12,3.48-.56,3.51-.48c1.7-.25,3.4-.49,5.11-.72q23.55-3.3,47.26-5.62,19.43-1.91,38.91-3.17,10.71-.69,21.44-1.2l-6.87.95Zm1708.08,19c-4.29-2.06-8.62-4.19-11.89-5.67l-5.25-2.39c5.48,3,8.23,4.53,9.6,5.33l1.39.8,8.48,3Zm-687.12,98-10.87,1.78-21.9,3.34-11,1.51c-3.69.48-7.34,1.05-11.05,1.47L1120,816.74l-5.56.68-5.6.58c-29.82,3.19-60.15,5.32-90.31,5.89,22.79.13,45.74-.55,68.56-2.28s45.37-4.25,67.62-7.52c7.07-1.38,14.15-2.7,21.16-4.13l10.49-2.22c3.5-.73,7-1.47,10.46-2.27C1193.2,806.12,1189.56,806.7,1185.93,807.29Z" transform="translate(0.19 -158.74)"/><path class="cls-1" d="M-.19,467.06V692.45H61.7q12.4-2.33,24.91-4.35,30.14-4.89,60.68-8.05h0l5-.51a1240.2,1240.2,0,0,1,134.23-5.86q27.24.23,54.44,1.54c3.44.15,6.88.33,10.31.52l4.27.23c42.15-.42,84.61.56,127.65,3.26,2.7.16,5.4.34,8.11.52l-8.11-1.25q-4.53-.69-9.08-1.28c-26.37-3.55-52.2-6.17-77.64-8q-5.53-.4-11.05-.73-18.7-1.15-37.16-1.72c-28.64-.88-56.89-.75-85,.24-34.11,1.22-68,3.74-102.15,7.51l-3.21.34-3.19.39-6.42.79-12.85,1.55-14.63,2-11.17,1.54-13,2-6.5,1c-2.18.34-4.36.65-6.53,1l-11.77,2-1.31.23c-4.36.75-8.77,1.46-13.14,2.34-3.5.73-6.52.89-7.08.57s1.82-1.17,5.41-1.81q4.66-.9,9.31-1.75c15.09-2.8,30-5.33,44.77-7.6,15.62-2.4,31.15-4.53,46.71-6.38,33.32-4,66.83-6.67,101.81-7.82l21.61-.56,21.37-.21c3.54-.06,7.07,0,10.59,0l10.54.07c7,0,14,.18,20.93.32l10.39.22c2.23,0,4.46.13,6.67.21l3.66.12,10.3.35,5.14.17,5.11.23,12.37.56,8,.36,4.65.26,15.58.86q-6.54-.66-13.07-1.26-5.52-.49-11-.94-15.42-1.25-30.8-2.12-13.4-.76-26.75-1.28l-5.81-.21h0c-2.77-.09-5.55-.18-8.32-.25h0q-33.55-1-67-.18-40.47,1-80.86,4.23-40.41,3.42-80.89,9.27a77.15,77.15,0,0,1-12.6,1.18,6.24,6.24,0,0,1-2.56.93l-2.63.61c-5.83,1.36-11.88,2.73-18.08,4.05-3.58.73-7.17,1.59-10.8,2.43l-5.28,1.19L43.16,687a33.29,33.29,0,0,1-8.06,1c-1.57,0,0-.84,3.16-1.65l5.06-1.13c5.45-1.22,10.8-2.44,16-3.66,6-1.33,11.75-2.61,17.22-4l2.18-.55a41.05,41.05,0,0,1,6.91-1c-1-.58,1.71-1.58,7-2.57l9.79-1.82c3.27-.61,6.56-1.22,9.87-1.72l19.92-3.15,20.18-2.68,5.07-.65,5.09-.56,10.22-1.1c27.31-2.82,55.11-4.63,83.12-5.53s56.23-.71,84.43.13l10.57.35,5.3.18,3.89.18h0l1.35.07,5.86.29h0c5.08.24,10.18.48,15.25.75l16.75,1.05,4.32.27c7,.46,14,1,21,1.57a13.46,13.46,0,0,1,5-1.14c1.55-.18,3.38-.29,5.44-.32,3.26-.06,7.12.06,11.34.3,1.7.1,3.46.22,5.26.36s3.8.33,5.75.52c3.83.44,7.8,1,11.78,1.57l12,2,2.07.34,16.07,2.65,9.07,1.51,9,1.6c6,1.08,12,2.1,18,3.23l18,3.4c3,.56,6,1.15,9,1.76l8.93,1.79c6,1.21,11.91,2.39,17.81,3.68l17.75,3.8,17.39,3.86,2.9.34H143.4l-3.14.28-4.53.42-4.51.5-18.07,2c-5.12.65-10.25,1.36-15.36,2l-2.63.36c-6,.75-12,1.75-18,2.69-12,1.77-23.83,4.08-35.73,6.26l-17.72,3.69-4.44.93c-1.48.32-2.94.68-4.4,1l-1.45.34-5.3,1.25-2.06.48c-.89.19-1.76.39-2.63.6-1.18.27-2.34.55-3.48.83v8.63c1.73-.33,3.52-.69,5.33-1.08-1.77.51-3.55,1-5.33,1.5v1.71l1.09-.26L3.41,726l12-3.41c2.37-.67,4.73-1.39,7.12-2l1.3-.34,5.85-1.53,2.85-.54,5.66-1.08c3.28-.6,6.56-1.2,9.85-1.77,83.41-14.7,169.09-19.86,254.54-17.37q-37.06-.18-74.23,1.4l-18.57.93c-6.18.37-12.36.84-18.55,1.24s-12.36,1-18.54,1.48l-9.26.8c-1.55.12-3.09.27-4.63.44l-4.62.49c-24.69,2.42-49.28,5.76-73.72,9.81-3.43.57-6.88,1.13-10.33,1.72q-4,.68-8,1.45l-4.44.84-6.1,1.14q-3.85.72-7.69,1.48l-1.53.32L25.76,725c-1.56.31-3.11.66-4.66,1l-4.38,1L7.81,729.1l-.11,0,.07,0c1.79-.69,1.84-1.21-.63-1-.92.1-2.2.32-3.52.6s-2.59.6-3.62.93v2.94c2.11-.53,4.22-1,6.34-1.51l.4-.09,5.9-1.39,9.69-2.27L28.67,726l9.75-2.06c2.68-.56,5.36-1.15,8-1.69l2.17-.41,5.91-1.1,3.37-.63,4.72-.89L64,719l2.71-.52,2-.38,2-.34,7.7-1.28L87,715l4.05-.68c1.36-.22,2.72-.4,4.08-.6l8.16-1.18,8.16-1.19c1.35-.19,2.7-.42,4.07-.58l4.1-.51,16.35-2,2-.26,2.05-.21,4.11-.43,8.2-.86,8.2-.87c2.74-.27,5.49-.48,8.22-.72l16.44-1.42,16.46-1.12c2.74-.17,5.48-.4,8.22-.53l8.25-.41,8.23-.42c2.75-.13,5.49-.3,8.24-.37,11-.35,22-.8,32.95-.9l8.24-.14,4.12-.07h20.58c21.94.19,43.87.61,65.71,1.68,9.51.6,19,1.46,28.56,2.27a0,0,0,0,0,0,0,27.83,27.83,0,0,0,6.51,3.14A110.07,110.07,0,0,0,412,709.9c-61.41-5.62-122.79-7.79-184-5.42l-19.11.47-19.1.83L185,706l-4.77.31-9.53.6-9.53.62-9.5.8c-12.69,1-25.32,2.37-38,3.74l-18.89,2.41c-3.16.37-6.28.89-9.42,1.35l-4.61.69-4.8.72a61.25,61.25,0,0,0-9.14,1.93,14.07,14.07,0,0,0-3.29,1.34c-.38.25-.58.48-.57.68,0,.88,4.73.68,11-.07l2.64-.34,5.45-.81,3.73-.55c3.07-.44,6.11-1,9.2-1.32l7.36-.93,11.09-1.4c-2,.51-3.85,1-5.53,1.54a44.79,44.79,0,0,0-8.74,3.4,6.65,6.65,0,0,0-1.9,1.48,1.69,1.69,0,0,0-.35.73,1,1,0,0,0,.15.69c.77,1.29,4.57,2.08,10.38,2.4,1,.06,2.06.1,3.18.13-28.13,4.4-55.73,10.08-82.56,17q-5.72,1.47-11.4,3-2.71.72-5.43,1.49Q5.62,749.18,0,750.83l-.19.06a.58.58,0,0,0,.19,0v3q3.95-1.05,7.9-2.06,6.26-1.59,12.52-3.11c2.1-.51,4.21-1,6.3-1.49q6.86-1.62,13.73-3.12,14.61-3.24,29.34-6l3.42-.67,3.44-.59,6.87-1.19,6.89-1.19c2.29-.38,4.57-.83,6.88-1.15l13.84-2.08,6.92-1,7-.89,13.91-1.78c4.52-.54,9.07-1,13.6-1.47l.38,0,7-.74,3.5-.38,3.5-.29,14.06-1.19c29.75-.65,59.22-.12,89.25,1.24q13.08.6,26.33,1.4c21.6,1.29,43.63,3,66.42,5l8.75.76c2.91.26,5.82.57,8.73.85l17.34,1.69c11.53,1.27,23,2.38,34.36,3.76,2.28.25,4.57.5,6.85.77,9.07,1,18.11,2.21,27.12,3.28l8,1.06,8.82,1.15,8.4,1.09,8.37,1.18L516.43,749l11.35,1.68,5.29.79c5.55.79,11.07,1.67,16.6,2.55s11,1.7,16.54,2.61c21.87,3.58,44.35,7.48,66.74,11.29,31.86,7,63.86,13.71,96,19.77-4.75.06-7.71.62-8,1.76-.07.29.2.63.5,1-28.34-5.31-56.57-10.94-85.06-16.7l-49.18-9.86-24-4.58L539.32,755q-9.55-1.63-19.1-3.16-26.09-4.19-52.08-7.56-12.12-1.56-24.22-3c-3.67-.42-7.35-.82-11-1.22a1383.88,1383.88,0,0,0-177.29-8A1084.49,1084.49,0,0,0,96.08,747q-11.17,1.92-22.28,4.09l-1.35.27q-4.12.81-8.23,1.65-6.64,1.37-13.25,2.84-8,1.77-16,3.69Q17.33,763.75,0,768.66V779q34.59-9.47,69.91-16.47l1.83-.37q10.26-2,20.58-3.84,7.73-1.38,15.5-2.63c3.64-.59,7.27-1.17,10.93-1.72q27.17-4.12,55.16-7,32.6-3.29,66.58-4.77l15.71-.62,15.56-.32c2.58,0,5.15-.12,7.72-.15l7.68,0,15.29,0,15.18.23,7.57.12,7.56.24,9.62.31,4.39.15,1.07,0,15.06.73q20.82,1,41.8,2.7c11.93.94,23.94,2,36.11,3.29,14.94,1.52,30.12,3.27,45.64,5.23,3.38.44,6.77.89,10.14,1.35q32.51,4.42,64.08,10c12.22,2.22,24.15,4.38,36.59,6.8l37,7.18c24.69,4.82,49.46,9.67,74.6,14.34q18.84,3.53,38,6.85c12.79,2.19,25.66,4.37,38.73,6.39q7.6,1.47,15.36,2.73c5.15.87,10.35,1.62,15.6,2.29s10.61,1.33,15.91,2,10.63,1.22,15.93,1.81c41.51,5.15,83.34,8.94,125.53,10.37,21.1.72,42.28.85,63.5.26,5.3-.08,10.61-.37,15.93-.57s10.62-.55,15.92-.85,10.61-.75,15.91-1.15l7.94-.63c2.66-.2,5.27-.52,7.9-.77-6.24.88-12.57,1.51-18.88,2.21-3.16.33-6.31.72-9.47,1l-9.5.85-4.75.42-4.74.34-9.5.68c-3.16.24-6.32.36-9.48.55l-9.49.49c-25.26,1.11-50.43,1.27-75.37.68s-49.65-2-74.09-3.86-48.61-4.29-72.47-7.06c-6.84-.89-11.51-.77-11,.14,1.05,1,7.06,2.51,13.94,3.39q24.94,3.26,50.29,5.86t51,4.36c17.14,1.13,34.37,2,51.74,2.43s34.81.48,52.33.09,35.09-1.31,52.69-2.68l6.6-.54c2.2-.18,4.4-.35,6.59-.59l13.15-1.35c4.4-.42,8.74-1,13.09-1.53s8.71-1.07,13-1.66l12.94-1.9,6.46-1,6.41-1.07,12.82-2.15,12.7-2.36,6.35-1.18c2.1-.41,4.18-.85,6.28-1.27l12.57-2.57c4.16-.88,8.29-1.82,12.45-2.72s8.3-1.82,12.38-2.81c4.75-.14,10.14-.45,16-1,5.06-.49,10.54-1.1,16.33-1.84l2.7-.35c6.73-1,13.93-2,21.37-3.34s15.21-2.73,23.08-4.35c4-.8,8-1.63,12-2.5l12.17-2.7q6.15-1.38,12.31-2.86l12.36-3c16.46-4.07,32.91-8.45,48.62-12.83,23.21-6.45,44.06-13.1,64.82-19.78-10,2.26-19.77,4.64-29.83,7.05,29.34-8.33,53.4-16.44,77.21-23.91,2.16-.39,4.31-.78,6.62-1.25,14.43-2.08,29.28-4.49,44.34-6.58,7.54-1.16,15.11-2.08,22.76-3.13,1.9-.28,3.81-.49,5.72-.71l5.74-.68c3.82-.45,7.67-1,11.49-1.3l11.52-1.18c3.85-.36,7.69-.62,11.52-1l2.33-.19,3.44-.28c1.92-.15,3.82-.22,5.74-.34l11.47-.65c3.73-.13,7.37-.18,11-.29l5.49-.13c1.82,0,3.67,0,5.5,0l10.94.13c3.65.12,7.28.34,10.89.5-1.19-1-2.67-1.92-3.89-2.89,10.16.81,16.27,2.71,26.83,3.91l1.87.2-.67-.2-1.72-.48,0,0-2.34-.62-4.78-1.27.7.06c1.56.27,3.17.53,4.82.77l2.49.36.31.05.25,0,2,.34c1.66.26,3.33.52,5,.77s3.73.52,5.63.76l2.76.34,2.82.4q2.83.4,5.73.78l5.83.72c1,.13,2,.22,3,.36l3,.41c4.27,1.1,8.67,2.16,13.15,3.24s9.11,2.36,13.81,3.51c9.41,2.45,19.2,4.93,29.33,7.69,20.25,5.43,41.82,11.56,64.2,18.25l3.29,1,1.49.44-1.18-.57c-4.45-2.26-6.5-4.12-5.21-5.15,1.49-1.14,6.94-1.07,14.61.14l1.6.27c3.44.6,7.25,1.39,11.32,2.35,4.7,1.11,9.74,2.55,14.85,4.12,1.15.18,2.31.38,3.48.59v-.79q-12.37-4.43-24.58-8.6c-10.37-3.56-20.7-7-31.09-10.23-25.34-7.92-51-14.88-78.1-19.92l-.43-.1c-3-.69-6-1.38-9-2.09l-6.64-2.28-6.67-2.12,2,.31,4.5.85c1.5.29,3,.63,4.52,1l9,1.93-3.22-1.2q9.39,1.69,18.73,3.65,25.73,5.34,51.26,12.35c15.91,4.93,32.43,10.25,49.4,15.85q9.4,3.09,19,6.3l1.32.44V732.91c-6.78-2.22-13.53-4.39-20.1-6.49s-13-4.11-19.46-6.07c-19.76-6-39.4-11.32-59.11-16,3.12.51,6.24,1,9.38,1.64s9,2,6.1.11c17.54,4.31,35.24,9.07,53.23,14.21q10.82,3.07,21.8,6.35l8.16,2.4V692.45H1920V467.06ZM1186.32,807.74,1175.83,810c-7,1.43-14.09,2.75-21.16,4.13-22.25,3.27-44.81,5.83-67.62,7.52s-45.77,2.41-68.56,2.28c30.16-.57,60.49-2.7,90.31-5.89l5.6-.58,5.56-.68,11.12-1.35c3.71-.42,7.36-1,11.05-1.47l11-1.51,21.9-3.34,10.87-1.78c3.63-.59,7.27-1.17,10.85-1.82C1193.33,806.27,1189.82,807,1186.32,807.74ZM1866.9,707.31l-1.39-.8c-1.37-.8-4.12-2.31-9.6-5.33l5.25,2.39c3.27,1.48,7.6,3.61,11.89,5.67l2.33,1.11Z" transform="translate(0.19 -158.74)"/></g><g id="Black_Middle" data-name="Black Middle"><rect class="cls-2" x="0.19" y="198.32" width="1920" height="290"/></g><g id="Black_Top" data-name="Black Top"><path class="cls-2" d="M9.11,232A45.32,45.32,0,0,1,0,229.8v-3.23l4.9,2.06C9.85,230.6,11.59,232.07,9.11,232Z" transform="translate(0.19 -158.74)"/><path class="cls-2" d="M1594.08,253.26c-.25.41-3.09.33-6.4-.18-24.66-3.64-49.28-7.92-73.84-12.56l-9.21-1.75-4.6-.88-4.6-.93L1477,233.25l-37.78-7.88c-50.55-10.59-101.89-21.29-154.39-30.45-3.3-.58-5.71-1.33-5.44-1.74.57-.33,3.58-.2,7.12.39,52.52,9.19,103.73,19.89,154.15,30.46l37.65,7.86,18.34,3.71c3,.63,6.11,1.22,9.17,1.8l9.19,1.75c24.49,4.62,49.06,8.91,73.71,12.55C1591.82,252.14,1594.31,252.9,1594.08,253.26Z" transform="translate(0.19 -158.74)"/><path class="cls-2" d="M1472.63,247.34l24,4.59,24,4.26q47.64,8.15,95,13.61l.52.06q16.08,1.83,32.13,3.33c3,.29,6.09.56,9.13.83q33.76,2.94,67.3,4.3c2.59.11,5.17.21,7.76.29q36.25,1.26,72.15.49A1121.32,1121.32,0,0,0,1920,270.75V260.27c-32.45,4.26-65.77,7.17-100.3,8.67l-15.73.62-15.57.32c-2.58.05-5.15.12-7.72.15l-7.7,0-10.4,0h-4.89l-5.32-.08-9.88-.15-7.58-.12-7.56-.25-15.09-.49-15.09-.73q-5.7-.28-11.42-.62-4.66-.25-9.33-.57c-12.62-.81-25.3-1.8-38.11-3-21.12-1.9-42.61-4.27-64.8-7.07-25.18-3.27-49.89-7.07-74.29-11.33-12.22-2.21-24.17-4.37-36.62-6.79l-37-7.19c-24.71-4.82-49.51-9.67-74.68-14.33q-18.84-3.53-38-6.85c-12.8-2.19-25.68-4.38-38.75-6.39q-7.63-1.47-15.38-2.74t-15.61-2.28c-5.3-.71-10.63-1.33-15.94-2s-10.63-1.22-15.93-1.81c-41.56-5.14-83.42-8.93-125.66-10.37q-6.87-.23-13.76-.37-16.59-.37-33.25-.19c-1.84,0-3.67,0-5.5.07q-5.52.08-11,.23c-5.31.09-10.63.38-15.94.57s-10.63.56-16,.85-10.61.75-15.91,1.16l-8,.63c-2.65.2-5.27.51-7.91.76,6.26-.88,12.6-1.51,18.91-2.21,3.16-.33,6.31-.72,9.48-1l9.51-.84,4.75-.43,4.75-.34,9.5-.67c2.24-.17,4.48-.28,6.72-.4l2.78-.15,3.92-.21,5.57-.29q11.51-.49,23-.75,26.37-.58,52.48.07c25,.57,49.7,2,74.16,3.87s48.65,4.28,72.53,7.05c6.85.9,11.53.77,11-.14-1-1-7.06-2.51-13.94-3.38q-25-3.25-50.34-5.87T1152,178.66c-17.16-1.14-34.41-2-51.79-2.44s-34.84-.47-52.37-.09q-7.18.17-14.38.45-15.08.57-30.19,1.63c-2.72.19-5.45.39-8.17.6l-1,.08-5.61.46c-2.2.18-4.4.35-6.59.6l-13.17,1.34c-4.4.42-8.75,1-13.1,1.53s-8.72,1.08-13.06,1.66C852.89,196.47,760.71,210,674,236.11c-32.8,9.88-65.19,21.1-98.21,30.26-18.33,5.08-36.84,9.5-55.51,13.08A731,731,0,0,1,404.74,292.1c-31.48.95-63.27,1.21-94.39-4.32C223.27,272.3,141.43,238.2,60.66,203.32L41.43,195l19,9.32C41,195.46,20.1,189.9,0,182.58v39.21c17.92,6.75,35.26,13.55,51.76,20.29,1.6.67-1.75,1,1.09,2.48,1.43.73,2.91,1.46,4.46,2.22-5-2-10.26-4-16-6.09l-37.39-9.1-.09-.05L2,231.12l-2-.5V587.06H1920V283.86c-4.2.5-8.41.9-12.61,1.36l-10.5,1.11-3.52.3-14.06,1.18c-29.78.65-59.28.12-89.33-1.23-23-1.05-46.29-2.57-70.35-4.53-2.14-.17-4.28-.34-6.44-.53q-8-.66-16-1.39l-8.76-.76c-2.92-.25-5.83-.57-8.73-.85l-17.37-1.69-12.39-1.32-8.3-.88q-6.87-.74-13.7-1.55c-6.53-.71-13-1.5-19.52-2.29L1593.9,269,1577,266.81l-8.41-1.09-8.38-1.17-16.73-2.33-16.66-2.48c-5.55-.79-11.08-1.67-16.61-2.54s-11-1.71-16.57-2.61c-21.88-3.58-44.39-7.49-66.79-11.3-31.89-6.94-63.92-13.7-96.11-19.77,4.75-.06,7.71-.62,8-1.76.07-.28-.2-.62-.5-1,28.36,5.31,56.62,10.93,85.14,16.7ZM24.74,265.14c.45.29.94.61,1.45,1ZM27.49,267l-1.23-.83,1.31.86Zm202.29,38.17c-3.06-.53-9-2-6.09-.11q-20.35-5-41.06-10.77-7.24-2-14.54-4.1-9.69-2.78-19.51-5.69c-4.76-1.38-9.51-2.82-14.22-4.12l-7-1.91q-3.5-1-6.95-1.86c-3.67-2.07-7.44-4.14-11.47-6.31l-3.14-1.67c-4.55-2.4-9.45-4.84-14.93-7.44L88.32,260l3.19,1.22c7.83,3,16,5.93,24.43,8.84,14.82,5.14,30.11,10.11,44.6,14.72q8.29,2.65,16.56,5.18,7,2.15,13.93,4.16c16.07,4.67,32.08,8.92,48.14,12.7C236.06,306.28,232.94,305.75,229.78,305.14Zm65.3-8.13-4.51-.85c-1.51-.3-3-.64-4.52-1l-9-1.93,3.22,1.19q-11.92-2.16-23.81-4.72-7.05-1.5-14.09-3.14-16.11-3.75-32.15-8.13-17.67-5.48-36.27-11.54-7.24-2.35-14.61-4.79-8.72-2.86-17.57-5.82L131,252.73l-26.51-8.91q8,1.83,15.57,3.44c4.2.87,8.28,1.66,12.27,2.43l3.73.71,7,2.51c8.77,3.12,17.46,6.15,26.13,9.08q6.54,2.22,13.07,4.36,6.93,2.28,13.88,4.46c18.09,5.65,36.35,10.81,55.17,15.12q4.5,1.05,9,2c4.62,1,9.28,1.92,14,2.79,3.17.71,6.29,1.44,9.41,2.18l6.64,2.28,6.68,2.12Z" transform="translate(0.19 -158.74)"/></g><g id="Black_Bottom" data-name="Black Bottom"><path class="cls-2" d="M1920,467.06V737.27l-6.66,3.88c-3.75,2.3-8.34,4.78-13.66,7.4l-4.28,2.05c-1.64.77-3.33,1.54-5.08,2.33-3.46,1.56-7.14,3.14-11,4.74l-.31.13c-6.52,2.69-13.57,5.42-21.07,8.14l-12.82,4.59-12.93,4.53c-5.5,1.75-11.09,3.39-16.69,5.08,14.84-2.48,26.47-3.83,34.17-3.62s11.24,1.83,9.77,5.18a15.44,15.44,0,0,1-4.42,4.82,73.17,73.17,0,0,1-9.13,5.89,250.78,250.78,0,0,1-30.43,14c-25.14,9.9-59.45,20.44-97.52,27.7-50.51,10.4-103.59,17.36-158,18.46-6.81.1-13.59.3-20.45.13l-10.25-.14-5.12-.08c-1.71,0-3.43-.14-5.14-.21l-10.28-.47-5.14-.24c-1.71-.08-3.45-.15-5.06-.29l-19.72-1.48c-26.19-2.32-52-5.74-77.16-10-50.45-8.56-98.57-20.48-144.73-33.43l-5.17-1.46c-44.33-12.54-86.92-26-128.8-38.43-16.1-4.77-31.87-9.39-47.3-13.62-7.76-2.19-15.37-4.14-23-6.19l-11.35-2.88-5.66-1.44L1030,741l-11.21-2.67-11.13-2.47c-1.85-.41-3.71-.84-5.55-1.22l-5.53-1.13c-3.68-.74-7.36-1.52-11-2.24l-11-2c-1.83-.33-3.66-.7-5.48-1l-5.46-.88c-3.63-.59-7.27-1.22-10.9-1.77l-10.86-1.53c-1.81-.24-3.62-.53-5.42-.75l-5.42-.63-10.82-1.25-10.86-1c-3.63-.33-7.28-.56-10.93-.85Q876.5,718,854,717.76a896.45,896.45,0,0,0-92.38,4.14c-60.85,3.85-122.22,12-184.49,21.27q-24.34,3.65-48.9,7.47l-7.56,1.18-23.66,3.66-14.24,2.2-6.31,1h0l-5.1.77h0l-12.93,1.92c-8.19,1.25-16.44,2.35-24.67,3.48-4.13.55-8.23,1.14-12.37,1.66L409,768l-12.41,1.53L384.11,771c-27.93,3.11-54.42,5.2-80,6.35l-9.53.45-9.47.3c-6.29.17-12.5.39-18.69.48l-18.45.18-4.57,0-4.57,0-9.1-.08c-12.09,0-24.12-.47-36.07-.8-6-.21-12-.52-17.94-.78l-9-.4-9-.55c-6-.37-12-.7-18-1.11l-18.12-1.37c-6-.41-12.15-1-18.27-1.57s-12.29-1-18.5-1.74c-2.89-.27-3.14-.78-1.6-1.1a46.16,46.16,0,0,1,8.94.06c78.79,4.57,158.27,2.34,237.88-5.72L345.07,762,360,760.28c10-1.1,19.92-2.47,29.91-3.76,5-.63,10-1.37,15-2.09l15-2.17,15-2.35,6.38-1c2.87-.46,5.75-.92,8.61-1.42l15-2.57,3.75-.65,3.73-.65,2.25-.4,5.09-.92L509,737l58.83-10.79,52.95-9.65c1.89-.47,4-.93,6.25-1.36q23.52-4.73,47.1-8.88l-16.5,2.47a120.93,120.93,0,0,1-14.48,1.64c-3.91.19-6.6,0-7.16-.71-.17-.62,1.24-1.45,3.68-2.36-40.89,5.24-81.32,10.95-122,16.75-12,2.21-23.2,3.88-32.93,5l-17.4,3.85-17.77,3.81q-5.1,1.11-10.23,2.14l-6.07,1.22-1.53.31-8.94,1.8c-3,.6-6,1.19-9,1.75l-8.8,1.66c-3.05.59-6.11,1.16-9.17,1.74-6,1.13-12,2.15-18,3.23l-9,1.6-9.07,1.51-18.16,3-12,2c-4,.61-8,1.13-11.79,1.57s-7.56.68-11,.89a106,106,0,0,1-16.81,0,13.05,13.05,0,0,1-5-1.14c-7,.52-14,1.11-21,1.57L242.9,762.9c-7,.38-14.1.69-21.14,1l-5.28.25-5.3.17-10.58.35c-28.23.85-56.47.94-84.51.13q-23.18-.74-46.11-2.33-17.61-1.23-35-3l-2.08-.21-10.23-1.1-5.09-.55L12.49,757,0,755.34v-4.43c2.63.32,5.27.61,7.91.89q17,1.89,34,3.32c3,.25,6.1.48,9.14.71q20.7,1.54,41.39,2.47,15.2.69,30.41,1c27,.68,54.05.39,81.19-.64s54.38-2.81,81.72-5.6l-20.25,1.13-20.4.91-5.12.23-5.14.17-10.31.35c-3.44.11-6.88.26-10.34.34l-10.4.21c-7,.14-13.92.33-21,.33l-10.55.07c-3.52,0-7.05.06-10.6,0l-21.39-.2-21.63-.57q-5.39-.18-10.73-.4c-14.76-.62-29.27-1.52-43.64-2.68-14.73-1.17-29.31-2.61-43.84-4.3l-3.69-.43-5.43-.66Q5.65,746.91,0,746.15v-2.08l8.48,1,6.42.78,1.86.23,1.34.16,3.21.34,5.44.59q22.92,2.44,45.77,4.14Q95.67,753,118.86,754c1.56.07,3.13.12,4.7.18a1238.76,1238.76,0,0,0,211-10.18c4.2-.53,8.37-1.16,12.51-1.8l4.7-.73c-3,.2-6.06.4-9.09.58-42.75,2.66-84.93,3.63-126.8,3.21q-20.9,1.2-41.83,1.79-39,1.11-77.9,0-27.9-.83-55.68-2.9-6.16-.47-12.32-1-7.87-.68-15.71-1.46Q6.22,741,0,740.33v-9.86c2.24.19,4.5.36,6.75.53q17,1.29,34.09,2.1l-15.72-2.17c-4.16-.34-8.32-.84-12.47-1.32l-3.19-.36-1.64-.15h0l-4.16-.37-3.23-.29-.39,0V467.06Z" transform="translate(0.19 -158.74)"/></g></svg>