<svg id="Layer_1" data-name="Layer 1" xmlns="http://www.w3.org/2000/svg" viewBox="0 0 1293.71 53.28"><defs><style>.cls-1{fill:#f0bd2a;}</style></defs><title>Yellow Underline Left</title><path class="cls-1" d="M354.83,527.28l3.73.22c-2.38.19-5.94.23-10,.19,39.27,1.7,90.94-.09,124.23-2.53,12,0,22.7-.78,23.83-1.64S488.88,522,476.76,522c-2.66-.07-5.78-.11-7.71-.23-17.32-1.14-38.45-1.83-61.76-2.27l13.67.61c-6.74-.14-13.38-.28-20.89-.22.79.15,1.81.29,2.6.44-23.19-.89-55-.16-70.95,1.62s-10.38,4,12.81,4.86Z" transform="translate(-312.2 -514.85)"/><path class="cls-1" d="M398.13,531.78c-13.89-.41-27.22-.88-40.56-1.35l-2.64-.27.9,1.3.26-.08c12.49-1.23,33.08-1.89,52.05-2.39l6.76-.26A28.35,28.35,0,0,0,421,528c1.58-.65-4.34-1.18-13.18-1.2H397.6c-24.83-.5-63.89-.13-77.71,2.23-3.11.54-.37,1.16.31,1.76-.94.87,8.41,1.53,20.81,1.47s23.07-.83,23.92-1.71l6.35.12-5,.36c3.49-.79,14.8-1.08,23.21-1.57l12.61-.34-7.14-2-6.57.33c.51.08,1.47.2,1.39.21-12.49.68-24.24,1.35-37.92,1.85l-17.21.92c-4.66.43-4.2,1,.91,1.3l7.64.36-3.46-.22c17.61.28,36.18.36,53.61.67a57.42,57.42,0,0,0,7.55-.27C402.16,532.07,401,531.84,398.13,531.78Z" transform="translate(-312.2 -514.85)"/><path class="cls-1" d="M336,532.69c-2.86-.13-5.6-.27-9.67-.19l-1.73.18,5.58.29C334.16,533.18,336.22,533,336,532.69Z" transform="translate(-312.2 -514.85)"/><path class="cls-1" d="M324.58,532.68l-2.33-.12,1.56.18.46,0Z" transform="translate(-312.2 -514.85)"/><path class="cls-1" d="M1093.66,521.12q81.72-.2,163.87-.74a14,14,0,0,0,3.46-.25,10.28,10.28,0,0,0-3-.19c-54.72.33-109.15.59-163.62.71a19,19,0,0,0-3.6.24A8.39,8.39,0,0,0,1093.66,521.12Z" transform="translate(-312.2 -514.85)"/><path class="cls-1" d="M1501.92,529.46c-1.3.11-1.25.24.1.32a37.85,37.85,0,0,0,4.5,0c1.09-.09,1-.25-.11-.32A41.25,41.25,0,0,0,1501.92,529.46Z" transform="translate(-312.2 -514.85)"/><path class="cls-1" d="M1490.3,539.44c-7.64.26-14.89.54-21.36.95-1.21.06-2.56.06-3.58,0,.44.2-1,.4-3.77.52-54.27,2.23-112.66,3.5-170.16,5a9.89,9.89,0,0,1-2.42.5,178.48,178.48,0,0,1-20.25.89l-6.26-.06c-25.26,0-50.46,0-75.58-.08-5.13.29-11.09.5-17.58.62-21.71.85-43.5,1.67-65.76,2.35,1.4.13,2.25.29,2.24.47-.43.44-5.58.82-11.6.86l-9.1.12c8.71,0,17.44,0,26.12.08,1.26,0,2.42,0,3.48,0,9.55-.08,19.2-.19,29-.33,85.66-1.26,166.19-3.74,246.1-6.46a40.07,40.07,0,0,1,4.52,0c.78.1.64.24-.82.31-50.36,2.71-93.91,6-150.85,8-67.77,2.41-134.69,4.53-204.16,6.35-72.66.73-139.87,2.47-214,4C724.49,565.71,629.94,566.85,532,568c-36.69.72-70.32-.76-75.1-3.28-2.78-1.53,5.5-3.09,20.58-4.25l-8.95.06-14.19-.17c-13.42-.17-24.88-.69-32.11-1.49l-9.94-1c-13.23-1.92-34.65-3.42-45.48-5.46l2.42-.83-2.56-.21c-8.45-.51-14.14-1.22-16.11-2l.81-1c1.75-1.14,6-2.23,12.73-3.29-.24-.41.57-.83,2.33-1.23-5.8-.95-8.54-2-4-3.18-3.48-.25-2.91-.68,1.23-1,1.43-.1,3.15-.17,4.91-.2h0c-1.91-.23-2.48-.3-5.06-.56l-5.46-.09c-9.2-.08-9.2-.08-17.16-.17-6.87-.27-11.1-.71-11.1-.71-7.61-1.67-7.61-1.67-6.45-2.44.45-.08.95-.16,1.47-.23-6.07-.19-6.5-.21-8.13-.27s-2.9-.26-2.9-.26c-.26-.4-.26-.4-1.31-.54-.33-.15-.26-.3-.26-.3,3.39-.49,3.39-.49,3.48-.62.81-.13,1.91-.24,1.91-.24l6.22-.27,8.55,1,1.85-.38,2,.46-1.13-.43,4.32.23-4.93-.34c10.19.06,10.19.06,14.28,0s7.87-.13,8.3-.15c-.36-.13-.38-.23-.38-.23,10.9.06,10.9.06,21.52.14,1,.09,1.77.18,2.5.27a47,47,0,0,1,5.15-.21l5.57,0,1.2-.07a.07.07,0,0,0,0,0l4.71-.25,1-.06h.06l20.35-1.1c3.3,0,6.36.06,9.27.11l-2.71-.17c-1.73-.13-.15-.53-1.1-.56-23.28-.59-48.65-.67-73.65-.85-4.48.09-8.69-.1-9.35-.41s2.61-.64,7.2-.72c50.65-2.61,112.87-3,164.94-1.82q20.57.09,41.31.12c-.67-.06-1.33-.11-2-.18l10.73.2h1.16l-8.12-.63c-1.87,0-3.74-.11-5.64-.15-32.05,0-61.13-.78-92.1-1.16-16.65-.22-30.95-.75-46.68-1.09-4.06,0-6.86-.23-6.39-.52s4.25-.52,8.2-.53c52.49-1,112.41-1.18,154.47.82,9.58-.08,18.82,0,26.48.38h.43c-2-.18-3.89-.36-5.91-.53,7.17.07,11,.52,17.53.66-.75-.26-1.67-.52-2.42-.78,35.36.14,73.59-.48,106.33.36,1.32,0,2.55,0,3.78,0,14.08-.7,28.33-1.4,45-1.64l-16.85-.09c12.13-.47,24.17-.83,37.16-.92,35.16-.28,74.53.56,93.14,2.49,68.16-1,136.41-1.85,204.41-3.06a38.85,38.85,0,0,1,7.29.3c.36.24-2,.49-5.47.56-48.76,1.33-98.24,2.28-147.82,3.16,41.45,0,83.09,0,125.56-.38l16.3-.27c5.4-.09,10.74-.08,16.08,0,54.25-.54,105.73-.93,161.07-2.09,47.26-1,88.61-2,135.67-3.2,66.09-1.73,126.29-3.41,191.61-4.08,8.69-.16,16.74.2,17.76.81s-5.24,1.22-14,1.39c-136.2,3.28-269.91,6.94-412.33,8.09-15.36.12-30.47.25-45.5.35.19.09.37.17.38.25,0,.33-1.43.66-3.83.94,17.07-.09,34.28-.13,51.54-.13,48-1.19,96.06-2.38,147.25-2.54,35.14-.1,67,.3,99.48.63,41.18-.8,82.24-1.7,123.84-2.45a24.75,24.75,0,0,1,4,.1c.6.11-.3.24-2,.3-28.6,1-57.9,1.92-87.48,2.73,4.67.34,7.45.81,7.08,1.35s-4,1.11-9.5,1.52l20.12-.16c4.15,0,7.41.16,7.3.44s-3.39.56-7.33.59l-82,.71c-32.78.64-65.45,1.24-98.29,1.8a52.57,52.57,0,0,1,9.51,1.25h0l15.21-.2c92.77-2.52,187.74-4.36,283.5-5a12.72,12.72,0,0,1,3.46.2,10,10,0,0,1-3.1.25q-43.36.3-86.47.91h.12c1.16.07,1.38.21.11.32a42.29,42.29,0,0,1-4.51,0c-1.33-.07-1.21-.22-.13-.31-53.53.76-106.68,1.84-159.13,3.16,48.74-.62,97.49-1.2,146.17-1.45l16-.64a27.36,27.36,0,0,1,4,.13c.41.1-.66.24-2.17.29l-4.47.16c9.22,0,16.33.43,16.19,1.1-.5.69-8.42,1.3-18,1.37q-38.46.59-76.73,1l-8.29.21-8.32.4q59.6-.19,118.8-.27c3.39,0,6.27.13,6.35.36s-2.66.47-6,.51c-69.45,1.66-139.76,3-210.37,4.18-23.17,1.27-46.41,2.55-70.08,3.81l9-.06c76.77-.78,141.89-4.38,216.21-5.74a16.51,16.51,0,0,1,3.65.16c.2.12-1.06.25-3,.27-36.27.77-69.37,2.11-105.35,3.18-29.81.89-58.15,1.72-85.85,2.78,56.64-.86,111-2.68,167.06-3.83,2.45-.08,4.92,0,6.48.07a5.55,5.55,0,0,1,1.38-.19c7-.4,14.66-.71,22.47-1a28.06,28.06,0,0,1,4.18.09C1492.87,539.22,1492,539.35,1490.3,539.44Zm-985.76-4.05-1.41-.13,5,.2,6.92.9Zm-86.73,4.45h.05l-4-.5Zm553.93-14.09c-29.8.28-59.29.35-88.72,0l21.54-.38Q938,525.52,971.74,525.75Zm-525.43,6.56c7.85.43,14,1,19.74,1.57,5.16-.16,10.55-.26,16-.29,14.67-.08,28.95-.1,43-.06-1.83-.32,1.54-.32,3.26-.37l5.29-.14c-15-.09-30.05-.21-45.36-.34C474.45,532.56,459.45,532.56,446.31,532.31Zm-104.76,2.38-1.28-.11,2.8-.54S342.4,534.31,341.55,534.69Zm-4.41.91,2.14,0A4,4,0,0,1,337.14,535.6Zm19.72.45c-1.17-.13-1.88-.21-2.79-.25ZM371,550.94l7.66-2.63-8.36,2.54Z" transform="translate(-312.2 -514.85)"/></svg>