<svg id="Layer_1" data-name="Layer 1" xmlns="http://www.w3.org/2000/svg" viewBox="0 0 1749.06 424.8"><defs><style>.cls-1{fill:#239080;}.cls-2{fill:#f0bd2a;}</style></defs><title>Barriers Logo 2.26 RGB</title><path class="cls-1" d="M315.72,623.79c0,21.43-2.51,39.89-7.67,55.36s-12.57,28.11-22.23,38a88.42,88.42,0,0,1-35.78,22q-21.22,7.14-48.81,7.14H84.83V640.86h.34c19.7-.66,44.11-3.64,74.13-9.2v.07l9.2-1.79v52.52h17.79q27.57,0,38.09-15.28t10.52-44.91c0-2.25-.07-4.49-.14-6.61l1.59-.4a1.71,1.71,0,0,1,.53-.13l7-1.65c17.86-4.3,38-9.26,60.85-15.08l8.93-2.32A172.4,172.4,0,0,1,315.72,623.79Z" transform="translate(-84.83 -327.5)"/><path class="cls-1" d="M554.61,746.21H477.49L464.86,659H409.24l-13.1,87.23h-79l27.32-158,1.52-.39c.79-.2,1.65-.4,2.51-.67l5.76-1.45,35.78-9.26c10.31-2.71,20.76-5.29,31.15-7.74l-4.5,35.72h40.21l-5.36-42.66a3,3,0,0,0,.73-.13l.13-.07c22.29-4.83,45.24-9.33,68.32-13.36Z" transform="translate(-84.83 -327.5)"/><path class="cls-1" d="M801.36,746.21H714.92L673.32,561.1H649.44V746.21H565.78V541.06c.2,0,.46-.07.66-.07l.66-.13c18.13-2.58,34.92-4.7,51.26-6.48a1491.65,1491.65,0,0,1,157.34-8.93c-6.48,8.13-15.21,15.14-26.19,20.83Z" transform="translate(-84.83 -327.5)"/><path class="cls-1" d="M1056.58,746.21H970.14L928.54,561.1H904.67V746.21H821V526.11a1131.79,1131.79,0,0,1,113.23,8.73c29.43,3.77,50,7.94,60.19,10.45l10.78,3Z" transform="translate(-84.83 -327.5)"/><path class="cls-1" d="M1160.35,583.12V746.21h-83.66V566.45l9.19,2.19v-.2c21.83,4.83,43.65,9.19,65.28,13v.13l7.61,1.33h.06Z" transform="translate(-84.83 -327.5)"/><path class="cls-1" d="M1364.58,684.51v61.7h-171V588.28c5.56.79,11.31,1.59,17.07,2.31,19,2.52,38.29,4.43,57.34,6v.13l8.53.67c.26,0,.46.06.73.06v87Z" transform="translate(-84.83 -327.5)"/><path class="cls-1" d="M1614.65,746.21h-86.44l-35.12-156.28c19.77-3.37,39-7.47,57.07-12.23,3.44-.93,7-2,10.52-2.91v.06l8.86-2.58Z" transform="translate(-84.83 -327.5)"/><path class="cls-1" d="M1462.73,594.3V746.21h-83.66V600.32h.2c25.46-.6,50.32-2.32,74.27-5v.2Z" transform="translate(-84.83 -327.5)"/><path class="cls-1" d="M1833.89,648.26c0,19.38-4.1,37-12.17,52.78a93.59,93.59,0,0,1-34.39,37.5q-22.12,13.79-52.58,13.76-35.52,0-59.32-13.76c-15.88-9.19-27.91-23.34-36-42.59s-12.63-44.11-13.56-74.67l71.49-11.77q.49,26.58,4.44,42.86c2.64,10.91,6.41,18.71,11.24,23.47a24,24,0,0,0,17.53,7.15q13.08,0,17.06-9.73a53,53,0,0,0,4-20.37c0-17-3.76-31.41-11.24-43.12s-17.59-23.54-30.36-35.45l-32.73-31.08c-1.65-1.59-3.31-3.18-5-4.83l8.6-3v-.06L1691,531.8l5-1.72c19.91-7.08,39.29-13.89,57.74-20.17l4.5-1.53,16.66,16a226.78,226.78,0,0,1,41.87,52Q1833.89,605.44,1833.89,648.26Z" transform="translate(-84.83 -327.5)"/><path class="cls-2" d="M308.05,573.33q-7.74-20.93-22.69-33.4t-36.9-15.61a66.35,66.35,0,0,0,29.63-13.75c8.26-6.81,14.68-15.87,19.18-27.25s6.81-25.46,6.81-42.06c0-23.15-3.24-41.74-9.59-55.89s-15.21-25-26.46-32.6S244,339.93,229.48,337.16a250.22,250.22,0,0,0-46-4H84.83V621.81c20.9-.73,47.42-4.3,81-10.71l1-.2c.59-.13,1.12-.2,1.72-.33V558.52h17.32q18.17,0,29,6.35c7.14,4.3,12.31,11,15.41,20.17A70,70,0,0,1,233,596.48c10.58-2.51,21.89-5.23,34.33-8.33C280,585,294,581.47,309.43,577.5,309,576.11,308.57,574.72,308.05,573.33Zm-80.89-100q-3.48,12.3-13.29,18.65c-6.55,4.24-16.21,6.35-29,6.35H168.5v-104H183c10.59,0,19.38,1.85,26.46,5.62a37,37,0,0,1,15.87,16.53q5.35,11,5.36,27.32C230.67,455.34,229.48,465.2,227.16,473.33Z" transform="translate(-84.83 -327.5)"/><path class="cls-2" d="M517.57,529.42h-.07c-19.91,3.5-39.75,7.34-59.32,11.5v-.13l-8.93,1.92-12.43-99.47L423.65,548.53l-3.17.73c-.07,0-.07,0-.13.06l-6.15,1.46v.07c-9.66,2.31-19.31,4.62-29,7.14l-37.17,9.59,40.61-234.46H484Z" transform="translate(-84.83 -327.5)"/><path class="cls-2" d="M780.13,375.19q-15.68-23.71-43.72-32.87c-18.71-6.15-40.8-9.2-66.4-9.2H565.78V521.81l9.26-1.32v.06c14.35-2,28-3.7,41.2-5.15a1518.75,1518.75,0,0,1,163.3-9h7A92,92,0,0,0,792,487.62c2.51-13.23,3.7-28.38,3.7-45.37Q795.74,398.9,780.13,375.19ZM714.19,481.8q-4,13-13.75,19.84c-6.55,4.63-15.74,6.88-27.58,6.88H649.44V394.3h27.12c15.94,0,26.79,5,32.74,14.81s8.86,23.61,8.86,41.27C718.16,462.62,716.84,473.07,714.19,481.8Z" transform="translate(-84.83 -327.5)"/><path class="cls-2" d="M1035.29,375.19q-15.68-23.71-43.65-32.87t-66.4-9.2H821V507h.27l8.93.26v.07c93.52,3.5,156,15.8,172.55,20.43l15,4.17c1.91.53,3.76,1.06,5.68,1.52a64.8,64.8,0,0,0,10.06-11.38c6.68-9.72,11.3-21.16,13.82-34.45a251.05,251.05,0,0,0,3.7-45.37Q1051,398.9,1035.29,375.19ZM969.41,481.8c-2.64,8.66-7.27,15.28-13.82,19.84s-15.74,6.88-27.58,6.88H904.67V394.3h27.11q23.81,0,32.74,14.81t8.86,41.27C973.38,462.62,972.06,473.07,969.41,481.8Z" transform="translate(-84.83 -327.5)"/><path class="cls-2" d="M1160.35,333.12V563.74c-27-4.56-54.43-10-81.55-16.33h-.06c-.66-.14-1.39-.34-2-.47V333.12Z" transform="translate(-84.83 -327.5)"/><path class="cls-2" d="M1277.22,395.36V497.87h65.87V561.1h-65.87v17.19c-21.43-1.65-43-3.83-64.16-6.61-6.08-.8-12.1-1.59-18-2.45l-.13-.06-1.33-.2V333.12h170.11v62.24Z" transform="translate(-84.83 -327.5)"/><path class="cls-2" d="M1593.42,375.19q-15.68-23.71-43.72-32.87c-18.72-6.15-40.81-9.2-66.4-9.2H1379.07V581.2h.33a808.73,808.73,0,0,0,82.2-6,6.21,6.21,0,0,1,1.13-.13v-14h23.88l2.31,10.18c.13,0,.33-.06.46-.06,19.38-3.25,38.16-7.28,55.95-12,6.22-1.65,12.64-3.43,19.12-5.35.06,0,.2-.07.26-.07l-1.91-7.54q18.65-9.72,28.7-24.21c6.74-9.72,11.31-21.16,13.82-34.45s3.7-28.38,3.7-45.37Q1609,398.9,1593.42,375.19ZM1527.48,481.8c-2.65,8.66-7.21,15.28-13.76,19.84s-15.74,6.88-27.58,6.88h-23.41V394.3h27.12q23.81,0,32.73,14.81t8.87,41.27C1531.45,462.62,1530.12,473.07,1527.48,481.8Z" transform="translate(-84.83 -327.5)"/><path class="cls-2" d="M1826.42,444.83l-72,9.65c-.34-12.23-1-22.88-2.12-31.87s-3.31-16-6.75-20.9-8.73-7.41-15.87-7.41q-11.72,0-17.07,10.71a46.93,46.93,0,0,0-5.42,21.43q0,22.92,10.06,37.5a204.18,204.18,0,0,0,25.66,29.5c-17.07,5.88-34.93,12.17-53.18,18.65l-31.28,11a188.56,188.56,0,0,1-17.39-25q-14.68-25.2-14.69-62.44,0-52.58,28.51-80.35t77.58-27.78q30.35,0,48.87,11.24a75.45,75.45,0,0,1,28,29.3,128.08,128.08,0,0,1,13,38.23A261,261,0,0,1,1826.42,444.83Z" transform="translate(-84.83 -327.5)"/></svg>