<svg xmlns="http://www.w3.org/2000/svg" viewBox="0 0 1921.79 198.32"><defs><style>.cls-1{fill:#2ea294;}.cls-2{fill:#222;}</style></defs><title>Top Wave Explainer</title><g id="Green_Top" data-name="Green Top"><path class="cls-1" d="M1921.79,915.77l-1.79.54v3.77q-5.7,1.92-11.41,3.76c-8.27,2.7-16.55,5.3-24.77,7.79q-7.46,2.26-14.84,4.41c-14.52,4.2-28.73,8-42.31,11.31q-5.42,1.33-10.66,2.54c-5.33,1.23-10.53,2.36-15.61,3.45-4.2.87-8.29,1.66-12.27,2.43l-3.64.68h0c-2.71.5-5.36,1-7.94,1.39-5.12,1.57-10.16,3-14.87,4.12s-9.09,2-12.93,2.62c-7.68,1.21-13.13,1.28-14.62.15s1.1-3.2,6.3-5.69h.09l.61-.29c2.84-1.29,6.43-2.83,10.56-4.33s8.83-3.06,14-4.68c4.4-1.68,9.59-3.43,12.7-4.91,13.84-6.63,29.48-13.6,46.66-20.93s36-15.09,56.13-23.07l-23,10.45c5.74-2.3,11.5-4.61,17.43-6.89s12.18-4.58,18.83-6.82c-1.16,1-2.73,2.08-3.91,3.06,9-4,19-8,29.51-11.79v27.4Z" transform="translate(0 -881.95)"/><path class="cls-1" d="M1915.52,934.7l4.48-1.88V936a45.17,45.17,0,0,1-8.69,2C1908.83,938.14,1910.57,936.68,1915.52,934.7Z" transform="translate(0 -881.95)"/><path class="cls-1" d="M1921.79,915.77l-1.79.54v7.87c-8.82,2.53-17.68,5.15-26.28,7.73l-12.24,3.38c-6,1.35-10.16,1.8-11.74,1.28a1.05,1.05,0,0,1-.76-.53c-.54-1.32,4.27-4.29,12.38-7.74h.06c2.83-1.21,6.07-2.47,9.62-3.75l18-6.41c3.5-1.39,7.18-2.83,11-4.29v2.38Z" transform="translate(0 -881.95)"/><path class="cls-1" d="M635.55,901c-52.5,9.17-103.85,19.87-154.4,30.45l-37.77,7.88L425,943l-4.6.93-4.6.88-9.21,1.75c-24.56,4.64-49.18,8.91-73.84,12.56-3.31.5-6.15.59-6.4.17s2.26-1.11,5.32-1.55c24.65-3.64,49.21-7.93,73.71-12.55l9.19-1.75c3.06-.58,6.12-1.17,9.17-1.8L442.06,938l37.66-7.86c50.41-10.57,101.63-21.27,154.15-30.46,3.54-.59,6.55-.73,7.12-.4C641.25,899.67,638.84,900.42,635.55,901Z" transform="translate(0 -881.95)"/><path class="cls-1" d="M1047.43,909.51l-8.85-1.87-1.65-.35c-2.74-.56-5.48-1.1-8.24-1.63l-12.94-2.5q-6.21-.92-12.47-1.74-27.33-3.67-55.22-5.77c-22.84-1.74-45.81-2.42-68.62-2.29,30.19.57,60.55,2.71,90.4,5.89l5.6.58,5.56.68,11.13,1.35q1,.1,2,.24c3,.38,6,.84,9.08,1.24l11,1.5L1022,906l11.09,1.69,3.08.47L1047,910c3.63.59,7.27,1.17,10.86,1.82C1054.44,911,1050.93,910.24,1047.43,909.51ZM1728.64,1010l-1.39.79c-1.37.8-4.12,2.31-9.61,5.33l5.26-2.39c3.27-1.48,7.6-3.6,11.9-5.67l2.33-1.11Zm185-91.73h0q-16.14,4.88-32.23,10.06h-.06q-14.94,4.79-29.74,9.7-18,5.94-35.61,11.89-18.91,6.35-37.33,12.52c-23.69,7.9-46.63,15.39-68.45,22.14q-12.21,3.33-24.48,6.3-14.18,3.45-28.4,6.38-3.72.76-7.46,1.49c-3.24.64-6.47,1.24-9.71,1.83l3.22-1.19-9,1.93c-1.51.31-3,.65-4.52,1l-4.51.84-2,.31,6.68-2.12,6.64-2.28,4.89-1.15,4.51-1c.71-.13,1.42-.26,2.12-.41,9.56-1.81,19-3.87,28.2-6.12,16.25-3.94,32.12-8.49,47.86-13.4,20-6.27,39.84-13.14,60.18-20.42h0q8.16-2.91,16.44-5.93c28.17-10.23,52-20.69,79-31.57,7.09-2.5,11.73-5,10.44-5.66s-8.27,1-15.17,3.42c-23.32,7.31-47,14.92-70.47,22.36C1783,946,1761.4,952.72,1740.49,959h-.09c-1.56.45-3.14.92-4.69,1.39-22.4,6.69-44,12.82-64.26,18.25-10.14,2.76-19.94,5.25-29.36,7.69l-3.78.94q-5.1,1.27-10,2.57c-4.33,1-8.57,2.06-12.7,3.12l-.47.12-3,.41c-1,.14-2,.24-2.95.36l-.79.1-5,.62q-2.89.38-5.73.78l-2.82.4-2.77.35c-3.67.46-7.24,1-10.68,1.52l-2.56.43-2.49.36c-1.65.24-3.26.5-4.83.77l-.7.07,4.79-1.28c1.58-.42,3.15-.82,4.78-1.32-11.75,1.18-18,3.26-28.72,4.11,1.22-1,2.7-1.92,3.89-2.89-3.61.17-7.25.39-10.9.5l-10.95.14c-1.83,0-3.68.06-5.51,0l-5.49-.13c-3.68-.1-7.33-.16-11.06-.29l-11.48-.65c-1.92-.12-3.83-.19-5.75-.34l-5.77-.47c-3.84-.33-7.68-.58-11.53-1l-11.53-1.17c-3.83-.35-7.68-.86-11.51-1.31l-5.74-.68c-1.91-.22-3.82-.43-5.73-.71-7.65-1-15.23-2-22.78-3.13-15.07-2.09-29.94-4.49-44.38-6.58-2.3-.47-4.46-.86-6.62-1.25-23.84-7.46-47.92-15.58-77.29-23.91,10.07,2.42,19.88,4.79,29.86,7.05-20.78-6.68-41.64-13.33-64.88-19.78-15.72-4.38-32.19-8.75-48.66-12.83l-12.38-3q-6.17-1.47-12.32-2.86l-12.17-2.7c-4.05-.86-8.07-1.69-12-2.5-7.88-1.62-15.69-3-23.1-4.35s-14.66-2.37-21.39-3.33-13.2-1.64-19.05-2.2-11.3-.83-16-1c-2.47-.6-5-1.16-7.47-1.72l-4.93-1.08c-3.23-.71-6.45-1.43-9.68-2.13l-2.78-.6-12.58-2.57c-2.09-.42-4.18-.86-6.29-1.27l-2.1-.39-4.25-.79-12.71-2.36-12.83-2.15-6.42-1.07-6.47-1-12.95-1.9c-4.34-.58-8.71-1.11-13.06-1.66s-8.7-1.11-13.1-1.53L938.51,886c-2.19-.24-4.39-.41-6.59-.59l-6.61-.54q-26.4-2.05-52.74-2.68t-52.38.09c-17.38.41-34.63,1.3-51.78,2.44s-34.2,2.6-51.09,4.35S683.63,892.79,667,895c-6.88.88-12.9,2.39-14,3.39-.53.91,4.14,1,11,.14q35.82-4.15,72.54-7.06c24.46-1.88,49.18-3.29,74.16-3.86s50.15-.43,75.44.68l9.49.5c3.17.18,6.33.31,9.49.55l9.51.67,4.75.34,4.75.42,9.51.85c3.16.28,6.32.67,9.48,1,6.31.7,12.65,1.33,18.9,2.21-2.63-.25-5.25-.56-7.91-.77l-8-.63c-5.3-.4-10.6-.89-15.92-1.15s-10.63-.67-15.94-.85-10.63-.49-15.94-.57q-31.86-.87-63.56.26c-42.23,1.44-84.1,5.22-125.65,10.37-5.3.59-10.63,1.15-15.93,1.81s-10.64,1.26-15.94,2-10.46,1.43-15.61,2.29-10.3,1.76-15.38,2.74c-13.08,2-25.95,4.19-38.76,6.38s-25.45,4.5-38,6.85c-25.16,4.67-50,9.52-74.67,14.34l-37,7.19c-12.45,2.41-24.4,4.58-36.63,6.79-24.39,4.26-49.1,8.06-74.29,11.33-43,5.43-83.42,9.24-123.66,11.22l-15.08.73-15.09.49-7.57.24-6.08.1h-.28l-1.21,0-15.2.23-15,0h-8c-2.57,0-5.14-.1-7.73-.15l-1,0-14.52-.3L100.71,975C66,973.51,32.58,970.59,0,966.29v10.49q44.88,5.67,90.83,7.59l.68,0q12.15.52,24.35.78,21.64.48,43.45.18c3.28,0,6.58-.08,9.87-.16q18.54-.36,37.16-1.26,48.75-2.33,98-8,47.58-5.43,95.49-13.67l24-4.27,24-4.58L497,943.56c28.52-5.76,56.78-11.38,85.14-16.69-.3.34-.57.68-.5,1,.28,1.14,3.25,1.7,8,1.76-32.19,6.06-64.22,12.82-96.11,19.77-22.41,3.81-44.91,7.72-66.8,11.29-5.51.91-11,1.74-16.56,2.62s-11.06,1.75-16.61,2.54l-16.66,2.48-16.73,2.33-8.38,1.17-8.41,1.09-16.87,2.21c-11.28,1.34-22.6,2.82-34,4.06s-22.85,2.49-34.39,3.75l-17.36,1.69c-2.91.28-5.82.59-8.73.85l-8.76.76-6.88.61q-17.34,1.51-34.15,2.74c-2.79.21-5.57.4-8.33.59-14.7,1-29.15,1.85-43.48,2.5q-7.27.33-14.5.59l-7,.24c-22.68.72-45.15.9-67.79.41L27.05,992.7l-3.52-.29L13,991.3c-4.34-.48-8.7-.9-13-1.41v18c3.93.37,7.87.72,11.82,1l9.52.8,9.53.61,9.54.61,4.77.3,4.77.21,19.11.83,19.13.47q39.9,1.54,79.9.6c3-.06,6-.13,9-.23q32.61-.92,65.24-3.32,4.49-.32,9-.68,10.53-.81,21-1.78a108.68,108.68,0,0,0-10.66,3.27c-.47.17-.92.35-1.35.52a30.44,30.44,0,0,0-3.9,1.81,12.56,12.56,0,0,0-1.26.81.06.06,0,0,0,0,0c-9.56.81-19.07,1.67-28.58,2.27q-17.75.85-35.55,1.22c-2.8.07-5.6.12-8.4.17q-10.92.19-21.83.28H140.2l-4.12-.07-8.25-.14c-11-.1-22-.55-33-.9-2.75-.06-5.5-.24-8.25-.37l-8.24-.42-8.25-.41c-2.74-.13-5.49-.36-8.23-.53l-16.48-1.12L29,1012.37c-2.74-.25-5.49-.46-8.23-.73l-8.21-.86-8.21-.87-4.1-.43-.2,0V1011q7.14.81,14.3,1.51l4.63.49c1.54.17,3.08.32,4.63.45l9.27.79c6.19.53,12.36,1.12,18.56,1.48s12.38.87,18.57,1.24l18.59.93q37.17,1.56,74.29,1.4a1323.53,1323.53,0,0,1-162.84-5v10.2l.39,0,9.07.81c5.22.58,10.43,1.25,15.66,1.68l15.72,2.17q-20.45-1-40.84-2.63v9.86q6.23.67,12.46,1.3c67.29,6.71,135.57,7.45,203.44,3.57,44.84.45,90-.69,135.89-3.78-5.68.88-11.42,1.79-17.21,2.53a1238.72,1238.72,0,0,1-211,10.17c-34.15-1.22-68.08-3.74-102.25-7.51l-3.21-.34-3.2-.39-6.42-.79-8.48-1v2.08q8.37,1.11,16.75,2.1c33.35,4,66.89,6.67,101.9,7.82l21.63.57,21.39.2c3.55.06,7.08,0,10.6,0l10.55-.06c7,0,14-.19,21-.33l10.4-.22c3.46-.07,6.9-.22,10.34-.33l10.31-.35,5.14-.17,5.12-.23,20.4-.91,20.25-1.13c-27.34,2.79-54.59,4.55-81.72,5.6s-54.18,1.31-81.19.64-54-2-80.94-4.23Q20.94,1049.42,0,1047v4.43l2.64.36,9.85,1.3,5.08.65,5.09.56,10.23,1.1c27.34,2.82,55.16,4.64,83.2,5.53s56.28.72,84.51-.13l10.58-.35,5.3-.17,5.28-.26c7-.34,14.1-.65,21.14-1l21.09-1.32c7-.46,14-1.05,21-1.57a13.25,13.25,0,0,0,5,1.14,105,105,0,0,0,16.81,0c3.45-.2,7.16-.5,11-.88s7.8-1,11.79-1.57l12-2,18.16-3,9.07-1.51,9-1.6c6-1.08,12.05-2.1,18-3.23l18-3.4c3-.56,6-1.15,9-1.75l8.94-1.8c5.57-1.12,11.13-2.23,16.66-3.43l1.17-.25,17.77-3.8,17.4-3.85c9.73-1.11,20.92-2.79,32.93-5,40.67-5.8,81.1-11.52,122-16.75-2.44.91-3.85,1.74-3.68,2.36.56.68,3.25.9,7.16.71a123,123,0,0,0,14.48-1.64l16.5-2.47q-23.53,4.14-47.1,8.88c-2.28.43-4.36.89-6.25,1.36l-52.95,9.64L509,1033.05l-29.38,5.32-7.34,1.31-7.48,1.3-15,2.57c-5,.88-10,1.63-15,2.44l-15,2.35-15,2.17c-5,.71-10,1.46-15,2.09-10,1.29-19.93,2.66-29.91,3.76l-14.94,1.72-14.95,1.54c-79.61,8.06-159.09,10.28-237.88,5.72a46.18,46.18,0,0,0-8.94-.07c-1.54.32-1.29.83,1.6,1.11,6.21.7,12.37,1.18,18.5,1.74s12.22,1.16,18.27,1.56l18.12,1.38c6,.41,12,.74,18,1.11l9,.55,9,.4c6,.26,12,.56,17.94.78,12,.33,24,.76,36.07.8l9.1.08,4.57,0,4.57,0,18.45-.17c6.19-.09,12.4-.31,18.69-.49l9.47-.3,9.53-.44c25.57-1.15,52.06-3.24,80-6.35l12.47-1.39,12.41-1.53,12.41-1.55c4.14-.51,8.24-1.1,12.37-1.66,8.23-1.12,16.48-2.23,24.67-3.48s16.53-2.44,24.37-3.66c31.81-4.9,63.2-9.85,94.36-14.52q21.51-3.21,42.89-6.19c47.63-6.61,94.77-12.11,141.6-15.07a893.65,893.65,0,0,1,92.38-4.14q22.47.25,44.38,1.79c2.39.19,4.78.35,7.16.54,1.26.09,2.52.2,3.77.31l10.86,1,10.82,1.25,5.42.63c1.8.21,3.61.5,5.42.75l10.86,1.53c3.63.55,7.27,1.18,10.9,1.76l5.46.89c1.82.3,3.65.67,5.48,1l11,2c3.67.72,7.35,1.5,11,2.24l5.53,1.12c1.84.39,3.7.82,5.55,1.23l6.44,1.43,4.69,1,11.21,2.67,5.61,1.34,5.66,1.44,11.35,2.88c7.63,2,15.24,4,23,6.19,15.43,4.23,31.2,8.85,47.3,13.62,19.39,5.76,38.91,11.73,58.7,17.73h676a9.57,9.57,0,0,0,1.84-2.49,2.57,2.57,0,0,0-.13-2.72c-1.14-1.56-4.47-2.36-9.64-2.47-7.7-.2-19.33,1.15-34.17,3.63,5.38-1.63,10.74-3.2,16-4.88l.66-.21,11.4-4,1.53-.53,6.58-2.36,6.24-2.23c3.59-1.31,7.09-2.61,10.47-3.92,11.4-4.4,21.52-8.76,29.94-12.83,1.25-.6,2.46-1.2,3.62-1.78,4.36-2.2,8.18-4.3,11.38-6.26l6.66-3.89V936.81l-1.61.39-1.81.41-.09,0-37.38,9.11c-5.74,2.11-11,4.12-16,6.09,1.56-.76,3-1.49,4.46-2.22,2.84-1.48-.51-1.81,1.1-2.48,16.37-6.68,33.57-13.43,51.34-20.14V916.31C1917.89,916.94,1915.77,917.57,1913.66,918.22Zm-223,93c-3.15.61-6.27,1.13-9.39,1.64q16-3.75,32-8.13,5.73-1.56,11.46-3.2,13.83-4,27.72-8.32c2.5-.78,5-1.58,7.51-2.38,23.79-7.58,49.77-16.13,72.22-24.78-6.51,3.06-12.21,5.87-17.44,8.63s-10,5.38-14.62,8q-3.45.9-6.94,1.86l-7,1.91c-4.71,1.29-9.46,2.74-14.23,4.12l-9.25,2.73q-15.22,4.44-30.17,8.54-6.42,1.75-12.78,3.44-11.51,3-22.9,5.85C1699.6,1009.26,1693.7,1010.69,1690.63,1011.22Zm203.68-39.1-1.38.93-.09,0Z" transform="translate(0 -881.95)"/></g><g id="Black_Top" data-name="Black Top"><path class="cls-2" d="M1472.63,970.55l24,4.59,24,4.26q47.64,8.15,95,13.61l.52.06q16.08,1.83,32.13,3.33c3,.29,6.09.56,9.13.83q33.76,2.94,67.3,4.3c2.59.11,5.17.21,7.76.29q36.25,1.26,72.15.49A1121.32,1121.32,0,0,0,1920,994V983.48c-32.45,4.26-65.77,7.17-100.3,8.67l-15.73.62-15.57.32c-2.58,0-5.15.12-7.72.15l-7.7,0-10.4,0h-4.89l-5.32-.08-9.88-.15-7.58-.12-7.56-.25-15.09-.49-15.09-.73q-5.7-.29-11.42-.62-4.66-.26-9.33-.57c-12.62-.81-25.3-1.8-38.11-3-21.12-1.9-42.61-4.27-64.8-7.07-25.18-3.27-49.89-7.07-74.29-11.33-12.22-2.21-24.17-4.37-36.62-6.79l-37-7.19c-24.71-4.82-49.51-9.67-74.68-14.33q-18.84-3.52-38-6.85c-12.8-2.19-25.68-4.38-38.75-6.39q-7.63-1.47-15.38-2.74t-15.61-2.28c-5.3-.71-10.63-1.33-15.94-2s-10.63-1.22-15.93-1.81c-41.56-5.14-83.42-8.93-125.66-10.37q-6.87-.23-13.76-.37-16.59-.37-33.25-.19c-1.84,0-3.67,0-5.5.07q-5.52.07-11,.23c-5.31.09-10.63.38-15.94.57s-10.63.56-16,.85-10.61.75-15.91,1.16l-8,.63c-2.65.2-5.27.51-7.91.76,6.26-.88,12.6-1.51,18.91-2.21,3.16-.33,6.31-.72,9.48-1l9.51-.84,4.75-.43,4.75-.34,9.5-.67c2.24-.17,4.48-.28,6.72-.4l2.78-.15,3.92-.21,5.57-.29q11.51-.5,23-.75,26.37-.58,52.48.07c25,.57,49.7,2,74.16,3.87s48.65,4.28,72.53,7.05c6.85.9,11.53.77,11-.14-1-1-7.06-2.51-13.94-3.38q-25-3.26-50.34-5.87T1152,901.87c-17.16-1.14-34.41-2-51.79-2.44s-34.84-.47-52.37-.09q-7.18.17-14.38.45-15.08.57-30.19,1.63c-2.72.19-5.45.39-8.17.6l-1,.08-5.61.46c-2.2.18-4.4.35-6.59.6l-13.17,1.34c-4.4.42-8.75,1-13.1,1.53s-8.72,1.08-13.06,1.66l-13,1.9-6.47,1-6.42,1.07-12.83,2.15-12.71,2.36-6.35,1.19c-2.11.4-4.2.84-6.3,1.27L866,921.15c-4.18.88-8.31,1.82-12.46,2.73s-8.31,1.82-12.4,2.8c-4.75.14-10.15.45-16,1s-12.25,1.29-19.05,2.2-13.95,2-21.39,3.33-15.23,2.73-23.1,4.35c-3.95.81-8,1.64-12,2.5l-12.18,2.7q-6.17,1.39-12.31,2.86l-12.38,3c-16.47,4.08-32.95,8.45-48.66,12.84-23.24,6.44-44.11,13.09-64.88,19.78,10-2.27,19.79-4.64,29.86-7.05-29.37,8.32-53.45,16.44-77.29,23.9-2.16.4-4.32.78-6.62,1.25-14.44,2.09-29.31,4.49-44.38,6.59-7.55,1.15-15.14,2.07-22.78,3.13-1.91.27-3.82.48-5.73.7l-5.74.68c-3.83.45-7.68,1-11.51,1.31l-11.54,1.17c-3.84.37-7.68.63-11.53,1l-5.76.47c-1.92.16-3.84.23-5.75.34l-11.48.65c-3.73.13-7.38.19-11.06.29l-5.49.14c-1.84,0-3.68,0-5.51,0l-11-.13c-3.65-.12-7.29-.34-10.91-.51,1.2,1,2.68,1.93,3.9,2.89-10.76-.85-17-2.93-28.73-4.11,1.64.5,3.21.9,4.78,1.33l4.8,1.27-.71-.07c-1.57-.27-3.18-.52-4.82-.77l-2.49-.36-2.56-.42c-3.44-.56-7-1.07-10.68-1.53l-2.77-.34-2.82-.41q-2.83-.4-5.73-.78l-5.84-.72c-1-.12-2-.21-3-.35l-3-.41c-4.29-1.11-8.68-2.17-13.18-3.25s-9.12-2.35-13.82-3.5c-9.41-2.45-19.21-4.93-29.35-7.69-10.52-2.82-21.4-5.83-32.57-9l-10.06-2.88q-10.67-3.09-21.63-6.37l-4.8-1.44h0l-.48-.23h0l-.1,0c-2.83-1.29-6.42-2.83-10.55-4.33s-8.84-3.06-14-4.67c-4.4-1.69-9.58-3.44-12.69-4.92-13.85-6.63-29.48-13.59-46.66-20.93s-36-15.08-56.14-23.07l23,10.45c-5.75-2.29-11.5-4.61-17.43-6.89S32.67,916.91,26,914.67c1.17,1,2.74,2.08,3.91,3.06-9.12-4-19.27-8.06-29.92-11.94V945c17.92,6.75,35.26,13.55,51.76,20.29,1.6.67-1.75,1,1.09,2.48,1.43.73,2.91,1.46,4.46,2.22-5-2-10.26-4-16-6.09L3.92,954.8l-.09,0L2,954.33l-2-.5v126.44H1920v-73.2c-4.2.5-8.41.9-12.61,1.36l-10.5,1.11-3.52.3-14.06,1.18c-29.78.65-59.28.12-89.33-1.23-23-1-46.29-2.57-70.35-4.53-2.14-.17-4.28-.34-6.44-.53q-8-.66-16-1.39l-8.76-.76c-2.92-.25-5.83-.57-8.73-.85l-17.37-1.69-12.39-1.32-8.3-.88q-6.87-.74-13.7-1.55c-6.53-.71-13-1.5-19.52-2.29l-14.47-1.77L1577,990l-8.41-1.09-8.38-1.17-16.73-2.33L1526.85,983c-5.55-.79-11.08-1.67-16.61-2.54s-11-1.71-16.57-2.61c-21.88-3.58-44.39-7.49-66.79-11.3-31.89-6.94-63.92-13.7-96.11-19.77,4.75-.06,7.71-.62,8-1.76.07-.28-.2-.62-.5-1,28.36,5.31,56.62,10.93,85.14,16.7ZM27.49,990.18l-1.23-.83,1.31.86ZM120,970.47c4.2.87,8.28,1.66,12.27,2.43l3.73.71,7,2.51c8.77,3.12,17.46,6.15,26.13,9.08q6.54,2.22,13.07,4.36,6.93,2.28,13.88,4.46c18.09,5.65,36.35,10.81,55.17,15.12q4.5,1.05,9,2c4.62,1,9.28,1.92,14,2.79,3.17.71,6.29,1.44,9.41,2.18l6.64,2.28,6.68,2.12-2-.3-4.51-.85c-1.51-.3-3-.64-4.52-1l-9-1.93,3.22,1.19q-11.92-2.16-23.81-4.72-7.05-1.5-14.09-3.14-16.11-3.75-32.15-8.13-17.67-5.48-36.27-11.54-7.24-2.35-14.61-4.79-8.72-2.86-17.57-5.82L131,975.94,104.45,967Q112.43,968.86,120,970.47Zm-31.7,12.71,3.19,1.22c7.83,3,16,5.93,24.43,8.84,14.82,5.14,30.11,10.11,44.6,14.72q8.29,2.65,16.56,5.18,7,2.15,13.93,4.16c16.07,4.67,32.08,8.92,48.14,12.7-3.11-.51-6.23-1-9.39-1.65s-9-2-6.09-.11q-20.35-5-41.06-10.77-7.24-2-14.54-4.1-9.69-2.77-19.51-5.69c-4.76-1.38-9.51-2.82-14.22-4.12l-7-1.91q-3.5-1-6.95-1.86c-3.67-2.07-7.44-4.14-11.47-6.31l-3.14-1.67c-4.55-2.4-9.45-4.84-14.93-7.44Z" transform="translate(0 -881.95)"/></g></svg>