<?xml version="1.0" encoding="utf-8"?>
<!-- Generator: Adobe Illustrator 23.0.1, SVG Export Plug-In . SVG Version: 6.00 Build 0)  -->
<svg version="1.1" id="Layer_1" xmlns="http://www.w3.org/2000/svg" xmlns:xlink="http://www.w3.org/1999/xlink" x="0px" y="0px"
	 viewBox="0 0 1920 1080" style="enable-background:new 0 0 1920 1080;" xml:space="preserve">
<g>
	<g>
		<path d="M0,0v28.09c38.05,3.46,76.76,5.44,115.86,6.05c62.02,0.98,125.03-1.44,188.47-6.66c1.49-0.12,2.99-0.24,4.48-0.37h15.06
			c-10.4,0.91-20.84,1.87-31.35,2.69c-11.39,0.99-22.85,1.79-34.39,2.7c-5.76,0.4-11.55,0.81-17.36,1.22
			c-2.91,0.2-5.82,0.43-8.73,0.61c-2.92,0.19-5.84,0.37-8.76,0.55c-32.15,2.08-62.78,3.66-92.84,4.65
			c-30.06,0.97-59.55,1.35-89.33,0.89l-14.06-0.86l-3.52-0.22l-10.5-0.8C8.69,38.21,4.33,37.91,0,37.53v13
			c3.93,0.27,7.87,0.51,11.82,0.73l9.52,0.58l9.53,0.44l9.54,0.44l4.77,0.22l4.77,0.15l19.11,0.6l19.13,0.34
			c61.25,1.71,122.69,0.14,184.15-3.9c-4.16,0.78-7.76,1.57-10.66,2.36c-2.91,0.78-5.12,1.51-6.51,2.26
			c-0.01,0.01-0.01,0.01-0.01,0.02c-9.56,0.58-19.07,1.2-28.58,1.64c-21.87,0.76-43.82,1.07-65.78,1.2
			c-5.49,0-10.98-0.01-16.48-0.01h-4.12l-4.12-0.05l-8.25-0.1c-10.99-0.07-21.98-0.4-32.98-0.65c-2.75-0.04-5.5-0.17-8.25-0.27
			l-8.24-0.3l-8.25-0.3c-2.74-0.1-5.49-0.27-8.23-0.39c-5.49-0.27-10.99-0.53-16.48-0.81c-5.48-0.34-10.97-0.68-16.45-1.02
			c-2.74-0.18-5.49-0.33-8.23-0.52l-8.21-0.63L4.3,51.96l-4.1-0.31L0,51.64v1.12c4.76,0.39,9.53,0.75,14.3,1.09l4.63,0.35
			c1.54,0.12,3.08,0.24,4.63,0.32l9.27,0.57c6.19,0.38,12.36,0.81,18.56,1.07c6.19,0.3,12.38,0.63,18.57,0.89
			c6.2,0.22,12.4,0.45,18.59,0.67c24.78,0.75,49.56,1.1,74.29,1.01C108.44,59.88,53.94,58.79,0,55.11v7.34l0.39,0.03l9.07,0.58
			c5.22,0.42,10.43,0.9,15.66,1.21c5.27,0.53,10.48,1.04,15.72,1.56C27.21,65.37,13.59,64.75,0,63.95v7.1
			c4.15,0.32,8.3,0.64,12.46,0.94c67.29,4.83,135.57,5.38,203.44,2.58c44.84,0.32,90.03-0.5,135.89-2.72
			c-5.68,0.63-11.42,1.29-17.21,1.82c-73.45,7.13-142.73,9.06-211.02,7.33c-34.15-0.88-68.08-2.7-102.25-5.42l-3.21-0.25l-3.2-0.28
			c-2.14-0.19-4.27-0.37-6.42-0.56c-2.82-0.24-5.64-0.5-8.48-0.74v1.51c5.58,0.53,11.16,1.04,16.75,1.51
			c33.35,2.85,66.89,4.81,101.9,5.63c7.25,0.14,14.46,0.27,21.63,0.41c7.17,0.05,14.3,0.1,21.39,0.14c3.55,0.04,7.08,0.01,10.6,0
			c3.53-0.02,7.04-0.04,10.55-0.05c7.03,0,14-0.14,20.95-0.24c3.47-0.05,6.94-0.1,10.4-0.15c3.46-0.06,6.9-0.17,10.34-0.24
			c3.44-0.09,6.88-0.17,10.31-0.25c1.71-0.04,3.43-0.08,5.14-0.12c1.71-0.05,3.41-0.11,5.12-0.16c6.82-0.22,13.63-0.45,20.4-0.66
			c6.78-0.27,13.52-0.54,20.25-0.81c-27.34,2.01-54.59,3.28-81.72,4.03c-27.14,0.74-54.18,0.95-81.19,0.46
			c-27.01-0.45-53.97-1.47-80.94-3.04C27.92,80.85,13.96,79.85,0,78.67v3.19c4.15,0.4,8.32,0.8,12.49,1.2
			c1.69,0.16,3.38,0.32,5.08,0.48c1.69,0.13,3.39,0.27,5.09,0.4c3.41,0.27,6.82,0.53,10.23,0.79c27.34,2.03,55.16,3.34,83.2,3.98
			c28.04,0.58,56.28,0.52,84.51-0.09l10.58-0.25l5.3-0.12l5.28-0.18c7.04-0.25,14.1-0.48,21.14-0.75
			c7.03-0.32,14.06-0.64,21.09-0.96c7.02-0.33,14.02-0.76,21.03-1.13c0.82,0.35,2.38,0.64,4.96,0.82c3.99,0.35,9.89,0.3,16.81,0.02
			c3.45-0.15,7.16-0.36,11.01-0.64c3.83-0.32,7.8-0.69,11.79-1.13l12.01-1.46c6.06-0.72,12.11-1.44,18.16-2.16l9.07-1.09l9.04-1.15
			c6.02-0.78,12.05-1.51,18.04-2.33c6-0.81,11.99-1.64,17.97-2.45c3-0.4,5.98-0.82,8.96-1.26l8.94-1.3
			c5.96-0.86,11.92-1.71,17.83-2.64c5.93-0.92,11.85-1.83,17.77-2.75c5.8-0.92,11.6-1.85,17.4-2.77c9.73-0.8,20.92-2,32.93-3.6
			c40.67-4.18,81.1-8.29,121.99-12.07c-2.44,0.66-3.85,1.25-3.68,1.7c0.56,0.49,3.25,0.65,7.16,0.51c3.91-0.12,9.03-0.52,14.48-1.18
			c5.52-0.6,11.01-1.19,16.5-1.78c-15.69,1.99-31.42,4.13-47.1,6.4c-2.28,0.31-4.36,0.64-6.25,0.98
			c-17.43,2.29-35.04,4.6-52.95,6.95c-19.75,2.61-39.36,5.2-58.83,7.77c-9.83,1.28-19.62,2.56-29.38,3.83
			c-2.45,0.32-4.9,0.63-7.34,0.95c-2.5,0.31-4.99,0.62-7.48,0.94c-5.01,0.61-10.01,1.23-15,1.85c-4.98,0.63-10,1.17-14.99,1.75
			c-5,0.56-9.99,1.13-14.97,1.69c-5.01,0.53-10,1.04-14.99,1.56c-4.99,0.52-9.96,1.05-14.96,1.51c-9.99,0.93-19.93,1.92-29.91,2.71
			c-4.99,0.42-9.97,0.83-14.94,1.25c-4.99,0.37-9.97,0.73-14.95,1.1c-79.61,5.81-159.09,7.41-237.88,4.12
			c-2.58-0.19-6.62-0.27-8.94-0.04c-1.54,0.23-1.29,0.6,1.6,0.79c6.21,0.5,12.37,0.85,18.5,1.25c6.12,0.38,12.22,0.84,18.27,1.13
			c6.07,0.33,12.11,0.66,18.12,0.99c6.01,0.3,12,0.53,17.99,0.81c3,0.13,5.99,0.26,8.98,0.39c2.99,0.1,5.98,0.19,8.97,0.3
			c5.97,0.18,11.95,0.4,17.94,0.55c11.95,0.24,23.98,0.55,36.07,0.58c3.02,0.02,6.06,0.04,9.1,0.06c1.52,0.01,3.04,0.02,4.57,0.03
			c1.52-0.01,3.04-0.01,4.57-0.02c6.11-0.04,12.26-0.09,18.45-0.13c6.19-0.06,12.4-0.22,18.69-0.35c3.14-0.07,6.3-0.14,9.47-0.22
			c3.16-0.11,6.34-0.22,9.53-0.32c25.57-0.83,52.06-2.33,79.99-4.58c4.16-0.33,8.31-0.67,12.47-1c4.14-0.37,8.28-0.73,12.41-1.1
			l12.41-1.11c4.14-0.37,8.24-0.8,12.37-1.2c8.23-0.81,16.48-1.61,24.67-2.51c8.18-0.88,16.53-1.77,24.37-2.64
			c31.81-3.52,63.2-7.1,94.36-10.45c62.27-6.7,123.64-12.55,184.49-15.33c31.66-2.15,62.41-3.18,92.38-2.98
			c14.98,0.12,29.77,0.55,44.38,1.29c3.65,0.21,7.3,0.37,10.93,0.61l10.86,0.74l10.82,0.91l5.42,0.45c1.8,0.15,3.61,0.36,5.42,0.53
			l10.86,1.1c3.63,0.4,7.27,0.85,10.9,1.28l5.46,0.64c1.82,0.21,3.65,0.48,5.48,0.71c3.65,0.48,7.3,0.97,10.96,1.46
			c3.67,0.52,7.35,1.08,11.03,1.61l5.53,0.81c1.84,0.27,3.7,0.58,5.55,0.88c3.7,0.59,7.41,1.19,11.13,1.78
			c3.73,0.64,7.46,1.28,11.21,1.92c1.87,0.32,3.74,0.65,5.61,0.97c1.89,0.35,3.78,0.69,5.66,1.04c3.78,0.69,7.56,1.38,11.35,2.08
			c7.63,1.48,15.24,2.88,23,4.46c15.43,3.05,31.2,6.38,47.3,9.81c43.51,9.33,87.78,19.4,133.97,28.74
			c46.16,9.33,94.28,17.92,144.73,24.09c25.21,3.08,50.97,5.55,77.16,7.22l19.72,1.07c1.61,0.1,3.35,0.15,5.06,0.21l5.14,0.17
			l10.28,0.34c1.71,0.05,3.43,0.12,5.14,0.15l5.12,0.06l10.25,0.1c6.86,0.12,13.64-0.02,20.45-0.09
			c54.42-0.79,107.5-5.8,158.01-13.3c38.07-5.23,72.38-12.83,97.52-19.96c12.56-3.58,22.94-7.03,30.43-10.09
			c3.76-1.53,6.85-2.95,9.13-4.24c2.27-1.3,3.77-2.47,4.42-3.47c1.47-2.41-2.16-3.62-9.77-3.73c-7.7-0.15-19.33,0.82-34.17,2.61
			c5.6-1.22,11.19-2.4,16.69-3.66l12.93-3.26l12.82-3.31c24.18-6.33,43.8-12.75,55.41-17.86l6.66-2.8V0H0z M193.07,27.21
			c-2.52,0.06-5.04,0.12-7.57,0.18c-2.52,0.03-5.04,0.06-7.57,0.09c-5.05,0.05-10.12,0.11-15.2,0.17
			c-5.08-0.01-10.18-0.01-15.3-0.02c-2.56-0.01-5.12-0.01-7.69-0.01c-2.57-0.02-5.14-0.07-7.73-0.11
			c-5.15-0.07-10.34-0.15-15.57-0.23c-1.85-0.05-3.7-0.1-5.56-0.16h86.5C195.94,27.14,194.51,27.17,193.07,27.21z M1634.37,45.75
			c-1.51,0.22-3.02,0.47-4.52,0.68l-4.51,0.61c-0.66,0.07-1.32,0.14-1.96,0.22c2.23-0.5,4.46-1.02,6.68-1.53
			c2.22-0.55,4.43-1.1,6.64-1.64c3.12-0.53,6.24-1.06,9.4-1.57c27.11-3.63,52.81-8.65,78.18-14.35c1.55-0.35,3.11-0.71,4.66-1.06
			c18.42-4.23,36.72-8.81,55.46-13.65c1.23-0.17,2.48-0.34,3.73-0.51c3.98-0.55,8.07-1.12,12.27-1.75c5.07-0.79,10.27-1.6,15.6-2.49
			c-12.61,3.06-25.06,6.07-37.32,9.02c-13.46,3.24-26.69,6.38-39.6,9.37c-9.81,2.28-19.43,4.48-28.85,6.59
			c-23.23,4.56-46.61,8.46-70.05,11.52c1.08-0.29,2.16-0.58,3.22-0.86C1640.39,44.82,1637.38,45.29,1634.37,45.75z M1814.66,26.57
			c-0.47,0.18-0.93,0.35-1.39,0.53c-4.7,1.8-9.02,3.51-13.23,5.22c-2.3,0.43-4.61,0.88-6.94,1.34c-2.33,0.45-4.68,0.92-7.04,1.38
			c-4.71,0.94-9.46,1.97-14.23,2.97c-25.59,5.48-50.5,10.46-75.1,14.82c2.87-1.34-3.03-0.3-6.1,0.07c-3.15,0.44-6.27,0.82-9.39,1.19
			c26.18-4.44,52.25-9.78,78.64-15.88c15.13-3.47,31.14-7.23,46.57-11.1c8.84-2.22,17.48-4.48,25.65-6.75
			C1825.59,22.56,1819.89,24.58,1814.66,26.57z"/>
	</g>
</g>
</svg>
