<?xml version="1.0" encoding="utf-8"?>
<!-- Generator: Adobe Illustrator 23.0.1, SVG Export Plug-In . SVG Version: 6.00 Build 0)  -->
<svg version="1.1" id="Layer_1" xmlns="http://www.w3.org/2000/svg" xmlns:xlink="http://www.w3.org/1999/xlink" x="0px" y="0px"
	 viewBox="0 0 1920 1080" style="enable-background:new 0 0 1920 1080;" xml:space="preserve">
<style type="text/css">
	.st0{fill:#222222;}
</style>
<g>
	<g>
		<path class="st0" d="M1284.87,959.05c52.5,7.56,103.84,16.39,154.4,25.12c12.59,2.17,25.18,4.33,37.78,6.5l18.39,3.06l4.6,0.77
			l4.6,0.73l9.21,1.45c24.56,3.83,49.18,7.36,73.84,10.36c3.31,0.42,6.15,0.49,6.39,0.15c0.24-0.29-2.26-0.92-5.32-1.28
			c-24.65-3-49.21-6.55-73.71-10.35l-9.18-1.45c-3.06-0.48-6.12-0.96-9.18-1.48l-18.33-3.06c-12.56-2.16-25.11-4.32-37.65-6.49
			c-50.42-8.72-101.63-17.55-154.15-25.13c-3.54-0.48-6.55-0.6-7.12-0.32C1279.16,957.96,1281.57,958.58,1284.87,959.05z"/>
		<path class="st0" d="M1920,1073.92v1.71c0.02,0,0.05-0.01,0.07-0.01C1920.06,1075.05,1920.03,1074.48,1920,1073.92z M1920,1079.55
			v3.66c0.04-0.01,0.08-0.01,0.12-0.02c0.02-1.23,0.02-2.45,0.01-3.66C1920.09,1079.54,1920.04,1079.55,1920,1079.55z
			 M972.36,954.64c-22.83,1.39-45.43,3.51-67.69,6.2c-7.07,1.14-14.16,2.23-21.18,3.42c-3.5,0.6-7,1.21-10.5,1.82
			c-3.5,0.61-7.01,1.21-10.47,1.88c3.59-0.54,7.23-1.01,10.86-1.5l10.88-1.48c7.3-0.92,14.61-1.83,21.92-2.75l11.05-1.25
			c3.68-0.4,7.34-0.87,11.06-1.22l11.13-1.11l5.56-0.56l5.6-0.48c29.84-2.63,60.21-4.39,90.4-4.87
			C1018.17,952.65,995.2,953.21,972.36,954.64z M972.36,954.64c-22.83,1.39-45.43,3.51-67.69,6.2c-7.07,1.14-14.16,2.23-21.18,3.42
			c-3.5,0.6-7,1.21-10.5,1.82c-3.5,0.61-7.01,1.21-10.47,1.88c3.59-0.54,7.23-1.01,10.86-1.5l10.88-1.48
			c7.3-0.92,14.61-1.83,21.92-2.75l11.05-1.25c3.68-0.4,7.34-0.87,11.06-1.22l11.13-1.11l5.56-0.56l5.6-0.48
			c29.84-2.63,60.21-4.39,90.4-4.87C1018.17,952.65,995.2,953.21,972.36,954.64z"/>
	</g>
</g>
<path d="M0,984.22v4.11c3.53,0.74,6.98,1.14,10.23,0.98C7.2,987.6,3.74,985.9,0,984.22z M1920,1081.16L1920,1081.16
	c0-3.55,0.09,5.68,0.12,2.03c0.02-1.23,0.02-2.45,0.01-3.66c0-1.31-0.02-2.62-0.06-3.91c-0.01-0.57-0.04-1.14-0.07-1.7v-0.02
	c-0.04-1.04-0.11-2.06-0.19-3.07c0.06-0.01,0.13-0.01,0.19-0.02v-7.99c-13.22,0.87-26.44,1.53-39.67,1.93
	c13.17-1.61,26.42-2.79,39.67-3.93v-8.27c-53.66,4.18-107.73,5.52-161.6,4.12c53.95,0.07,107.99-1.92,161.6-6.86v-1.26
	c-35.02,3.28-70.21,5.29-105.43,6.2c-54.85,1.43-113.13,4.31-165.69-7.84c90.34,5.1,180.9,7.29,271.12,0.37v-14.86
	c-9.07,0.87-18.15,1.65-27.24,2.33c-55.56,4.17-112.94,0.11-168.41-3.51c-59.27-3.86-118.39-9.34-177.24-16.26
	c-72.4-8.51-144.03-19.89-215.57-32.28c3.38-0.58,5.06-1.35,7.28-2.1c56.05,6.15,111.46,18.61,167.14,26.85
	c56.48,8.35,113.42,14.64,170.66,18.13c80.97,4.96,162.77,4.4,243.38-3.98v-8.65c-69.64,7.52-140.08,9.54-210.25,7.1
	c-164.8-5.73-322.23-43.74-485.22-59.42c-88.19-8.48-176.71-14.11-265.36-6.81c75.16-8.53,151.98-7.42,227.41-2.51
	c24.99,1.63,56.16,8.9,80.78,5.78c-18.36-8.89-53.67-7.09-74.95-8.77c-28.83-2.28-57.76-3.89-86.71-4.6
	c-45.47-1.11-91.03-0.04-136.27,4c-25.38,2.27-50.62,5.4-75.71,9.27c-38.03,5.86-76.05,9.57-114.09,15.19
	c-60.84,8.99-121.2,22.57-179.79,38.73c9.48-1.69,18.89-3.65,28.34-5.48c-46.34,11.07-89.64,21.75-137.6,27.19
	c-101.64,11.53-197.71,3.84-295.16-22.32c-47.34-12.72-93.56-28.12-138.93-44.99c1.69,0.64,3.39,1.28,5.08,1.92
	c-11.58-3.76-23.12-7.8-35.01-10.84c0.95,0.67,1.93,1.37,2.87,2.06c-9.73-3.33-19.54-6.53-29.43-9.57v32.3
	c0.86,0.27,1.72,0.54,2.58,0.81c17.55,5.48,40.69,10.32,54.04,19.57c-18.37-5.78-37.63-8.97-56.62-12.94v92.5 M229.78,1049.99
	c-3.06-0.44-8.96-1.62-6.09-0.09c-24.6-4.98-49.51-10.69-75.11-16.96c-4.76-1.14-9.51-2.33-14.22-3.4
	c-2.37-0.53-4.71-1.06-7.04-1.58c-2.33-0.53-4.65-1.04-6.95-1.53c-4.61-2.15-9.37-4.29-14.61-6.58c-5.23-2.28-10.93-4.6-17.44-7.12
	c22.44,7.14,48.42,14.2,72.22,20.44c26.38,6.99,52.45,13.1,78.63,18.18C236.06,1050.93,232.94,1050.5,229.78,1049.99z
	 M295.08,1043.29l-4.51-0.7c-1.51-0.25-3.01-0.53-4.52-0.78c-3.01-0.54-6.02-1.06-9.03-1.59c1.06,0.32,2.14,0.65,3.22,0.98
	c-23.44-3.51-46.82-7.98-70.05-13.19c-21.82-5.58-44.76-11.76-68.45-18.27c-12.25-3.37-24.69-6.82-37.29-10.32
	c5.32,1.01,10.51,1.95,15.57,2.84c4.2,0.72,8.28,1.37,12.27,2c1.23,0.19,2.44,0.38,3.64,0.56c0.01,0.01,0.01,0.01,0.02,0.01h0.01
	c20.34,6.01,40.15,11.67,60.17,16.86c25.37,6.53,51.07,12.27,78.18,16.43c3.17,0.59,6.29,1.19,9.41,1.8
	c2.2,0.63,4.42,1.25,6.64,1.88c2.22,0.59,4.45,1.16,6.68,1.75C296.39,1043.45,295.73,1043.37,295.08,1043.29z M950.58,957.62
	l-5.6,0.48l-5.56,0.56l-11.13,1.11c-3.72,0.35-7.38,0.82-11.06,1.22l-11.05,1.25c-7.31,0.92-14.62,1.83-21.92,2.75l-10.88,1.48
	c-3.63,0.49-7.27,0.96-10.86,1.5c3.46-0.67,6.97-1.27,10.47-1.88c3.5-0.61,7-1.22,10.5-1.82c7.02-1.19,14.11-2.28,21.18-3.42
	c22.26-2.69,44.86-4.81,67.69-6.2c22.84-1.44,45.81-2,68.62-1.89C1010.79,953.23,980.42,954.99,950.58,957.62z"/>
</svg>
