<svg id="Layer_1" data-name="Layer 1" xmlns="http://www.w3.org/2000/svg" viewBox="0 0 375.2 1148.85"><defs><style>.cls-1{fill:#eaebe6;}.cls-2{fill:#222;}</style></defs><title>Mobile Story Footer Wave Rough</title><path class="cls-1" d="M375,363.09V1483.94H0V403.37l1.08-.44,2.72-1.11,5.46-2.19L12,398.54c.92-.34,1.84-.59,2.76-.93l5.53-1.82c-2.38-.32-3.86-1.13-3.76-2.44v-.11c.17-1.33,1.91-2.93,4.58-4.38L16,390.06l-2.54.59c-.85.21-1.7.37-2.55.64-2.08.59-3.77.59-3.76-.05s1.62-1.77,3.61-2.35a251.77,251.77,0,0,1,41.75-7.43,216,216,0,0,1,50.31-.7c-2.3-1.18-4-2.46-4.76-3.78-1.31-.13-2.61-.34-3.91-.42l-3.92-.22-9,.09c-3,.14-6,.38-9,.58l-4.5.28-1.12.08-1.13.14-2.24.27-9,1.06c-1.5.14-3,.46-4.5.71l-4.51.79-4.5.77c-.75.14-1.5.22-2.25.41l-2.25.51-9,2.05-2.26.51-2.24.65-4.49,1.27-4.5,1.27-2.26.61-2.24.76-9,3.05-.36.12v-1.1l1.91-.64L7,388.88,9.5,388l1.26-.43A12.15,12.15,0,0,1,12,387.2l10.14-2.86,2.53-.72c.84-.24,1.69-.39,2.54-.59l5.07-1.14c6.75-1.73,13.53-2.64,20.28-3.89l10.14-1.22,2.53-.3c.85-.11,1.69-.22,2.53-.25l5.06-.32c-6.27-.13-12.53.55-18.79.91l-1.19.07-1.17.15-2.35.3-4.69.58-4.69.59-1.17.15-1.17.21-2.33.43L25.93,381c-.78.12-1.55.32-2.33.5l-2.33.59-4.65,1.07L12,384.24c-.78.15-1.55.42-2.33.64l-2.32.68L0,387.68v-6.21L1.44,381c3.27-1.06,6.55-2.17,9.82-3.17l9.84-2.53,2.46-.62c.41-.1.83-.22,1.24-.31l1.23-.23L31,373.2l4.27-1.06,2.13-.77,1.07-.38,1.07-.33-1,.09-1,.14-1.93.3-3.85.58c-2.57.4-5.14.74-7.7,1.18l-7.68,1.63-3.83.81-1.92.37-1.91.52c-2.92.76-5.84,1.55-8.76,2.39v-4.24a222.34,222.34,0,0,1,87-14.75l4.58-.59,2.29-.3,1.14-.15c.39-.05.77-.06,1.15-.09l9.22-.65c1.54-.09,3.09-.24,4.64-.28h14c-1.56-.36-3.15-.68-4.74-1q-3.8-.72-7.51-1.35l-1.85-.32c-.62-.1-1.24-.14-1.86-.21l-3.68-.34c-2.45-.23-4.88-.42-7.29-.59l-1.81-.13H89.91l-7.12.08-1.76,0-1.77.14-3.51.3c-4.68.43-9.32.74-13.93,1.6L54.9,357l-1.73.28-.86.14-.86.19-3.45.77-6.91,1.53c-1.15.26-2.3.47-3.45.78l-3.47.92-7,1.86c-1.16.32-2.33.59-3.5.94l-3.5,1.12-7.07,2.18c-1.19.37-2.38.67-3.57,1.08L6,370c-1,.36-1.78.37-1.92.13s.5-.73,1.49-1c2.34-.84,4.65-1.76,7-2.42l6.86-2.2c4.54-1.62,9.05-2.74,13.56-4l3.38-1L38,359l1.7-.39,6.84-1.52,3.44-.76c1.15-.24,2.3-.54,3.46-.69l7-1,5.85-.85c1.93-.2,3.86-.33,5.79-.5l5.73-.5,2.85-.24c1-.06,1.89-.07,2.83-.1L94.76,352l11.08.11-5.6-.59-2.79-.26-1.4-.13-.69-.07h-.7q-5.58-.15-11.1-.22c-.92,0-1.84,0-2.76,0L78,351l-5.51.31-5.49.34c-1.83.17-3.65.44-5.48.66l-5.47.69c-1.82.25-3.65.4-5.46.79l-10.92,2.05c-1.82.29-3.64.81-5.46,1.24l-5.46,1.32c-1.82.45-3.65.84-5.47,1.33l-5.48,1.62a8.55,8.55,0,0,1-3.41.53,1.26,1.26,0,0,1-.69.59c-.9.42-1.83.83-2.77,1.23-.47.2-1,.38-1.43.59L8.1,365c-1.94.9-3.92,1.76-5.95,2.63A3.41,3.41,0,0,1,0,368H0c-.24-.06-.2-.23,0-.44A4.39,4.39,0,0,1,.85,367c2-.83,3.89-1.66,5.73-2.51L11.86,362a5.48,5.48,0,0,1,1.87-.44c-.26-.41.48-1,1.91-1.58l5.31-2,2.68-1,2.7-.83q5.43-1.64,10.94-3.18c.46-.14.92-.24,1.38-.34l1.39-.3,2.78-.59,5.59-1.17c3.73-.87,7.5-1.27,11.28-1.8l5.69-.75c.47-.05,1-.14,1.42-.17l1.43-.1,2.86-.19,5.72-.37,2.86-.17,1.44-.08H95.48l1.44.08,2.88.17,5.74.35a2.45,2.45,0,0,1,1.34-.94,8.3,8.3,0,0,1,2-.53,11.44,11.44,0,0,1,1.24-.14h1.36a34.07,34.07,0,0,1,6.24.93l3.31.95c3.36.72,6.68,1.86,10,2.85l5,1.53,2.49.76,2.48.91,9.91,3.7c1.65.58,3.27,1.33,4.93,2.06l4.91,2.2a50.35,50.35,0,0,1,9.2,2.68c11.15,3.26,22.27,6.54,33.56,10-.67-.59-1.05-1.18-1-1.58.32-.92,3-.63,6,.59,1.53.59,3,1.17,4.57,1.72-2.17-.93-4.34-2-6.51-2.94l-6.5-3c-.63-.28-1.19-.59-1.73-.89-4.79-2-9.64-4-14.6-6-5.4-2.15-10.8-4.31-16.15-6.38L159.19,353,155,351.55c-.7-.22-1.39-.49-2.09-.68l-2.08-.58-8.33-2.24-2.08-.54c-.69-.17-1.38-.38-2.08-.5l-4.14-.81L126,344.63c-1.37-.29-2.75-.42-4.12-.59l-4.11-.48A213.53,213.53,0,0,0,53.2,346a5.8,5.8,0,0,1-1.23.18,3.69,3.69,0,0,1-1.19-.07c-.41-.2-.35-.55.43-.77s1.66-.47,2.49-.69l2.48-.64,4.91-1.29,4.9-1.32c1.62-.41,3.23-.71,4.85-1.07l9.67-2.08c3.23-.59,6.47-1,9.75-1.49l4.95-.7c1.66-.19,3.33-.26,5-.38,3.36-.23,6.78-.42,10.28-.56q5.23.11,10.71.38l2.76.15c.46,0,.93,0,1.39.1l1.4.18,5.71.78,6.89,1c2.29.44,4.58,1,6.87,1.45l6.87,1.5c1.15.22,2.29.59,3.43.9l3.43,1,6.86,2,1.71.5,1.63.52,3.24,1,12.93,4.18c8.63,2.79,17.19,5.48,25.79,8.12l6.43,1.91,3.23.95c1.08.33,2.15.63,3.22.92l6.45,1.76,3.23.89,3.22.83c17.9,5.93,35.07,9.82,52.09,11l6.38.43c.53,0,1.06,0,1.59,0h9.57l1.59-.09,6.38-.36c2.14-.05,4.26-.39,6.4-.63s4.27-.47,6.42-.79l6.44-1.2L338,374l3.31-.81A341.18,341.18,0,0,0,375,363.09Z" transform="translate(0.2 -335.09)"/><path class="cls-2" d="M15.84,404.87l.23.23h0Z" transform="translate(0.2 -335.09)"/></svg>