<svg id="Layer_1" data-name="Layer 1" xmlns="http://www.w3.org/2000/svg" viewBox="0 0 1918.92 973.11"><defs><style>.cls-1{fill:#ebebe6;}</style></defs><title>Desktop Story Footer Wave Rough</title><path class="cls-1" d="M15.35,206.24c2.13-.8,2-1.3-.38-1.22a28.91,28.91,0,0,0-7.62,1.48c-1.78.67-1.6,1.28.41,1.21A29.72,29.72,0,0,0,15.35,206.24Z" transform="translate(-0.8 -105.24)"/><path class="cls-1" d="M1919.72,183v895.4H.8V232.07l19.86-4.86c1.5-.39,3-.69,4.54-1l4.56-.94,9.14-1.88,18.34-3.73,9.21-1.87c3.08-.57,6.18-1,9.27-1.58l18.6-3.1c-8-.54-13-1.92-12.66-4.15a1.16,1.16,0,0,1,0-.18c.59-2.28,6.42-5,15.41-7.47L80,203.36l-8.57,1c-2.85.36-5.71.63-8.55,1.1-7,1-12.69,1-12.65-.1s5.44-3,12.14-4q70-9.4,140.37-12.65a1430.85,1430.85,0,0,1,169.15-1.19c-7.73-2-13.4-4.19-16-6.43a0,0,0,0,1,0,0c-4.4-.23-8.78-.58-13.16-.72L329.56,180l-30.14.14c-10.05.24-20.12.66-30.19,1l-15.11.48-3.78.13-3.78.23-7.55.47-30.26,1.81c-5.05.23-10.09.78-15.13,1.2l-15.14,1.34-15.14,1.31c-2.53.24-5.06.39-7.58.7l-7.56.88-30.26,3.49-7.58.87-7.54,1.1-15.11,2.17-15.12,2.15L65,200.51l-7.53,1.3L27.33,207l-7.54,1.27-2.66.53-4.85,1Q6.53,210.9.8,212.07v-1.86l7.12-1.43,7.65-1.54c2.81-.61,5.65-1.07,8.49-1.55l8.5-1.44,17-2.9,8.49-1.47,4.25-.73c1.41-.26,2.82-.49,4.25-.67l34.07-4.86,8.51-1.23c2.84-.41,5.69-.67,8.53-1l17.06-1.95c22.71-2.94,45.49-4.49,68.2-6.62L237,180.75l8.52-.52c2.83-.18,5.67-.37,8.5-.42l17-.55c-21.08-.21-42.13.94-63.18,1.55l-4,.13-3.94.24-7.88.51-15.76,1-15.77,1-3.94.25-3.93.37-7.86.73-31.45,2.87c-2.62.21-5.23.54-7.84.86l-7.84,1L82,191.59l-15.67,1.86c-2.62.26-5.21.71-7.82,1.09l-7.8,1.16-31.23,4.58c-6.24,1.57-12.45,3.24-18.71,4.9V193.49l13.72-2.77c5.48-1,11-1.87,16.48-2.81,11-1.8,22-3.69,33-5.39l33.1-4.31,8.28-1.06c1.38-.17,2.76-.37,4.14-.52l4.15-.4,16.61-1.58,14.34-1.81,7.18-1.3,3.59-.65c1.2-.21,2.4-.37,3.6-.56l-3.25.15-3.24.24-6.47.5-12.95,1c-8.64.67-17.28,1.25-25.9,2L81.34,177l-12.9,1.37L62,179l-6.43.89c-18.3,2.41-36.57,5-54.76,8v-6c103.29-22,210.37-32.07,317.76-30.26l15.38-1,7.7-.52,3.86-.26c1.29-.08,2.57-.1,3.86-.15l31-1.1c5.18-.15,10.39-.41,15.59-.48l15.65,0h31.56c-5.26-.62-10.6-1.16-15.94-1.7q-12.73-1.23-25.24-2.31l-6.24-.54c-2.08-.17-4.16-.23-6.23-.35l-12.39-.59q-12.35-.57-24.51-1l-6.07-.22-6.06,0H328.41l-23.92.13-5.94.05-5.93.24-11.82.51c-15.72.73-31.31,1.26-46.84,2.73l-23.26,1.91-5.8.47-2.91.25-2.89.32-11.6,1.31-23.21,2.6c-3.88.45-7.76.8-11.63,1.33L141,154.82,117.64,158c-3.91.54-7.83,1-11.75,1.6L94.11,161.5l-23.77,3.71c-4,.63-8,1.15-12,1.85l-12,2.15c-3.22.62-6,.64-6.47.23s1.7-1.24,5-1.76c7.87-1.43,15.64-3,23.39-4.11l23.07-3.76c15.25-2.76,30.42-4.66,45.57-6.88l11.37-1.64,5.69-.82,5.71-.66,23-2.59,11.56-1.3c3.87-.41,7.75-.91,11.65-1.17L229.42,143l19.67-1.45c6.52-.34,13-.57,19.47-.86l19.28-.84,9.58-.42c3.18-.1,6.36-.11,9.53-.17l37.77-.65,37.27.19-18.84-1-9.39-.45-4.69-.22-2.34-.11-2.34,0q-18.74-.25-37.32-.37c-3.1,0-6.2-.05-9.29,0l-9.28.25-18.51.53-18.47.57c-6.14.29-12.28.75-18.42,1.12l-18.39,1.18c-6.13.43-12.26.68-18.37,1.35l-36.71,3.49c-6.12.49-12.23,1.38-18.34,2.11l-18.37,2.25c-6.12.77-12.27,1.43-18.4,2.27l-18.41,2.75a54.61,54.61,0,0,1-11.46.91,4.94,4.94,0,0,1-2.34,1c-3,.71-6.15,1.41-9.31,2.09-1.58.35-3.19.65-4.79,1l-4.85,1.15c-6.51,1.53-13.2,3-20,4.48a21.79,21.79,0,0,1-7.37.64c-1.42-.19.09-.91,3-1.65,6.62-1.41,13.08-2.82,19.27-4.27L66,155.54a33.11,33.11,0,0,1,6.3-.74c-.88-.71,1.59-1.75,6.4-2.7l17.87-3.45,9-1.69,9.09-1.41q18.22-2.78,36.78-5.42c1.54-.24,3.09-.41,4.64-.58l4.66-.51,9.35-1,18.79-2c12.56-1.48,25.22-2.16,37.94-3.06l19.12-1.28c1.59-.09,3.19-.23,4.79-.29l4.79-.16,9.61-.33,19.26-.63L294,130l4.83-.14h48.32L352,130l9.66.29,19.32.6a10.44,10.44,0,0,1,4.48-1.61,53,53,0,0,1,6.68-.9c1.3-.1,2.69-.2,4.15-.23s3,0,4.57,0c6.35.14,13.64.68,21,1.58L433,131.35c11.27,1.23,22.46,3.17,33.66,4.85l16.78,2.6,8.38,1.29,8.35,1.56,33.32,6.29c5.55,1,11,2.28,16.56,3.52l16.51,3.74a302.68,302.68,0,0,1,30.94,4.57c37.49,5.55,74.87,11.13,112.84,17-2.26-1-3.55-2-3.38-2.68,1.08-1.57,10-1.08,20.16,1,5.14,1,10.25,2,15.35,2.93-7.28-1.59-14.59-3.34-21.89-5l-21.86-5.15c-2.11-.48-4-1-5.8-1.52-16.12-3.44-32.41-6.81-49.09-10.24-18.15-3.67-36.3-7.34-54.31-10.87l-28.17-5-14-2.45c-2.33-.38-4.65-.85-7-1.16l-7-1-28-3.8-7-.93c-2.32-.29-4.63-.65-7-.85l-13.93-1.38L449.78,126c-4.6-.5-9.22-.71-13.83-1l-13.81-.83A1409.07,1409.07,0,0,0,205,128.28a35.19,35.19,0,0,1-4.13.3,23.56,23.56,0,0,1-4-.12c-1.4-.33-1.18-.92,1.42-1.31,2.8-.48,5.6-.79,8.38-1.16l8.33-1.09,16.52-2.21L248,120.45c5.44-.7,10.87-1.21,16.29-1.82l32.52-3.55c10.86-1,21.77-1.71,32.79-2.54l16.63-1.18c5.58-.33,11.19-.45,16.85-.66,11.31-.38,22.81-.71,34.56-.94q17.6.18,36,.64l9.29.26c1.56.06,3.13.07,4.69.17l4.71.3,19.19,1.34,23.17,1.73c7.7.75,15.39,1.64,23.09,2.47l23.11,2.55c3.86.37,7.68,1,11.52,1.53l11.52,1.68L587,125.82l5.77.85,5.48.88,10.89,1.77,43.48,7.11c29,4.76,57.78,9.34,86.68,13.84l21.65,3.24,10.84,1.62q5.43.84,10.83,1.57l21.69,3c3.61.49,7.25,1,10.86,1.51L826,162.63c60.19,10.1,117.89,16.71,175.12,18.78l21.47.73c1.79.08,3.57.08,5.35.08l5.35,0,10.71,0,10.73,0c1.79,0,3.58,0,5.37,0l5.35-.15,21.46-.61c7.19-.08,14.32-.66,21.5-1.07s14.38-.81,21.59-1.34l21.65-2.06,10.89-1,11.14-1.37c40.16-4.78,80.47-11.35,121.25-18.59s82.12-15.21,124.37-22.62,85.47-14.39,130-19.59,90.53-8.61,137.9-8.67c17.79,0,35.42.28,51.16,1.92,7.94.65,15.6,1.7,22.86,2.74,3.63.54,7.16,1,10.59,1.66s6.73,1.28,9.91,1.94,6.25,1.34,9.18,2l4.29,1,4.07,1.13c5.29,1.52,10,3,14,4.58,2,.76,3.85,1.52,5.5,2.27s3.13,1.58,4.42,2.35a16.66,16.66,0,0,1,5.3,4.46c2.16,3.45-.86,6.1-7.93,7.91a106.45,106.45,0,0,1-13.52,2.29q-4.08.45-8.79.75l-10,.54,4.15.41,4.12.5,8.25,1c4.34.72,8.68,1.38,13,2.16l13,2.42c3.07.58,6.08,1.17,9,1.78s5.8,1.36,8.59,2.05c5.57,1.39,10.84,2.76,15.72,4.24s9.38,3.08,13.44,4.61a109.28,109.28,0,0,1,10.78,4.58l17.11,8.1C1909.73,177.32,1914.58,180.12,1919.72,183Z" transform="translate(-0.8 -105.24)"/></svg>