<svg xmlns="http://www.w3.org/2000/svg" viewBox="0 0 1920 152.14"><defs><style>.cls-1{fill:#ebebe6;}</style></defs><g id="Layer_2" data-name="Layer 2"><g id="Layer_1-2" data-name="Layer 1"><path class="cls-1" d="M0,0V28.1c38,3.5,76.8,5.4,115.9,6,62,1,125-1.4,188.5-6.7,1.5-.1,3-.2,4.5-.4H324c-10.5,1-21,2-31.5,2.8-11.4,1-22.9,1.8-34.4,2.7l-17.4,1.2-8.7.6c-2.9.2-5.8.4-8.8.5-32.2,2.1-62.8,3.7-92.8,4.7s-59.6,1.3-89.3.9L27,39.5l-3.5-.2L13,38.5c-4.3-.3-8.7-.6-13-1v13c3.9.3,7.9.5,11.8.7l9.5.6,9.5.4,9.5.4,4.8.2,4.8.2,19.1.6,19.2.4c61.3,1.7,122.7.1,184.1-3.9-4.2.8-7.8,1.6-10.7,2.4a31,31,0,0,0-6.5,2.3h0c-9.6.6-19.1,1.2-28.6,1.6-21.9.8-43.8,1.1-65.8,1.2H136l-8.2-.1c-11-.1-22-.4-33-.7-2.8,0-5.5-.2-8.2-.3l-8.2-.3-8.2-.3c-2.7-.1-5.5-.3-8.2-.4-5.5-.3-11-.5-16.5-.8s-11-.7-16.5-1c-2.7-.2-5.5-.3-8.2-.5l-8.2-.6L4.3,52,.2,51.7H0v1.1c4.8.4,9.5.8,14.3,1.1l4.6.3,4.6.3,9.3.6c6.2.4,12.4.8,18.6,1.1l18.6.9c6.2.2,12.4.5,18.6.7q37.2,1.2,74.3,1c-54.5,1.1-109,0-162.9-3.7v7.3H.4l9.1.6c5.2.4,10.4.9,15.7,1.2,5.3.5,10.5,1,15.7,1.6C27.2,65.4,13.6,64.8,0,64v7.1l12.5.9a1814.88,1814.88,0,0,0,203.4,2.6c44.8.3,90-.5,135.9-2.7-5.7.6-11.4,1.3-17.2,1.8a1705.89,1705.89,0,0,1-211,7.3c-34.2-.9-68.1-2.7-102.2-5.4l-3.2-.2L15,75.1l-6.4-.6c-2.9-.2-5.8-.5-8.6-.7v1.5l16.8,1.5c33.3,2.8,66.9,4.8,101.9,5.6,7.2.1,14.5.3,21.6.4s14.3.1,21.4.1h10.6c3.5,0,7,0,10.6-.1,7,0,14-.1,20.9-.2,3.5-.1,6.9-.1,10.4-.2s6.9-.2,10.3-.2,6.9-.2,10.3-.2c1.7,0,3.4-.1,5.1-.1s3.4-.1,5.1-.2c6.8-.2,13.6-.4,20.4-.7s13.5-.5,20.2-.8c-27.3,2-54.6,3.3-81.7,4s-54.2.9-81.2.5-54-1.5-80.9-3C27.9,80.8,14,79.8,0,78.7v3.2l12.5,1.2c1.7.2,3.4.3,5.1.5s3.4.3,5.1.4c3.4.3,6.8.5,10.2.8,27.3,2,55.2,3.3,83.2,4s56.3.5,84.5-.1l10.6-.2,5.3-.1,5.3-.2c7-.2,14.1-.5,21.1-.8s14.1-.6,21.1-1,14-.8,21-1.1a20.87,20.87,0,0,0,5,.8,154.29,154.29,0,0,0,16.8,0l11-.6c3.8-.3,7.8-.7,11.8-1.1l12-1.5c6.1-.7,12.1-1.4,18.2-2.2l9.1-1.1,9-1.2c6-.8,12-1.5,18-2.3l18-2.4c3-.4,6-.8,9-1.3l8.9-1.3c6-.9,11.9-1.7,17.8-2.6s11.9-1.8,17.8-2.8,11.6-1.8,17.4-2.8c9.7-.8,20.9-2,32.9-3.6,40.7-4.2,81.1-8.3,122-12.1-2.4.7-3.8,1.2-3.7,1.7.6.5,3.2.7,7.2.5s9-.5,14.5-1.2l16.5-1.8c-15.7,2-31.4,4.1-47.1,6.4-2.3.3-4.4.6-6.2,1-17.4,2.3-35,4.6-53,7q-29.7,3.9-58.8,7.8c-9.8,1.3-19.6,2.6-29.4,3.8l-7.3.9-7.5.9-15,1.8-15,1.8c-5,.6-10,1.1-15,1.7s-10,1-15,1.6-10,1.1-15,1.5c-10,.9-19.9,1.9-29.9,2.7l-14.9,1.2c-5,.4-10,.7-15,1.1A2078.88,2078.88,0,0,1,92.2,91.7a52.87,52.87,0,0,0-8.9,0c-1.5.2-1.3.6,1.6.8,6.2.5,12.4.8,18.5,1.2s12.2.8,18.3,1.1,12.1.7,18.1,1,12,.5,18,.8c3,.1,6,.3,9,.4l9,.3,17.9.6c11.9.2,24,.6,36.1.6,3,0,6.1,0,9.1.1h9.2c6.1,0,12.3-.1,18.5-.1l18.7-.3c3.1-.1,6.3-.1,9.5-.2l9.5-.3c25.6-.8,52.1-2.3,80-4.6,4.2-.3,8.3-.7,12.5-1s8.3-.7,12.4-1.1l12.4-1.1L434,88.7c8.2-.8,16.5-1.6,24.7-2.5s16.5-1.8,24.4-2.6c31.8-3.5,63.2-7.1,94.4-10.4C639.8,66.5,701.1,60.7,762,57.9c31.7-2.2,62.4-3.2,92.4-3,15,.1,29.8.5,44.4,1.3l10.9.6,10.9.7,10.8.9,5.4.5c1.8.2,3.6.4,5.4.5l10.9,1.1c3.6.4,7.3.8,10.9,1.3l5.5.6c1.8.2,3.7.5,5.5.7l11,1.5c3.7.5,7.3,1.1,11,1.6l5.5.8,5.5.9,11.1,1.8c3.7.6,7.5,1.3,11.2,1.9,1.9.3,3.7.7,5.6,1s3.8.7,5.7,1c3.8.7,7.6,1.4,11.3,2.1,7.6,1.5,15.2,2.9,23,4.5,15.4,3.1,31.2,6.4,47.3,9.8,43.5,9.3,87.8,19.4,134,28.7s94.3,17.9,144.7,24.1c25.2,3.1,51,5.6,77.2,7.2l19.7,1.1c1.6.1,3.3.1,5.1.2l5.1.2,10.3.3c1.7.1,3.4.1,5.1.1l5.1.1,10.2.1c6.9.1,13.6,0,20.4-.1a1197.6,1197.6,0,0,0,158-13.3c38.1-5.2,72.4-12.8,97.5-20a297.86,297.86,0,0,0,30.4-10.1,74.12,74.12,0,0,0,9.1-4.2c2.3-1.3,3.8-2.5,4.4-3.5,1.5-2.4-2.2-3.6-9.8-3.7s-19.3.8-34.2,2.6c5.6-1.2,11.2-2.4,16.7-3.7l12.9-3.3,12.8-3.3c24.2-6.3,43.8-12.8,55.4-17.9l6.7-2.8V0ZM193.1,27.2c-2.5.1-5,.1-7.6.2s-5,.1-7.6.1c-5.1,0-10.1.1-15.2.2h-23c-2.6,0-5.1-.1-7.7-.1-5.2-.1-10.3-.1-15.6-.2-1.8,0-3.7-.1-5.6-.2h86.5C195.9,27.1,194.5,27.2,193.1,27.2ZM1634.4,45.8c-1.5.2-3,.5-4.5.7l-4.5.6c-.7.1-1.3.1-2,.2l6.7-1.5c2.2-.5,4.4-1.1,6.6-1.6,3.1-.5,6.2-1.1,9.4-1.6,27.1-3.6,52.8-8.7,78.2-14.4,1.6-.4,3.1-.7,4.7-1.1,18.4-4.2,36.7-8.8,55.5-13.6,1.2-.2,2.5-.3,3.7-.5,4-.6,8.1-1.1,12.3-1.8,5.1-.8,10.3-1.6,15.6-2.5-12.6,3.1-25.1,6.1-37.3,9-13.5,3.2-26.7,6.4-39.6,9.4q-14.7,3.45-28.8,6.6c-23.2,4.6-46.6,8.5-70.1,11.5,1.1-.3,2.2-.6,3.2-.9C1640.4,44.8,1637.4,45.3,1634.4,45.8Zm180.3-19.2a7.84,7.84,0,0,1-1.4.5c-4.7,1.8-9,3.5-13.2,5.2-2.3.4-4.6.9-6.9,1.3s-4.7.9-7,1.4c-4.7.9-9.5,2-14.2,3-25.6,5.5-50.5,10.5-75.1,14.8,2.9-1.3-3-.3-6.1.1l-9.4,1.2c26.2-4.4,52.2-9.8,78.6-15.9,15.1-3.5,31.1-7.2,46.6-11.1,8.8-2.2,17.5-4.5,25.7-6.8C1825.6,22.6,1819.9,24.6,1814.7,26.6Z"/></g></g></svg>