<svg id="Layer_1" data-name="Layer 1" xmlns="http://www.w3.org/2000/svg" viewBox="0 0 1200 278.78"><defs><style>.cls-1{fill:#2ea395;}</style></defs><title>Green About Wave</title><path class="cls-1" d="M1080.92,734.65c2.68-.3,4.39-.93,4.8-1.93.59-1.38-1.58-3.17-5.34-5,25.41,3.9,51.06,3.09,72.6-3.71,1.3-.33,1.86-.87,1.35-1.06a6.85,6.85,0,0,0-3.14.24,137.63,137.63,0,0,1-24.57,3.5,170.08,170.08,0,0,1-25.71-.3,198.09,198.09,0,0,1-26-3.74c-8.62-1.73-17.56-4.14-26.36-6.82-27.17-11-53.23-25.36-85-39.2-11.57-5-23.35-9.67-35.44-13.73l-18.2-5.37c-6-1.73-12-3.57-18.15-4.71-12.16-2.55-24.16-5.31-36.3-6.69-6.06-.81-12.08-1.71-18.09-2.44q-9.06-.69-18.1-1.41c-4.3-.59-8.58-1.33-12.89-1.76s-8.61-.76-12.89-1.11-8.59-.73-12.87-1.08-8.56-.36-12.81-.54c2.41-.65,3.87-1.47,3.9-2.36a1.23,1.23,0,0,0-.35-.7c7.53,0,15.11.83,22.75,1.3s15.28,1,23,2.08c4.47.57,8.94,1.11,13.41,1.65s8.91,1,13.32,1.87c8.83,1.57,17.67,3,26.44,4.66q13.13,3,26.11,6c8.65,2.22,17.15,4.9,25.68,7.31,17.12,5,33.46,11.3,49.14,17.34s30.85,12.24,45.64,17.77,29.26,10.43,43.45,14.17c7.1,1.95,14.12,3.41,20.86,4.66a203.66,203.66,0,0,0,20.43,2.43,181.39,181.39,0,0,0,20,.28,148.78,148.78,0,0,0,19-2.25,117.75,117.75,0,0,0,17.42-4.63c5.34-2.17,10.59-4.28,15.09-7.18a14.89,14.89,0,0,0,5.12-4.28c1-1.33,1.22-2.36.49-2.9-1.55-1.11-5.86.46-10.38,2.82-17.25,8.34-39.87,11.78-63.85,10.26-3-.24-6-.35-9-.76l-4.58-.51-4.58-.68c-6.12-.87-12.19-2.14-18.74-3.65A414.46,414.46,0,0,1,1027,690.36c-20.18-7-39.82-14.87-60.52-22.49-10.32-3.79-20.93-7.55-32.1-11-5.52-1.84-11.29-3.2-17-4.82s-11.56-3.14-17.47-4.74l-20.8-4.42c-3.42-.73-6.83-1.54-10.27-2.16S862,639.57,858.58,639c-6.82-1.06-13.6-2.25-20.37-3.26-6.77-.75-13.51-1.51-20.26-2.24-3.39-.38-6.74-.82-10.1-1.11l-10.11-.63q-10.08-.64-20.2-1.27c-6.75-.14-13.49-.24-20.27-.38-3.41,0-6.8-.08-10.21-.14l-10.18.28c-5.37-.11-10.76-.14-16.18.1s-10.91.84-16.3,1.25a1220.56,1220.56,0,0,0-123.85,14c47.76-10.18,96.52-18.17,145.92-22,3.58-.18,5.91-.86,5.53-1.51-.65-.63-3.87-1-7.45-.79A997.57,997.57,0,0,0,622.43,633c-33.51,5.55-66.42,12.65-98.9,20.42-19.07-1.68-57.4,4.55-90.18,13.09-12,3.11-22.72,6.63-33.34,10.26l15.33-3.22c-15.09,4.17-27.36,8.75-39.44,13-1.08.16-2.17.35-3.36.54-7.34.78-14.84,1.76-22.43,2.71-7.61.7-15.33,1.89-23.16,2.65s-15.71,1.71-23.62,1.95c-3.95.22-7.88.41-11.78.63s-7.83.05-11.68.05l1.39,1.33c.27.27.54.54.81.78-5.74-.4-9.1-1.43-15.33-1.81,1.76.54,3.41,1.08,5.17,1.51h-.38a159.07,159.07,0,0,0-23.08-1.78c-11.86-2.5-25.24-4.85-39.38-7.4-.41-.05-.79-.13-1.2-.19q-11.87-1.95-23.7-4.14a7.17,7.17,0,0,0-.68-.35,54.72,54.72,0,0,0-12.84-3.72,56.58,56.58,0,0,1-6.31-2.11c-3.46-1.6-7.12-3.2-11-4.74s-7.77-3.33-11.89-5c-8.29-3.14-17-6.9-26.14-10.45,3.44,1.68,7,3.41,10.51,5.09-2.65-1-5.31-2.09-8-3.09s-5.56-2-8.54-3.06c.55.6,1.17,1.33,1.71,1.92a147.46,147.46,0,0,0-14.44-6.39c-5.09-2-10.26-4.09-15.41-5.74S71,642.38,66.42,641.22A112.81,112.81,0,0,0,54,638.78c-7.07-.89-10.24.52-9.48,3.55.38,1.54,1.73,3.47,4,5.74a36.46,36.46,0,0,0,4.79,4C33,646.66,0,637.48,0,633.91V900H1200V693.58C1168,732.4,1124.75,740.9,1080.92,734.65ZM598.59,645.42l-21.53,3.65-10.76,1.74-10.67,1.89-21.37,3.53,20.56-4.88q32.34-5.73,65.5-9.37Q609.43,643.72,598.59,645.42Z" transform="translate(0 -621.22)"/></svg>